<?xml version="1.0" encoding="utf-8"?>
<!-- Generator: Adobe Illustrator 17.1.0, SVG Export Plug-In . SVG Version: 6.00 Build 0)  -->
<!DOCTYPE svg PUBLIC "-//W3C//DTD SVG 1.1//EN" "http://www.w3.org/Graphics/SVG/1.1/DTD/svg11.dtd">
<svg version="1.1" id="Слой_1" xmlns="http://www.w3.org/2000/svg" xmlns:xlink="http://www.w3.org/1999/xlink" x="0px" y="0px"
	 viewBox="0 0 203 320.5" enable-background="new 0 0 203 320.5" xml:space="preserve">
<g>
	<path fill="#3C5D66" d="M156.8,156.5c-1.4-1.1-2.3-2.2-3.5-3.4c-2-2.1-5.1-3.3-6.8-5.6l-16.5,5.1c-0.8,2.2-7,2.7-7.3,2.3
		c0,0,2.3,46.3,1.7,49.5c6.3-3.1,6.3-9.5,6.3-16c0-4.7-0.5-11.7,3.7-15c1.4-1.1,4.6-1.6,6.3-1c5.5,1.9,1,9.6-1.3,12.1
		c-1.7,1.8-3.3,2.4-4.4,4.6c-0.5,1.2-0.9,2.6-1.1,3.9c-0.6,2.7-0.3,6.2,2.6,7.4c2.1,0.9,6.9,1,8.8,0.4c1-0.3,1.9-1.7,2.8-2.4
		c1.6-1.1,3.5-1.9,5.1-3c1.9-1.3,3.2-3,4.9-4.8c3-3.2,8.4-5.5,9.2-10.1C168.9,171.1,164,162.1,156.8,156.5z"/>
	<path fill="#3C5D66" d="M146.5,147.5c-2.6-2.1-6.5-6.9-10.3-5.4c-0.1,2.6-0.1,4.5-1,7c-1.6,4.5-3.2,6.1-7.1,9"/>
</g>
<g>
	<path fill="#358F9F" d="M77.8,150.8c-0.1,0.1-0.1,0.1-0.2,0.2"/>
	<path fill="#358F9F" d="M121.5,155.4c6,9.7,4.6,21.9,4.6,33.5c0,6.1,0.1,12.2-0.7,18.1c-0.5,3.6-59.7,12.5-60.4-1.2
		c-0.5-8.9,0.7-17.8,1.5-26.4c0.6-6,0.1-12.3,1.3-18.1c0.5-2.2,0.6-5.1,1.6-7.1"/>
</g>
<g>
	<path fill="#4AAFBF" d="M77.3,153.4c-7.7,5.5-9.3,17.3-9.8,26.1c-0.5,7.4-1.1,15.1,1.5,22.1c-5.2,2.3-5.5-31.2-16.2-27
		c-7.9,3.1-1.4,10.1,3.1,12.7c3.6,2,3.8,4.6,2.3,8.4c-0.9,2.3-4.1,7.5-6.6,7.6c-1.9,0.1-3.7-2.1-5-3c-2.7-1.8-5.3-3.2-7.7-5
		c-3.5-2.5-7-5.5-9.6-8.9c-2.8-3.4-5.2-6.7-6.1-11.1c-2.8-13.6,14.6-21.6,23.9-27c2.9-1.7,5.9-3.6,9.2-4.6c1.8-0.5,6.6-2.6,8.6-1.8
		c1.4,0.6,0.9,1.5,1.9,2.4c0.9,0.8,2.5,0.8,3.7,0.8c3.1-0.1,5.8-1.7,8.9-1.8c1.2,1.8-1.8,8.1-2.5,9.7"/>
</g>
<g>
	<path fill="#E1B6B4" d="M48.3,207.2c-1.9,2.3-5,4.9-4.8,8.2c0.1,2.8,10,9.1,12.4,8.9c2.5-0.1,14-10.8,11-17.1
		c-0.3-2.5-3.8-12.6-5.8-14.4"/>
	<path fill="#E1B6B4" d="M132.9,197.5c0.8,2.4,4.9,2.9,6.9,3.5c4.9-0.1,13.3,7.2,12.6,10.6c-0.8,4.3-5,9.1-8.9,10.4
		c-3.5,1.2-7.2-2.6-9.5-4.7c-1.7-1.6-4-3.1-4.3-5.6"/>
</g>
<g>
	<path fill="#824921" d="M69.3,293.9c-7.6,3.6-13.4,8.9-12.6,18.2c0.6,7,8.9,6.4,14.2,3.5c4.3-2.4,7.2-5.9,12.3-6.6
		c0.8,1.6,1.4,4.1,2.9,5.2c2.5,1.9,21.8,2.9,23.4,0.8c0.9-1.2,1.3-5,3.1-5.4c1.5-0.4,21.9,7.7,23.5,6.7c2-1.3,2.1-6.2,1.9-8.2
		c-0.6-5.7-4.6-9.1-9.3-11c-3.5-1.4-10.7,0.3-13.8,2.2c-3,1.8-14.5,3.6-17.5,3.6c-4.4,0-16-5.6-17.3-6.8c-1.9-1.7-10.1-2.1-11.1-2.1
		"/>
</g>
<g>
	<path fill="#995727" d="M70.3,295.2c-5.2-0.1-9.5,4.9-10.5,9.7c-0.6,3,0,10,3.6,11.4c-8.8,1-18.4-3-15.3-13.1
		c0.9-3,2.8-6.3,6.1-7.2c4.1-1,8.9-1,13.1-1"/>
	<path fill="#995727" d="M67.3,295.1c0.2,0,0.3,0,0.5,0"/>
</g>
<g>
	<path fill="#673A1A" d="M128.8,298.7c2.5,2,4.9,4.3,6.7,7.2c2.1,3.5,1.3,7.5,1.9,11.3c1.4-1.2,10.1-3.9,11.3-5
		c1-0.9,1.9-10.5-0.6-13.3c-5.7-6.4-13.9-2.2-21.4-2"/>
</g>
<g>
	<path fill="#134049" d="M79.6,211.2c0,19.1,4.2,88.5,9.8,91.9c2.5,1.5,15.1-1,19.1-0.3c2.7-30.5,5.2-61.4,5.4-92.3"/>
	<g>
		<path fill="#0E3137" d="M109.7,211.6c1.1,25.2-0.5,51.5-1.6,76.8c-0.2,4.9-4.2,17.5,4.2,12.9c3.5-1.9,3.7-7.8,4.6-11.1
			c3.6-13.4,13.3-86.7,13.3-86.7"/>
	</g>
</g>
<g>
	<path fill="#1F6775" d="M82.9,211.4c-1.5,30.4,3.6,61,5.9,90.3c-1.4,0.3-4.1,0.3-5.5,0c-6.1-25.7-16.6-90-16.2-96.8"/>
</g>
<g>
	<path fill="#963C20" d="M8,4.8c32.4,5.6,68,0.5,101.1,3"/>
	<path fill="#963C20" d="M4.4,10.6C2.9,31.6,6.6,101,6.7,116c14.8,0.1,156.7-6.8,156.8-7.7c0.1-1-48.7-97.9-51.9-99.2
		C111.1,8.8,4.4,10.6,4.4,10.6z"/>
	<path fill="#963C20" d="M4.7,9.8c0.2-0.5,1-0.9,1.7-1"/>
</g>
<g>
	<path fill="#F89E5A" d="M100.2,115.9c2.7,5.8,4.5,13.9,5.3,20.2c0.7,5.5-0.2,10.4-1.8,15.6c-1.2,3.9-4.2,7-6.9,9.6
		c-1.6,1.6-2,1.3-3.3-0.6c-1-1.6-1.1-2.6-2.9-3.5c-3.5-1.7-5.1,1.5-8.2,2.3c-3.2,0.8-5.5-0.3-5.6-3.7c-0.1-3.6,3.2-7,3.9-10.4
		c0.5-2.5-0.6-3-3.2-2.8c-3.5,0.3-6.6,2.6-10.3,3c-2.1-5.3-2.7-10.6,3.1-13.5c2.5-1.3,7.1-1.7,5.8-5.6c-0.6-1.7-5.4-7.1-6.6-6.2
		c-0.2-3.4-1.8-5.4,0.3-8.3c0.6-0.8,7-5.7,10.7-3.7c2.5,1.4,3.8,4.1,7.1,4.2c2.2,0.1,7.9-3,7.4-5.8"/>
</g>
<g>
	<path fill="#EE834A" d="M115.4,112.1c-2.1-2-2.5-10.6-3-12.7c-0.9-4.2-16.9-7.5-20.5-6.4c-2.9,0.9-5.3,1.3-6.1,4.3
		c-1,3.6,10.6,6.2,8.5,10.3l-0.2-0.1c0.2,0.6,2.8,6.4,4,8.8c3.5,7.1,4.8,16,4.8,23.7c0,5.8-2.3,10.4-4.5,15.5
		c-1.5,3.5-5.2,8.9,0.7,10.4c1.1,0.3,7.7-4.8,7.9-5.9c0.2-1,1.5-5.6,3-6.3c4.7-2,9.2,2.2,13.9,2.1
		C123.7,154,119.1,115.8,115.4,112.1z"/>
</g>
<g>
	<path fill="#C16C3E" d="M115.7,113.8c-1.3,4-2.4,8.3-3.6,12.4c-1.7,5.4,0.1,10,1.8,15.2c1.5,4.5,3.3,10.1,7.4,13
		c6.4,4.6,13.5-2.5,14.8-8.7c0.8-3.8-8-12.6-7.2-14.7c0.4-1.2,6.8-11.8,5.3-15.2c-2.1-4.6-6.2-3.4-10.2-2.7c-2.7,0.5-5.3,0.4-8,1.2"
		/>
	<path fill="#C16C3E" d="M116,114.3c-0.1,0-0.1,0-0.2,0"/>
</g>
<g>
	<path fill="#7C311A" d="M104.1,7.2c30.3,33.1,34.6,64.3,11.9,104.9c27.5-3.2,81.3,28.9,82.5-16c3-19.1,3.6-55.2-2.3-73.6
		c-5.6-17.4-3-14.2-24.1-14.9c-22.1-0.8-45-1.4-67,0"/>
	<path fill="#7C311A" d="M105.1,7.5c0-0.2,0-0.4,0-0.7"/>
	<path fill="#7C311A" d="M105.1,7.2c-0.1-0.1-0.2-0.2-0.3-0.3"/>
</g>
<g>
	<path fill="#F9F9FA" d="M31.7,63.4c-2.9,0.2-6.1,0.7-8.3,2.7c-1.3,1.1-2.4,2.8-3,4.3c-1.6,4.1-1.1,10-1.2,14.2
		c-0.1,3.9,0.9,15.5,1.2,17.4c0.2,1.3,0.2,2.7,0.7,3.9c0.4,1.1,1.8,2.1,3,2.3c2.2,0.3,4.7-0.7,5.2-3.1c0.3-1.7,0-3.4-0.2-5
		c-0.2-1.8-0.4-3.6-0.6-5.5c-0.2-2.3-0.5-4.8-0.3-7.2c1.9,0,3.7,0.1,5.6,0.2c-0.1,0-0.2,0-0.2,0c1.7,0.3,3.5,0,4.8-1.1
		c1.4-1.2,1.8-3.6,1-5.2c-0.8-1.5-2.3-2.2-4-2.4c-0.9-0.1-5.5-0.6-6.9-0.4c0.1,0,0.2-3.5,0.2-3.9c0.3-1.6,1.4-2.3,2.9-2.5
		c1.3-0.2,2.6-0.1,3.9,0c2.2,0.2,4.4,0.9,6.6,0.8c3.5,0,6.2-4.7,3.6-7.4c-0.6-0.6-1.6-1.3-2.5-1.5C42.7,64,33.3,63.2,31.7,63.4z"/>
	<path fill="#F9F9FA" d="M58.6,65.2c-1.1,0.1-2.3,0.4-3.3,0.9c-1.2,0.7-2.1,1.9-2.8,3c-1.1,1.7-2.1,3.6-2.9,5.6
		c-0.4,1.1-0.8,2.2-1.1,3.4c-0.9,3.7-0.9,7.6-0.3,11.3c0.3,2,0.7,4.2,1.4,6.2c2.9,8.8,10.9,14.8,19.7,9.5c1.4-0.8,2.7-2.1,3.8-3.3
		c1.1-1.2,1.9-2.6,2.6-4.1c1.3-3.3,1.9-7.1,2-10.7c0.2-3.7-0.6-7.2-2.1-10.6c-1.3-2.9-2.4-5.8-4.7-8.1c-2-1.9-4.6-2.9-7.3-3.1
		C62.2,65,58.8,65.2,58.6,65.2z M65,97.3c-0.6,0.4-1.3,0.7-2,0.6c-3.6-0.2-4.6-4.5-5.3-7.4c-0.7-2.9-1-5.9-0.7-8.9
		c0.3-2.6,1.1-6.2,3.6-7.6c0.6-0.4,1.3-0.5,2.1-0.4c1.2,0.2,2.4,0.9,3.3,1.8c0.9,1,1.2,2.2,1.6,3.4c0.3,0.9,0.5,1.8,0.7,2.7
		c0.3,1.9,0.4,3.8,0.4,5.7c-0.1,3.3-0.5,7.7-3.4,9.9C65.1,97.2,65,97.3,65,97.3z"/>
	<path fill="#F9F9FA" d="M156.6,67.1c0-0.4-0.1-0.8-0.2-1.2c-0.1-2.2-1.5-4.3-4.3-4.3c-2.8,0-4.2,2.1-4.3,4.2
		c-0.1,0.4-0.2,0.8-0.2,1.3c0,6,0.5,11.9,0.8,17.9c-4.9-5.6-9.8-11.4-15.7-16.1c-3.4-2.7-8.5-0.3-7.5,4.4c1.8,8,1.8,16.2,1.8,24.3
		c0,5.8,8.9,5.8,8.9,0c0-4.5-0.1-9-0.4-13.5c4.8,5.2,9.2,10.7,14.3,15.7c2.8,2.8,7.5,0.7,7.6-3.2C157.8,86.8,156.7,77,156.6,67.1z"
		/>
	<path fill="#F9F9FA" d="M167.7,60.7c-1.1,0-2.1,0.1-3,0.4c-2.6,1.1-2.1,4.4-1.9,6.6c0.2,2.2,0.2,4.4,0.3,6.6c0,1.2,0,2.4,0,3.6
		c0,4.2-0.1,8.4-0.1,12.6c0,1.8,0.2,3.8,1.5,5.1c3.3,3.3,8.1,1.7,12,0.5c2.7-0.8,5.2-2.1,7.4-3.8c1.9-1.5,3.6-3.3,4.5-5.6
		c0.7-1.9,1.1-4.1,1.1-6.1c0-3.9-1.3-7.8-3.7-10.9c-2.4-3.1-5.4-5.8-9-7.2c-2.2-0.8-4.6-1.4-7-1.7C169.1,60.7,168.4,60.7,167.7,60.7
		z M171.9,88.3c0.1-6,0.3-12.1,0-18.1c5,1.6,8.6,5.9,8.7,11.6C180.6,85.8,175.8,87.5,171.9,88.3z"/>
	<path fill="#F9F9FA" d="M75.1,23.7c0,0,0-0.1,0-0.1c0-0.9-0.1-1.8-0.6-2.6c-0.4-0.6-1.3-1.7-2-2c-2-0.8-4.8-0.3-5.8,1.8
		c-1.1,2.3-0.3,20.9-0.1,21.3c-4.5-6.9-8.9-13.9-15.4-19.2c-3-2.5-7.4-0.9-7.6,3.2c-0.4,7.8,0.6,27.4,0.9,29.6
		c0.3,1.7,1,3.4,2.5,4.5c2.9,2.1,6.1,0,6.8-3.2c0.2-1,0.2-2.1,0.2-3.2c-0.1-1-0.8-15.3-1.1-16.1c2.2,2.4,3.9,5.4,5.6,8.1
		c1.8,2.8,3.6,5.6,5.6,8.3c1.1,1.5,2.2,3,3.3,4.4c2.8,3.4,7.2,0.2,7.6-3.2c0.6-5.4,0.6-10.8,0.4-16.2C75.5,33.9,75.3,28.8,75.1,23.7
		z"/>
	<path fill="#F9F9FA" d="M108.9,19.8c-3.1-1.6-6.5-2.3-9.9-1.9C96,18.1,92.7,19,90.4,21c-1.9,1.7-3.2,4.1-4,6.6
		c-0.5,1.4-0.8,3-0.9,4.5c-0.4,3.3-0.8,6.5-0.5,9.8c0.4,4.2,1.6,8.3,4.1,11.6c1.4,1.8,3.2,3.7,5,5c3.8,2.5,9.4,2.7,13.4,0.5
		c4.9-2.7,7.4-7.3,8.8-12.6C118.7,36.9,118.7,24.8,108.9,19.8z M107.6,44c-0.8,2.6-2.2,6.5-5.1,7.4c-0.8,0.2-2.2,0-2.9-0.3
		c-1-0.3-1.8-0.9-2.5-1.6c-1.4-1.5-2.4-3.4-2.9-5.4c-0.3-1.1-0.4-2.3-0.5-3.5c-0.1-1.8,0-3.6,0.4-5.4c0.4-1.7,0.6-3.4,1.1-5
		c0.2-0.8,0.5-1.6,1.1-2.2c0.5-0.5,1.5-1.3,2.2-1.4c1.9-0.2,4.4,0,6.1,0.9c1.2,0.6,2.2,1.5,2.9,2.6c0.7,1.1,0.8,2.4,1,3.7
		c0.2,1.1,0.2,2.3,0.2,3.4C108.7,39.5,108.3,41.8,107.6,44C107.7,43.9,107.6,44,107.6,44z"/>
	<path fill="#F9F9FA" d="M158.8,19.6c-0.8,0-1.7,0-2.5,0c-2.2,0.1-4.4,0.2-6.6,0.3c-4.4,0.3-8.9,0.6-13.3,0.4
		c-2.4-0.1-4.9-0.4-7.3-0.9c-5.6-1.2-8,7.4-2.4,8.6c4.2,0.9,8.4,1.2,12.7,1.2c2.3,7,0.4,14.5-0.1,21.7c-0.1,0.8,0.1,1.5,0.4,2
		c0.5,1.7,1.8,3.1,4.1,3.1c2.7,0,4.1-2,4.3-4.1c0.1-0.3,2.3-15.8,0.5-23c0,0.1,5.8-0.3,6.3-0.3c2.8-0.1,7.3,0.5,8-3.3
		c0.3-1.6,0-4-1.4-4.9C160.7,19.8,159.7,19.7,158.8,19.6z"/>
	<path fill="#EEEEEE" d="M118.1,70.6c-0.8-1.7-1.9-3.4-3.3-4.6c-0.9-0.7-2.2-1.5-3.4-0.9c-1.2,0.6-1.5,2.2-1.7,3.4
		c-0.2,1.8,0,3.7,0.2,5.6c0.2,2.1,0,4.1-0.3,6.1c-0.2,2-0.5,4-0.9,6c-0.2,1.1-0.5,2.2-0.9,3.3c-0.3,0.9-0.7,1.8-1.2,2.6
		c1,0.4,2,1.4,2.9,2.1c0.9,0.6,1.7,1.3,2.6,1.9c0.2,0.2,0.5,0.4,0.7,0.5c0.3,0.2,0.7,0.5,1,0.7c0,0,0,0,0.1,0
		c1.7-4.4,3.7-8.9,4.8-13.5C119.8,79.3,119.9,74.7,118.1,70.6z"/>
	<path fill="#EEEEEE" d="M93.5,85.8c-0.5-1.5-0.9-3.1-1-4.7c-0.3-2.7-0.3-5.5,0.5-8.1c0.7-2.2,1.8-5,0.1-7c-1.1-1.2-3.2-2.5-4.9-1.8
		c-0.8,0.3-1.9,1.4-2.2,2.2c-3.3,7.9-3.5,18.9,0.8,26.5c1.9-1.4,8.9-2.5,9.4-2.6C96,90.2,94,87,93.5,85.8z"/>
	<path fill="#EEEEEE" d="M200.1,7c-0.2-1.6-1.2-3.1-2.7-3.8c-1.8-0.8-4-0.6-6-0.4C188.9,3,7,1.8,6.2,1.9C3.6,2,1.8,2.9,1.3,5.6
		C0.8,8.5,3.6,104,3.5,107.7c-0.1,3.9-0.7,9.5,3.1,11.9c2.9,1.9,18.7,1.2,22.9,1.3c5.4,0.2,22.2,0.6,25.2,0.6
		c3.4-0.1,6.8-0.1,10.2-0.3c0,0,0,0,0,0c0.6,0,1.1-0.2,1.7-0.4c0.1,0.1,0.2,0.3,0.3,0.3c-0.7-2.9-0.8-6.1-0.6-9
		c-0.2,0.3-53.5-0.5-53.9-0.4C12.4,78.2,10.4,44.6,10.2,11c30.4,0,122.4-0.6,138-0.1c14.3,0.4,28.5,1.6,42.8,1.3
		c-0.8,33.3,2.8,66.4,3.1,99.6c0,0-48.8,0.4-52.6,0.3c-1.1,0-5.6-0.2-7,0.3c-0.4,0.2,0.1,0.4,0.2,0.7c1.6,3.6,2.1,5.4,2.9,7.3
		c0.3,0.8,55.7,0.6,58.8,0.3c2.3-0.2,4.7-0.9,5.9-3.1C203.7,114.8,200.2,7.3,200.1,7z"/>
</g>
<g>
	<path fill="#222222" d="M166.8,187.4c4.6-4.2,4.9-10.3,3.2-16c-2.2-7.2-7.7-14.4-13.3-19.3c-3.2-2.8-6.3-5.9-9.6-8.6
		c-2.9-2.3-6.3-3.6-9.4-5.3c-0.8-0.4-8.4-5.4-7.1-6.4c2-1.4,4.1-2.8,5.4-4.9c1.6-2.5,1.8-5.6,1.2-8.5c-0.2-0.8-0.4-1.7-0.7-2.5
		c-0.6-1.7-1.6-3-3-4.2c-0.8-0.7-1.7-1.4-2.7-1.9c-2.3-1-4.9-1-7.3-0.5c-1.8,0.4-3.3,1.1-5,1.8c-1.4,0.5-2.6,0.3-2.9-1.3
		c-0.4-2.6,0.2-5.3,0.2-7.8c0-2.7-1.1-4.9-3.1-6.8c-1.9-1.8-3.9-3.6-6.3-4.7c-4.5-2-10.2-1.3-14.9-0.3c-1.4,0.3-2.7,0.8-4,1.4
		c-0.9,0.4-1.7,1-2.3,1.7c-1.8,2-3.2,5.1-3,7.9c0.1,0.7,0.2,1.5,0.5,2.1c0.3,0.8,0.6,1.7,1.4,2.2c1.6,1,2.4-0.2,3.1-1.5
		c0.8-1.3,2.1-0.9,3.2-0.2c0.9,0.5,2.6,1.8,2.4,3.1c-0.1,0.8-0.7,1.8-1.2,2.4c-2.1,2.2-5.9,1.8-7.8-0.5c-3.1-3.6-7.8-4.8-12.2-2.8
		c-3.3,1.5-5.1,4.5-5.5,8.1c-0.1,1-0.1,2-0.1,3c0.1,2.6,0.7,5.6,3.2,6.8c1.5,0.8,3.6,1.2,4.7,2.6c0.6,0.8,0,1.5-0.7,1.9
		c-1.8,1-4,1.4-5.9,2.2c-3.2,1.4-4.9,4.5-5,7.9c0,0.6,0,0.7-0.6,0.9c-4.1,1.3-8.2,2.9-12.1,4.8c-4.3,2-8.4,4.4-12.3,7.1
		c-4.1,2.8-8.1,5.8-11.6,9.3c-2.9,2.9-5.5,6.4-6,10.5c-0.5,4,1,7.8,2.7,11.3c0.2,0.4,0.4,1,0.7,1.4c6.2,7.7,14.3,13.7,21.8,20
		c0.9,0.7,1.7,1.3,2.6,1.6c-3.2,2.5-5.5,6.7-5.2,10.2c0.3,4.3,5.4,6.8,8.7,8.3c5.5,2.5,7.2,1.3,11.8-2.1c1.6-1.2,2.8-2.4,3.8-3.6
		c1.9,10.5,3.2,21.1,4.7,31.6c2.1,14.4,4.5,28.7,7.2,43c-11.3-3-28.5-1.6-32.8,10.4c-1.1,3-0.8,7.5,0.7,10.3
		c2.3,4.2,6.8,5.6,11.3,6.4c4.8,0.9,10.1,0.6,14.7-1.2c2.1-0.8,3.8-2.4,5.4-3.9c1.4-1.3,2.6-2.3,4.4-3c1.4-0.5,1.5,3.3,1.5,3.9
		c0.1,1,0.7,2.2,1.8,2.4c3.5,0.7,9,1.8,12.3-0.1c0.1-0.1,0.3-0.2,0.4-0.3c0.4,0.6,1,1,1.9,1c3.5,0.1,8.3,1.4,11.6-0.5
		c1.6-0.9,2.1-2.6,2-4.4c-0.2-3.3,5.3,2.1,6.5,3c6.4,4.8,18.3,2.8,25.1,0.2c8-3,11.2-10.1,7-17.8c-1-1.8-2.8-3.6-4.4-4.7
		c-1.8-1.3-3.9-1.9-6-2.2c-4.5-0.6-9.3-0.2-13.7,0.7c-1.3,0.3-6.5,1.9-7.8,2.2c0-0.8-0.3-4.2-0.2-5.2c0.1-1.2,2.4-21,3.2-25.9
		c0.7-4.9,1.6-9.9,2.4-14.8c0.9-4.9,4.4-24.6,5.2-29.5c0-0.2,0.4-1.6,0.3-1.7c0.2,0.2,6,5.8,9.6,6.3c5.9,0.7,13-7.8,13.2-13.2
		c0.1-3.3-2.3-7-5.4-9c0.9-0.4,1.8-0.9,2.7-1.4C156.8,197,162,191.8,166.8,187.4z M67.9,136.5c1.3-2.9,7.6-2.7,10-4.9
		c2-1.9,2.3-4.1,1.6-6.7c-1.3-4.4-8.3-3.6-8.7-8c-0.2-2.4,0.2-4.9,2.4-6.3c3.2-2.1,6,0,8,2.4c2.5,2.9,6.2,3.1,9.7,2
		c5.6-1.7,10.6-10.4,4-14.3c-2.2-1.3-4.8-1.8-7.2-1.4c1.5-5.6,8.3-6.2,13.2-5.6c3.7,0.5,8.6,2,10,5.8c1.3,3.5-0.2,7.3,0,10.9
		c0.1,1.1,0.3,2.1,0.7,3.1c1.4,3.2,5.8,2.6,8.4,1.9c2.8-0.8,5.4-1.9,8.4-1.4c3.1,0.5,4.6,4.1,4.5,7c0,0.8-0.3,1.8-0.7,2.5
		c-1.3,2-3.7,3.3-5.3,5.1c-1.4,1.5-2.4,3.4-1.4,5.5c1.8,3.7,7.1,5.2,7.8,9.5c0.8,4.9-3.4,11.1-8.7,10.6c-2.6-0.2-4.9-1.8-7.4-2.7
		c-2.6-0.9-5.6-1.3-8.2-0.1c-2.3,1-3.4,3.1-4,5.4c-0.5,2-0.8,4.7-2.5,6c-1.4,1.2-3.5,0.5-4.8-0.6c-1.9-1.6-2-4.4-3.8-6.1
		c-1.5-1.4-3-2.5-5.2-2.5c-1.9,0-3.5,1-4.9,2.1c-0.8,0.6-3,4.1-4.3,0.6c-0.4-1.2,0.8-3.4,1.3-4.4c1.3-2.9,3.4-6.4,2.1-9.7
		c-1.2-3.2-4.8-2.5-7.3-1.5c-1.5,0.6-2.9,1.4-4.5,1.9C67.7,143.9,67,138.5,67.9,136.5z M54.1,221.9c-4.6-1.4-10.7-4.9-7.7-10.4
		c1.2-2.1,3-3.8,5.1-5.1c2.6-1.5,5.5,0.6,4.9,3.4c-0.4,1.8-1.8,2.2-2.5,0.5c-0.8-1.8-3.3-0.2-2.6,1.5c3.5,8,11.7-2.5,7-6.9
		c-0.7-0.7-1.5-1.1-2.2-1.4c1.7-1.5,3.2-3.6,4.5-5.7c0.3-0.5,0.5-1,0.8-1.5c-0.2,0.4,0.4,2,0.6,2.5c0.2,0.8,0.4,1.6,0.6,2.4
		c0.7,2.2,1.3,4.3,1.9,6.5c0.3,1,0.5,2,0.8,3c0.3,1,0.6,2.1,0.2,3.1c-1.4,3.4-4.4,7.5-8.2,8.1C56.2,222.2,55,222.2,54.1,221.9z
		 M54.9,181.9c-1.7-1.1-4.6-2.2-2.1-4.8c3.6-3.9,6,7.1,6.3,8.2C57.9,184,56.4,182.9,54.9,181.9z M95.3,313.4
		c-1.9,0.7-4.6,0.3-6.9-0.1c-1-5.6-4.5-8.4-10.7-5.2c-1.7,0.9-3.1,2.5-4.4,3.8c-2.3,2.2-5.1,2.8-8.2,3.1c-4.3,0.5-12.9,0.1-14.6-4.8
		c-4.9-14.5,18.4-14.9,28.1-12.3c0,0,0,0,0,0c-0.1,0.5,0,1.1,0.4,1.7c3.3,4.8,10.6,7.2,16.3,5.6C95.3,307.9,95.1,313.5,95.3,313.4z
		 M120.5,300.2c8.4-3,25.1-7.7,28.7,4.1c2.3,7.5-10.3,9.4-15.1,9.8c-3,0.2-6,0.2-8.9-0.6c-4.4-1.2-6.3-6.5-11.3-6.5
		c-3.2,0-5.5,2.6-5.4,5.6c-0.1,0.5,0.1,0.9,0.5,1.1c-1,0.4-2.4,0.2-3.4,0.2c-1.9,0-3.7-0.3-5.6-0.4c0.5-2.9,0.4-6.5,0.3-8.7
		c6,2.5,14,0.7,17.8-4.4C118.5,300.5,120.1,300.4,120.5,300.2z M114.8,294.3c0,0.7-0.1,1.5-0.1,2.2c0,0.2,0,0.3,0,0.4
		c-2.3,4.4-10.3,4.7-14.1,2.2c1.7-10.1,1-52.8,1-63.7c0,0,2.2-0.4,2.4-0.4c2.4-0.7,6.9-3,6.2-6.2c-0.2-0.9-0.9-1.8-1.9-1.9
		c-1.1-0.1-5.4,3.4-7.1,3.6c-1.6,0.2-7-2-7.9-2.8c-2.4-2.1-5.9,1.4-3.5,3.5c2,1.7,4.4,3,6.9,3.7c0,10.4,0.1,57.7-0.9,63.5
		c-0.1,0.3-0.1,0.7,0,0.9c0,0.1,0,0.1,0,0.2c-3.3,2.2-9.3,0.9-11.9-2c0.5-0.7,0.6-1.6,0.3-2.4c0,0,0,0,0,0
		c-2.9-15.6-11.4-74.2-14.4-87.6c7.4,5.8,17.6,7.8,26.9,7.9c10.6,0.2,23.3-2.2,31.6-9.5C128.1,207,115.2,288.4,114.8,294.3z
		 M150.3,207.8c2.3,3.5-1,7.7-3.4,10.2c-1.3,1.3-2.9,2.3-4.6,2.9c-2.3,0.8-4.2-1.3-5.7-2.6c-1.8-1.6-3.5-2.8-4.6-4.5
		c0.7-4.4,1.4-8.7,2-13.1c1.5,1.3,3.1,2.1,4.9,2.5c-1.5,1.9-2.6,4.6-1.3,6.8c1.5,2.5,4.7,0.7,6.6-0.2c1.7-0.8,0.2-3.4-1.5-2.6
		c-1.4,0.7-5.4,2.8-1.4-2.4C144.2,201.1,148.7,205.5,150.3,207.8z M132.5,186.5c0.3-2.2,0.7-4.4,1.3-6.6c1-3.8,2.8-6.8,7.1-5.7
		c2.3,0.6-6,9.3-6.8,10.2C133.5,185.1,133,185.8,132.5,186.5z M146.3,197.7c-5.2,2.8-14-1-10.1-7.8c2.8-4.8,10.5-8.9,10.5-15.2
		c0-4.5-6.1-6.6-9.8-5.6c-11.4,3.2-9.6,22.5-10.6,31.9c-7.2,7.6-19.9,9.5-29.7,9.6c-8.1,0-17.3-1.5-23.9-6.8
		c-2.3-1.8-3.9-4.2-5.7-6.5c-1.3-1.6-1.1-3.7-1.3-5.6c-0.3-2.1-0.7-4.1-1.1-6.1c-0.9-4-2.1-8-4.3-11.5c-3.6-5.6-10.3-2.1-13.1,2.1
		c-3.5,5.3,4.1,8.8,7.2,11.3c5.5,4.4,1.4,8.9-2.2,12.8c-2.5,2.7-12-7-14-8.7c-5-4.3-13.4-10.1-13.3-17.5c0.1-5.4,5.1-10.2,8.8-13.5
		c8.2-7.4,19.3-13.4,29.9-16.5c0.2,0,0.3,0,0.5,0c0.9,1.4,2.1,2.5,3.6,3.1c3.8,1.5,6.6-0.4,10.1-1.8c0.2-0.1,0.4-0.1,0.5-0.2
		c-0.2,0.9-0.6,1.9-0.9,2.6c-0.8,1.8-1.6,3.4-2.3,5.3c-1.3,3.6-0.2,7,3.2,8.8c3.7,1.9,6.5,0.2,9.1-2.4c2.6-2.6,5.3,4.8,6.2,5.8
		c1.8,1.9,4.2,3.1,6.7,3.8c4.1,1.2,7.1-2.6,8.2-5.9c0.8-2.3,0.7-5,2.3-6.9c1.9-2.2,7.3,1.2,9.2,2c9.4,3.6,18.3-4.3,18.3-14
		c1.5,0.8,3,1.5,4.4,2.4c3.4,2,6.2,5.5,9.2,8c6.2,5.3,13.3,13.6,14.1,22c0.6,6.8-6.8,10.4-11.1,14.4
		C152.2,193.5,149.6,195.9,146.3,197.7z"/>
</g>
</svg>
