<?xml version="1.0" encoding="utf-8"?>
<!-- Generator: Adobe Illustrator 17.1.0, SVG Export Plug-In . SVG Version: 6.00 Build 0)  -->
<!DOCTYPE svg PUBLIC "-//W3C//DTD SVG 1.1//EN" "http://www.w3.org/Graphics/SVG/1.1/DTD/svg11.dtd">
<svg version="1.1" id="Слой_1" xmlns="http://www.w3.org/2000/svg" xmlns:xlink="http://www.w3.org/1999/xlink" x="0px" y="0px"
	 viewBox="0 0 303.3 314.6" enable-background="new 0 0 303.3 314.6" xml:space="preserve">
<g id="Слой_10">
	<path fill="#888888" d="M198.8,31.5c6.4,5.3,9.3,12.7,3.2,18.9c-5-5-6.9-10.9-3.7-17.4"/>
	<path fill="#888888" d="M216.3,29.5c5.5,5.1,7.4,11.1,3.5,17.5c-7.9-3.4-9.2-9.8-4-16.7"/>
	<path fill="#888888" d="M224.3,30.5c3,5.2,5.6,10,9.4,14.7c-4.7-1.3-9.4,0.7-14.2,1.5"/>
</g>
<g id="Слой_11">
	<path fill="#B2B1B2" d="M203.3,52c-1.8-4-5.5-7.6-7.7-11.1c-2.9,3.8-5.9,9.9-7,14.3c5-1.8,11-2,15-3"/>
</g>
<g id="Слой_12">
	<path fill="#B2B1B2" d="M209.1,34.8c4.1,4.7,7,9,10.5,14.2c-7.1-0.4-9.7-0.3-16.4,1c1.4-5.2,3.2-10.8,5.9-15.5"/>
</g>
<g id="Слой_14">
	<path fill="#C8C8C8" d="M24.3,190.8c-2.2,9.1-10.6,13.3-17.9,18.3c9.4,1.5,19.1,4.3,27.8,7.5c-3-8.4-4.2-21-10.7-26"/>
</g>
<g id="Слой_13">
	<path fill="#B2B1B2" d="M25.6,193.8c-1.9,2.9-2.7,7.9-3.9,11.3c3.2,3.7,7.7,8.1,12.1,10.7c-1.8-7.4-4.5-14.6-7.5-21.5"/>
</g>
<g id="Слой_15">
	<path fill="#474647" d="M199,92.2c-6.8,14.6,1.4,30,5.7,43.9c0.1,0,0.9,0.3,0.9,0.4c2.6-1.3,8.6-6.4,10.6-8.9
		c-4.7-11.4-6.8-23.9-5.9-36c-4.8-0.9-8.2,0.4-12.3,2.2"/>
</g>
<g id="Слой_16">
	<path fill="#191919" d="M210.3,64.5c-0.2,7.8,2.3,16.4,4.3,23.7c8.9,0,18.1,0,27.2-0.1c-2.7-9.7-4.1-21-4.5-31.3
		c-9.3,2.4-18.5,6.4-27.6,9"/>
	<path fill="#191919" d="M256,192.5c4.7,24,14.2,48.9-19.9,54.6c-7.3-16.8,12.2-41.2,18.6-56.9c0.8,1.1,1.4,4.4,2.3,6"/>
</g>
<g id="Слой_17">
	<path fill="#272727" d="M214.7,63.5c1.3,8.3,2.2,16.9,4.9,24.3c-9.6,1-19.8,2.3-28.6,4.5c-0.1-3.9-2-8.2-1.8-12
		c10.4-3.5,7.7-8-1.6-14.3c8.7,0.6,18.4-0.2,26.2-2.1"/>
	<path fill="#272727" d="M236.3,232.5c2.1,3.5,2.9,9.5,4.3,13.3c-4,1.1-10.1,2.2-14.2,1.7c5.7-3.6,6-9.7,9.3-13.9"/>
	<path fill="#272727" d="M225,160.8c3.4-1.1,7.4-1.5,10.9-2c3.6,8.3,10,15.7,18.1,20.3c-0.7,3.6-1.8,6.8-3.4,10
		c-12.8-3.9-22.1-15-26.3-26.9"/>
</g>
<g id="Слой_18">
	<path fill="#272727" d="M44.7,132.2c-13.4,18.1-16.5,45.8-8.3,66.6c2.6-0.3,10.4-2.8,12.4-3.9c-8.1-14.8-7.6-44.5-3.5-61.7"/>
	<path fill="#272727" d="M63.3,236.8c9.9,12.8,28.5,21.3,36.1,32.9C82.7,266.2,64.8,253,54,239.9c3.8-1,5.3-3.6,8.3-5.1"/>
</g>
<g id="Слой_19">
	<path fill="#474647" d="M44.3,134.5c-6.3,20.3-10.6,43-4.7,64.3c-2.8,0.9-6.8,1.6-9.9,1.7c-0.1-0.3-0.9-0.7-1.1-0.8
		c-1.6-24.1-1.5-45.3,13-63.5"/>
	<path fill="#474647" d="M57.3,239.5c10,13.6,25.6,20.2,38.5,31c-15.4-7.9-36.1-10.7-43.5-27.6c2.2-1.3,4.7-2.1,6.7-3.3"/>
</g>
<g id="Слой_20">
	<path fill="#C2C2C1" d="M50,197.8c-8.3,15.8,6.9,19.1,12.7,31.1c19.4-13.1,4.3-33.3-12.7-31.7"/>
</g>
<g id="Слой_21">
	<path fill="#D6D6D6" d="M46.8,196.8c-2.4-0.1-11.5,3.1-15.8,3.1c-0.5,5.8,1.4,15.4,4.1,20.5c3.4-0.1,7,0.4,10.4,0.5
		c0.1,0.1,0.3,0.2,0.4,0.3c0.9,7.7,6.7,13.7,9.1,21c8.1-4.2,9-6.9,10.4-14.6c-0.8-0.7-3.5,0.8-4.2-0.3c-5.9-9.9-17.3-14.9-14.1-29.4
		"/>
</g>
<g id="Слой_22">
	<path fill="#E7E7E7" d="M38,220.8c4-0.6,7.4,1.4,11.3,0c1.9,4.7,4.1,15.5,4.7,20.9c-4.9,0.3-8.4-0.4-12.8-2.4
		c-2.4-6.7-3.9-14.3-2.8-18.9"/>
</g>
<g id="Слой_26">
	<path fill="#8F8F8F" d="M223,127.2c20.4-1.5,50-5.7,59.1,17.1c-19.6,13.5-51.1,19.6-75.3,18.2c-18.5-12.6-1.4-29.4,14.6-34.3"/>
</g>
<g id="Слой_27">
	<path fill="#737474" d="M216,131.2c18.6-3.8,57.3-5.8,65.6,14c13.6-9.4,23.4-26.1,6.1-37.6c-18-12-60.7,9.9-72.7,22.3"/>
</g>
<g id="Слой_28">
	<path fill="#606161" d="M214.7,89.8c-4.6,12.9-4.5,29,3.8,38.7c14.9-12.2,75.9-35,76.9,0.9c20-42-57.5-41.6-80-38.6"/>
	<path fill="#606161" d="M236.3,159.8c4.1,7.6,11.1,14.2,18.9,18c2.2-5.6,3.7-15.1,3.6-21.1c-7.7,2-15.4,1.6-23.2,3.1"/>
	<path fill="#606161" d="M234,180.5c8.2,10.7,8.7,24.6,8.7,37.7c4-8.8,8.6-18.4,11.3-27.3c-5.9-1.9-12.5-6.7-18.3-7.7"/>
</g>
<g id="Слой_29">
	<path fill="#737474" d="M148,128.2c-14.4,36.6-7.3,157.2,59.4,132.7c12.6-4.6,31.2-32.3,34.6-45.7c5.7-22.5-6.8-37.8-20.6-53.3
		c-4.9,1.9-10.6,0.1-15.5,2.5c-1.7-2.1-6.6-11-7.6-14.1c12.3-10.8,2-45.1-6-56.9c-3.4,22.8-25.5,29.8-45.3,35.1"/>
</g>
<g id="Слой_30">
	<path fill="#8F8F8F" d="M155.8,132.2C155.7,132.2,155.7,132.2,155.8,132.2c-0.1-0.3-0.2-0.5-0.2-0.6c-8-5.2-16.1-10.7-22.4-17.9
		c-21.5,7.9-37.3,33.3-52.3,50c-9.5,10.6-29.9,27.9-16.2,38.9c10.7,8.6,47.2-10.4,55.6-19.4c-0.4,11,3.9,21.1,7,31.6
		c6.5,21.6,12.5,42.8,35.8,52.4c16.6,6.8,47.3,3.7,54.6-15.5C151.8,281,146.1,173.7,155.8,132.2z"/>
</g>
<g id="Слой_23">
	<path fill="#C2C2C1" d="M197.3,150.5c-5.8,11.7-15.6,22.1-15.6,35.9c17.7-2.2,30-22.8,15.3-35.6"/>
</g>
<g id="Слой_24">
	<path fill="#D6D6D6" d="M193.3,149.5c-16.4,3-28.8,26-11.7,36.1c1.9-12.4,12.9-20.8,25-22.4c-4-6.3-9.3-11.1-14.6-13.8"/>
</g>
<g id="Слой_25">
	<path fill="#E7E7E7" d="M196.1,149.8c-28.2-3.1-41.5,8.6-39,19.9c0.1,0,0.1,0,0.2,0c2.3,0.2,4.7,1,5.7,3.3c0.7,1.7,0.8,3.7,1.6,5.3
		c0.3,0.6,0.2,1.2,0,1.7c4.1,3,9.7,5.4,17,6.8C171.9,173.5,180.5,154.5,196.1,149.8z"/>
</g>
<g id="Слой_32">
	<path fill="#D6D6D6" d="M119.7,80.8c5.6,20.8,42.7,59.7,64.3,33.5c14.1-17-11-54-25.6-64.2c-25.9-18-47.4,5.3-38.9,32.4"/>
</g>
<g id="Слой_31">
	<path fill="#C2C2C1" d="M132,53.2c32.8-0.9,43.9,35.5,54.4,60c2.9-9.3,4.7-20.5,3.6-30.7c26.1-18.6-72.5-79.8-62.3-34"/>
</g>
<g id="Слой_33">
	<path fill="#E7E7E7" d="M124,75.8c7.4,22.7,34.1,46.8,59.8,39.6c-26.6,41.3-57.4-10.8-74.6-29.2c10.6,0.2,10.8-5.8,15.1-9.8"/>
</g>
<g id="Слой_34">
	<path fill="#848484" d="M164.3,22.2c-5.3,2.9-10.3,8.9-14,13.4c12.7,10.9,20.3,33.2,40.4,32.7c-12.3-22.7,30.3-55.7-26.1-45.1"/>
</g>
<g id="Слой_35">
	<path fill="#969696" d="M116,10.3c-17.1,13.6-1.8,42-21.3,52.4c23.9,21.7,27.2,0.9,38-11.7c-0.2-0.4-0.3-0.8-0.2-1.4
		c1.2-5.2,4.7-9.8,9.4-12c0.1-0.1,0.2-0.1,0.4-0.2c0.1,0,0.2-0.1,0.3-0.1c0.2-0.1,0.5-0.2,0.7-0.3c2-0.7,4.2-1,6.4-0.8
		c0.6,0.1,1,0.3,1.3,0.7c5.9-3.8,11.8-7.8,16.4-13.3C151.1,14.3,136.3-5.9,116,10.3z"/>
</g>
<g id="Слой_36">
	<path fill="#ABABAB" d="M98,57.8c9.4,4.2,20.8,4.5,31,1.3c-10.7,62.1-67.2,5-45.7-11.9c0.9,10.6,7.2,14.5,17.7,12.6"/>
</g>
<g id="Слой_37">
	<path fill="#353535" d="M160.8,188c-9,0-9,14,0,14S169.9,188,160.8,188z"/>
</g>
<g id="Слой_3">
	<path fill="#262626" d="M134.3,93.8c-0.5-1.4-1.5-2.5-2.3-3.8c-0.3-0.4-0.7-0.7-1.1-0.9c0.5-0.6,0.8-1.4,1.1-2.3
		c0.2-0.7,0-1.3-0.4-1.8c-2,3.6-5.7,5.5-9.7,5.8c0.3,0.4,0.6,0.7,1.1,0.8c1.2,0.2,2.5,0.2,3.6,0c0,0.3,0,0.5,0,0.8
		c0.5,2.9,1,5.4,3.4,7.4c1.4,1.1,3.7,0.9,4.2-1.1C134.7,97.1,134.8,95.4,134.3,93.8z"/>
	<path fill="#262626" d="M152,80c-0.3-0.7-1-1.1-1.8-1.2c-0.1-0.1-0.2-0.1-0.3-0.2c0.2-0.3,0.4-0.6,0.6-1c1.3-2.6,1.4-5.6,2.5-8.3
		c0.2-0.4,0.2-0.9,0-1.3c-2.9,0.7-3.5,5.6-4.6,7.9c-1.5,3.1-4,4.9-7.4,3.9c0.2,0.6,0.8,1.2,1.7,1.3c1.2,0.2,2.4,0.2,3.5,0
		c0,0.1,0,0.2,0.1,0.3c0.7,2.7,1.1,5.5,3.4,7.4c1.4,1.1,3.7,0.9,4.2-1.1c0.4-1.4,0.4-2.8,0-4.1C153.3,82.3,152.5,81.2,152,80z"/>
	<path fill="#262626" d="M154,102.5c-1.5,1.8-3.3,2.6-5.5,2.6c-0.3-4.6-2.5-8.6-5.9-11.6c-0.5-0.5-1.1-0.5-1.6-0.3
		c1.5,2.5,3.6,4.6,4.3,7.5c0.5,2.1,0.7,4.3,0.4,6.5c0.2,0.4,0.6,0.7,1.1,0.8c0.1,0,0.2,0.1,0.3,0.1c3.5,0.5,6.8-0.7,9.1-3.4
		C157.4,103.1,155.3,101,154,102.5z"/>
	<path fill="#262626" d="M169.8,87.3c-0.6-0.9-1.5-1.1-2.3-0.8c4.8,9,3.2,24.5-8.1,27.1c0.4,0.5,1.1,0.8,1.9,0.6
		C174.6,111.8,176.2,97.2,169.8,87.3z"/>
	<path fill="#353535" d="M166.7,211c-8.4,0-8.4,13,0,13C175.1,224,175.1,211,166.7,211z"/>
	<path fill="#FFFFFF" d="M300.8,113.1c-5.5-18.1-27.5-24.4-44-26.7c-3-0.4-6-0.7-9-1c-1.1-9.7-2.6-19.3-3.6-28.9
		c-0.1-1.2-0.6-2.1-1.3-2.8c-0.4-0.7-1-1.2-1.8-1.4c-0.7-0.5-1.6-0.6-2.7-0.2c-2.8,1.1-5.6,2.1-8.4,3c-1.2-3.2-2.1-6.5-2.5-10
		c2.3,0.7,4.7,1.2,7.1,1.5c1,0.1,1.5-0.6,1.4-1.4c0.2-0.5,0.1-1-0.4-1.5c-5.6-5.5-8.9-12.3-10.3-20c-0.3-1.6-2.4-1.3-2.8,0
		c-0.1,0.2-0.1,0.4-0.1,0.7c0.4,3.7,0.2,7.3-0.4,10.8c-2.1-2.6-3.9-5.4-5-8.6c-0.5-1.4-2.5-1.2-2.9-0.2c-0.2,0.2-0.4,0.5-0.4,0.9
		c-0.3,3.1-0.9,6.2-1.7,9.2c-1.1-2.4-1.9-4.9-2.4-7.6c-0.1-0.6-0.4-0.9-0.8-1c-0.9-0.7-2.5-0.4-2.4,1.1c0.2,3.2,0,6.2-0.5,9.2
		c-2.4-2.4-3.9-5.2-4.5-8.6c-0.1-0.8-0.7-1.1-1.3-1.1c-1.5-5.9-7.6-9.5-14-9.8c-8.8-0.4-16.7,4-25-0.5c-6.6-3.5-11.5-9.5-17.7-13.6
		c-6.6-4.3-14.1-5-21.4-2.2c-9.5,3.7-15.3,11.2-17.5,21c-2.3,9.8-0.5,21.1-5.9,30c-4.7,7.8-14.6,1.5-8.6-6c0.5-0.7,0.7-1.4,0.7-2
		c0.7-1.9-0.9-4.6-3.6-4.2c-13.6,2.1-13.9,16.6-9.7,26.9c4.7,11.6,15.1,23.6,28.4,24.2c1.5,0.1,2.9,0,4.3-0.3c0,0,0,0.1,0.1,0.1
		c5.9,6.4,10.5,13.9,15.9,20.8c-0.1,0.1-0.3,0.2-0.4,0.3c-2.7,2.2-5.3,4.4-7.9,6.7C98.7,103,79.3,86.4,58.2,71.9
		c-0.1-0.1-0.2-0.1-0.3-0.2c-5.2-6-13.2-7.3-21-3.1c-3.4,1.8-0.4,7,3,5.2c10.7-5.8,16.5,4.4,18.4,13.8c2.4,11.9-3.7,22.6-10,32.2
		c-0.3,0.3-0.5,0.6-0.7,1c-0.2,0.3-0.4,0.6-0.5,0.8c-8.2,12.3-16.7,23.6-20.1,38.3c-1,4.2-1.5,8.5-1.8,12.8c-0.2,3.3,0.1,6.7-0.4,10
		c-0.2,1.7-0.8,3.2-1.3,4.7c-0.4,1.4-0.8,2.9-1.4,4.3c-1.5,3-3.9,5.4-6.5,7.4c-3.9,3-8.3,5.1-12.9,6.9c-2.5,1-1.9,4.7,0.1,5
		c0.3,0.1,0.5,0.2,0.9,0.3c9.7,1.2,21.1,3.2,29.4,8.7c0.3,0.2,0.6,0.3,1,0.4c0.1,0,0.2,0.1,0.3,0.1c0,0,0,0,0,0
		c-2.1,5.9,0.8,9.7,5.2,11.6c-4.3,6.4,2.9,11.6,9.9,12c0.1,0.2,0.2,0.4,0.3,0.6c9.9,13.1,25.6,18.5,39.6,25.9
		c8.7,4.6,14.6,9.8,16.8,19.7c0.9,3.9,1.2,7.6-0.2,11.4c-0.9,2.7-4,8.1-6.8,4.3c-2.3-3.1-7.5-0.1-5.2,3c5.2,7,11.9,4.5,16-2.1
		c1.4-2.3,2.2-4.7,2.6-7.3c0.1-0.1,0.2-0.2,0.2-0.3c10-14.2,19-28.9,27.3-44c5.6,6.6,12.9,11.7,20.8,15.1
		c26.4,11.2,48.4,0.1,64.8-18.7c0.3,0.1,0.6,0.3,1,0.3c15.5,2.6,30.6-10,39.6-21.4c0.6-0.8,0.9-1.6,0.9-2.4c0.2-0.6,0.2-1.2,0.1-1.8
		c-2.4-14.9-5.3-29.8-8-44.7c-0.2-0.9-0.5-1.6-1-2c1.2-6.9,2.1-13.9,2.7-20.9c0-0.4,0-0.8-0.1-1.1c3.5-1,7-2.2,10.4-3.7
		C287.2,147.2,306.8,132.7,300.8,113.1z M235.6,60.6c0,0.4,0.1,0.7,0.1,1.1c-0.2,7.8,0.9,15.7,2.8,23.3c-15.3-0.3-30.7,1.5-45.5,4.6
		c-0.1-2.3-0.4-4.6-0.8-6.9c3.7-0.3,7.1-2.1,6.7-6.5c-0.2-2.7-1.7-5.2-3.7-7.3C209,68.2,222.6,65.2,235.6,60.6z M213.7,127.7
		c-2.1,1.3-4.1,2.8-6,4.3c-2.5-5.7-4.3-11.8-5.8-17.8c-1.2-5-3.6-13.2-1.2-18.2c0.1-0.3,0.2-0.5,0.3-0.8c2.6-0.5,5.2-0.9,7.8-1.2
		C206.2,105.6,208,117.1,213.7,127.7z M193,62c-0.8,0-1.4,0.3-1.9,0.6c-0.6-2-0.7-3.8-0.5-5.6c2-1,3.9-2.1,5.7-3.4
		c0.2,2.7,0.3,5.4,0.3,8.1C195.3,61.9,194.2,62,193,62z M202.9,55.9c0.3,1.8,0.5,3.5,0.9,5.2c-1.4,0.2-2.9,0.3-4.3,0.5
		c0-2.6,0-5.3-0.3-7.9c1.2,0.5,2.5,0.9,3.9,1.1C202.9,55.2,202.8,55.5,202.9,55.9z M213.5,50c1.6,0.7,3.3,0.9,4.9,0.3
		c0.3,2.6,0.8,5.2,1.4,7.8c-1.4,0.3-2.8,0.7-4.2,1C214.9,56,214.2,53,213.5,50z M225.4,33.9c1.4,3.3,3.3,6.3,5.6,9.1
		c-1.1-0.3-2.2-0.6-3.3-0.9c-0.2-0.2-0.6-0.4-1-0.4c0,0-0.1,0-0.1,0c-0.9-0.2-1.5,0.4-1.6,1.1c-0.8,0.9-1.8,1.7-2.7,2.3
		C223.8,41.5,224.9,37.7,225.4,33.9z M224.8,47c0.5,3.1,1.2,6.1,2.4,9.1c-1.5,0.5-3,0.9-4.5,1.3c-0.6-2.7-1.1-5.5-1.4-8.3
		C222.5,48.5,223.7,47.8,224.8,47z M214.8,38.6c0.6-2.2,1.1-4.3,1.5-6.5c1.3,2.3,2.9,4.5,4.7,6.5c0.1,0.1,0.2,0.2,0.4,0.3
		c-0.4,1.5-1,3.1-1.6,4.6c-0.1-0.1-0.2-0.2-0.3-0.3c-0.6-0.6-1.6-0.6-2.1,0c-0.2,0.2-0.3,0.4-0.3,0.6c-1.2-1.3-2.3-2.7-3.2-4.1
		C214.2,39.5,214.6,39.2,214.8,38.6z M209.2,37.5c1.7,3.9,4.2,7.3,7.5,10.2c-1.7,0.3-3.5-1.2-4.6-2.6c-0.7-0.8-1.6-0.5-2.1,0.1
		c-0.2,0.1-0.4,0.3-0.6,0.5c-0.8,1.3-2,2-3.4,2.3C207.6,44.7,208.6,41.2,209.2,37.5z M210.3,49.2c0.8,3.5,1.6,7,2.4,10.5
		c-2,0.4-3.9,0.7-5.9,1c-0.4-1.8-0.7-3.6-1-5.4c0.1,0,0.1,0,0.2,0c0.1,0,0.2,0,0.4,0c0.9,0.1,1.4-0.5,1.4-1.2
		c0.1-0.7-0.3-1.6-1.1-1.7c-0.4-0.4-0.8-0.8-1.2-1.2C207.2,51,208.9,50.3,210.3,49.2z M200,35c1.1,2.3,2.7,4.4,4.6,6.2
		c0.2,0.2,0.4,0.3,0.6,0.3c-0.6,2.2-1.5,4.4-2.6,6.6c-1.9-2.4-3.5-5.1-4.7-8C198.8,38.5,199.5,36.8,200,35z M201.4,51.3
		c-1-0.3-2-0.8-2.9-1.4c-0.1-0.1-0.1-0.2-0.2-0.2c0,0,0,0,0,0c-0.1-0.1-0.1-0.1-0.2-0.2c0,0,0,0-0.1,0c-0.1,0-0.2-0.1-0.2-0.1
		c0,0,0,0-0.1,0c-0.1,0-0.2,0-0.4,0c0,0-0.1,0-0.1,0c-0.1,0-0.2,0-0.4,0.1c0,0,0,0,0,0c0,0-0.1,0-0.1,0c0,0-0.1,0-0.1,0.1
		c-0.1,0-0.1,0.1-0.2,0.1c0,0-0.1,0-0.1,0c0,0,0,0-0.1,0.1c0,0,0,0,0,0c0,0,0,0-0.1,0c-1.4,1.4-3.1,2.5-4.9,3.5
		c1.1-3.3,3-6.5,4.8-9.7C197.6,46.3,199.3,49,201.4,51.3z M105.7,86.5c-12.9,0-22.7-15.9-24.7-27c-0.6-3.2-0.2-6.1,1.2-8.3
		c-0.6,3.8,0.3,7.6,4.1,10.2c6.3,4.5,13.5,1,17.5-4.6c5.9-8.3,4.6-20.6,6.3-30.2c1.9-10.8,10.3-20,21.9-19.6c7.7,0.3,14,7.5,19.5,12
		c6,4.9,12.7,8.4,20.7,7.7c4.7-0.5,9.3-1.7,14.1-1.7c7.4-0.1,9.6,5.9,6.8,12.1c-2,4.5-5.3,8.4-7.1,13c-1.6,4.2-1.9,9.4-0.7,13.9
		c-7.7-0.5-12.1-8.2-16.1-14.5c-4.6-7.3-9.3-12.9-17.6-15.9c-15.4-5.6-21.8,9.5-24.9,21.6C123.7,66.7,121.8,86.4,105.7,86.5z
		 M115.1,90.5c8.7-4.5,13-15.7,15.2-25c1.6-7,2.8-14.3,6.1-20.8c3.4-6.7,9-7.5,15.6-4.6c8.3,3.7,11.9,13.1,17,20.1
		c4.9,6.6,11.1,10.3,19.1,9.6c2,1.3,3.7,2.8,5,4.9c2.2,3.5-1.3,3.4-4,3.2c-1.7-0.1-2.8,1.7-2.4,3.2c5,20.1-2.8,44.7-26.4,46
		C137.4,128.1,127.9,105.3,115.1,90.5z M130.4,118.4c1.3,1.4,2.7,2.8,4.2,4.1c8,7.1,18.8,10.4,29.4,9c18.6-2.4,27.7-18.2,28.9-34.9
		c0.1,0,0.2,0,0.4,0c-1,5.5,0.2,11.6,1.3,16.8c1.6,8,4.2,16.1,7.7,23.5c0,0,0,0,0,0c-2.7,2.9-4.9,6-6.5,9.6
		c-7.6,0.1-15.3,0.7-22.8,1.9c-6.4,1-12.1,2.8-16,7.7c-11.4-10.3-22.7-20.9-34.2-31.3C125.3,122.6,127.8,120.5,130.4,118.4z
		 M162.4,167.1c-0.8,2.1-1.6,1-2.4-0.2c-1.2-1.9,0.1-4.7,1-6.3c2.1-3.9,6.4-5,10.4-5.9c8.1-1.7,16.5-2.2,24.7-2.2
		c1.7,4.3,4.2,8,7.4,11.3c-3.1,5.4-7.5,10.2-12,14.3c-2.6,2.4-5.7,4.7-9.1,5.5c-3.7,0.9-4.9-3.6-5.5-6.3c-0.6-2.6-4.2-2.9-5.5-0.7
		c-1.4,2.4-4,4.2-4.5,0c-0.3-2.7,0.4-5.5,1.3-8C169.5,164.9,163.8,163.5,162.4,167.1z M118.3,128.8c12,10.9,23.8,22,35.8,32.8
		c-0.4,1.5-0.5,3.2-0.3,4.7c-9,2.3-18,4.6-27.1,7c0.5-1.4,1.2-2.8,2-4c2.4-3.8-3.7-7.4-6-3.5c-1.9,3-3.2,6.3-4,9.7
		c-17.6,4.7-35.2,9.5-52.8,13.9C81,167.2,98.4,146.8,118.3,128.8z M56,215.1c0.1-0.1,0.3-0.2,0.4-0.3c3.4-2.7,5.2-6.6,5.5-10.7
		c0.7,0.8,1.5,1.6,2.3,2.2c1.8,1.4,5.2,1.2,6,3.4c1.6,4.3-3.2,12-6.8,14c-0.6,0.3-1,0.8-1.1,1.3c-0.1,0-0.2-0.1-0.4-0.1
		c0.1-0.4,0.2-0.8,0.2-1.2C62.3,219.3,59.8,215.9,56,215.1z M51.5,212.2c-0.1,0.1-0.4,0.2-0.6,0.2c0-0.1,0-0.1-0.1-0.2
		c-0.4-1.4-0.3-3-0.2-4.5c0.1-2.2,0.4-4.3,0.7-6.5c0.1-0.3,0.1-0.5,0.1-0.8c0.1-0.5,0.1-0.9,0.2-1.4c1.4-0.3,2.7-0.7,4.1-1
		c0.6,1,1,2.3,1.1,3.4C57.4,206.1,55.5,209.8,51.5,212.2z M65.6,200.8c-1.4-1.4-2.6-2.9-4.1-4.2c17-4.3,34-8.8,51-13.4
		c-12.7,7.6-26.1,13.9-40.1,18.8c-0.8,0.3-1.3,0.7-1.7,1.2C68.8,202.7,67.2,202.4,65.6,200.8z M47,159.8c0.5-12.6,2.3-25.1,6.2-37.1
		c3.3-4.9,6.4-10,8.6-15.5c3.2-8,3.7-16.4,1.4-24.4c17.5,12.7,33.8,26.7,49.8,41.2c-22.1,20-41,43-57.5,67.9c-0.1,0-0.2,0.1-0.3,0.1
		c-1.5-0.4-3.1,0.1-4.6,0.8C49.4,181.8,46.6,171,47,159.8z M11.5,207.5c5.2-2.8,10.3-6.4,13.5-11c-0.1,2.3-0.4,4.6-0.5,7.1
		c0,0.8,0.5,1.8,1.2,2.2c3,1.5,4.7,4.5,5.8,7.7C25.4,210.3,18.4,208.6,11.5,207.5z M32.8,197.4c-3.2-15.4-2.6-31.8,3.2-46.5
		c1.9-5,4.6-9.6,7.5-14.1c-1.2,6.4-1.9,12.9-2.3,19.4c-0.8,13.1,2.4,25.5,3.7,38.4C40.9,195.5,36.9,196.5,32.8,197.4z M35.4,209.7
		c-0.1-0.2-0.2-0.4-0.3-0.7c0-0.2,0.1-0.3,0.1-0.5c0-2.2,1.9-4.9,4.3-6.5c1.8-0.4,3.7-0.9,5.5-1.3c0.5,0.1,0.9,0.3,1.3,0.7
		c-0.2,1.2-0.4,2.3-0.5,3.5c-0.3,0.1-0.6,0.3-0.9,0.5C42.2,207.8,39.2,209.9,35.4,209.7z M37.6,216.9c-0.2-0.7-0.3-1.5-0.5-2.2
		c3.1-0.2,6-1.6,8.5-3.5c0,0.4,0.1,0.9,0.1,1.3c0.3,2,1.3,4.1,3.4,4.9c-3.1,2.2-7.3,2.2-10.5,0C38.3,217.1,37.9,217,37.6,216.9z
		 M38.8,223.1c5,1.9,11.2,0.7,15-3.1c4.3-0.1,4.1,4.6,0.8,6.7c-2.1,1.4-4.8,2-7.2,2.1C43.3,228.9,38.1,227.5,38.8,223.1z
		 M47.8,238.9c-3-0.6-6.2-2.1-3.3-5c0.1-0.1,0.2-0.3,0.3-0.4c2.5,0.3,5.1,0.1,7.4-0.4c2.4-0.6,5-1.8,7-3.6c0.3,0.1,0.5,0.2,0.9,0.2
		c0.5,0,1.1,0,1.6,0.2c-0.2,0.9-0.8,1.7-1.4,2.5c-1.6,2.2-3.9,4.2-6.1,5.8C52.1,239.5,50.1,239.4,47.8,238.9z M83.6,261
		c-9.8-4.7-20.5-9.5-27.7-18.1c0.1-0.1,0.2-0.1,0.3-0.2c2-1.2,4.1-2.8,5.9-4.7c3.9,8.4,11.5,13.9,19.3,19c4.5,2.9,9.5,5.9,13.6,9.6
		C91.2,264.5,87.2,262.7,83.6,261z M112.3,289.7c-0.6-2.9-1.6-5.8-2.7-8.5c-1.7-11.2-8.9-18.5-17.9-24.8
		c-9.3-6.4-21.4-11.8-25.1-23.4c-0.1-0.3-0.3-0.6-0.5-0.9c0.7-1.7,0.6-3.2,0.1-4.3c5.5-3.3,8.9-10.7,9.2-16.9c0-0.7-0.1-1.5-0.3-2.3
		c14.7-5.2,28.8-11.9,42.1-19.9c0.3,12.7,4.4,26,8,36.5c2.9,8.5,6.3,17.3,11.1,24.9C128.9,263.7,121,276.9,112.3,289.7z M141.2,241
		c-0.3,0.6-0.6,1.2-0.9,1.8c-2.2-3.9-4-8.1-5.6-12.3c-4.1-10.3-7.2-21.1-9-32c-0.9-5.8-1.5-12.3-0.6-18.4
		c10.4-2.8,20.8-5.5,31.3-8.1c0.4,0.4,0.9,0.9,1.5,1.2c1.1,0.7,2.2,1,3.2,1.2c-0.2,3.5,0.5,7,3.1,9.7c0,0,0.1,0.1,0.1,0.1
		c-0.1,0.6-0.3,1.2-0.5,1.8c0,0,0,0,0,0.1c-0.5,5.8-2.3,11.7-5.2,16.8C153.8,215.9,147.6,228.6,141.2,241z M179,267.8
		c-10.6-0.6-21-5.4-28.9-12.3c-2.4-2.1-4.4-4.4-6.2-6.8c1.1-2,2.2-4.1,3.2-6.1c7.2-13.9,14-28.3,18.9-43.3c0.9-1.2,1.3-2.7,1.3-4.2
		c1-3.2,1.8-6.4,2.6-9.6c1-0.3,2-0.9,2.9-1.5c3.4,6.1,9.8,7.4,17,3.1c7.5-4.5,14.6-12.3,18.9-20.1c0.2,0,0.4-0.1,0.7-0.2
		c0.3,0,0.5,0,0.8-0.1c3-0.6,6-1.2,9-1.7c0.1,0.2,0.2,0.5,0.4,0.7c8.1,10.9,15.9,21.9,28.8,27.2c-3.4,12.6-8.1,24.9-14.7,36.2
		C222.3,249,203.8,269.2,179,267.8z M251.2,180.8c-0.3,1.7-0.7,3.4-1.1,5.1c-10.1-4.4-16.7-13.5-23.2-22.2c2.4-0.3,4.8-0.6,7.2-1
		C238.2,170.1,243.7,176.7,251.2,180.8z M241.6,161.7c4.2-0.6,8.4-1.3,12.5-2.2c-0.4,4.6-0.9,9.3-1.7,13.9
		C248,170.4,244.5,166.3,241.6,161.7z M259.5,226.7c-6.5,7.8-17.3,17.9-27.9,17.9c10.5-14.4,18.2-31.6,22.7-46.9
		C256.1,207.3,257.9,217,259.5,226.7z M262.9,149.9c-17.2,5.9-35.9,6-53.6,9.7c-3.1-3-5.6-6.5-7-10.7c4.8-10.7,17.8-17.5,27.8-22.3
		c10.9-5.3,23.4-9.8,35.6-10.3c4.5-0.2,4.5-7.2,0-7c-14,0.6-27.9,5.8-40.4,11.9c-1.9,0.9-3.7,1.9-5.6,2.9
		c-5.1-9.6-6.4-20.1-3.6-30.7c0-0.1,0-0.3,0.1-0.4c11.1-1.1,22.2-1.4,33.3-0.5c15.9,1.3,36.4,5.2,44.1,21.1
		C302.2,131.4,275.9,145.4,262.9,149.9z"/>
</g>
</svg>
