<?xml version="1.0" encoding="utf-8"?>
<!-- Generator: Adobe Illustrator 17.0.0, SVG Export Plug-In . SVG Version: 6.00 Build 0)  -->
<!DOCTYPE svg PUBLIC "-//W3C//DTD SVG 1.1//EN" "http://www.w3.org/Graphics/SVG/1.1/DTD/svg11.dtd">
<svg version="1.1" id="Слой_1" xmlns="http://www.w3.org/2000/svg" xmlns:xlink="http://www.w3.org/1999/xlink" x="0px" y="0px"
	 width="202.19px" height="185.82px" viewBox="0 0 202.19 185.82" enable-background="new 0 0 202.19 185.82" xml:space="preserve">
<g>
	<path fill="#C16C3E" d="M111.216,13.231c3.385,7.918,15.629,4.038,16.14,15.631c0.186,4.223-3.455,11.995-5.355,15.811
		c-1.39,2.79-0.44,4.772-5.348,3.646c-2.801-0.643-4.053-2.716-4.454-5.632c-0.706-5.124,3.669-10.011,1.969-15.489
		c-1.395-4.495-5.474-5.693-9.945-6.365"/>
</g>
<g>
	<path fill="#F89E5A" d="M79.575,19.322C67.101,20.53,68.809,43.248,52.293,37.356c-11.42-4.074-11.318-20.392,1.847-21.305
		c-0.592,2.025-3.391,6.49-2.376,8.521c1.454,2.909,9.087,2.173,11.144,2.117c0.966-3.098,1.46-6.206,0.952-9.532"/>
	<g>
		<path fill="#EE834A" d="M63.123,18.384c4.907,1.74,10.817,0.863,16,1.675c5.631,0.883,8.763,5.951,13.837,6.677
			c5.8,0.83,20.446-6.272,18.706-14.274c-3.455,1.884-5.329-7.154-9.306-8.548C95.221,1.411,91.32,8.9,85.781,11.212
			c-5.667,2.363-11.053-2.852-16.485-1.573c-3.794,0.893-7.973,4.931-5.438,8.746"/>
	</g>
</g>
<g>
	<path fill="#FBCCCC" d="M68.767,49.244c0.145,9.114,4.542,16.707,6.096,25.104c-0.603-0.034-1.629,0.315-2.378,0.261
		c-0.864,4.057,3.532,3.476,5.629,5.146c2.969,2.365,3.479,6.578,6.235,9.107c7.395,6.788,16.184,3.794,21.637-3.279
		c5.244-6.802,3.501-14.059,1.496-21.996c-2.207-8.736-4.548-18.629-8.334-26.729c-3.499-7.488-8.465-13.589-16.463-15.229
		c-1.87-0.384-1.667-1.306-4.007-1.137c-5.715,0.416-5.366,5.585-9.421,8.198"/>
</g>
<g>
	<path fill="#F7E1E1" d="M70.975,27.953c-1.5,9.716-2.192,18.138-0.06,27.772c1.381,6.238,4.566,12.767,5.44,18.926
		c-1.257-0.703-3.324-0.542-4.63-1.046c-0.168,0.803-0.022,2.504,0.261,3.332c2.837,0.375,5.202,1.899,8.041,2.313
		c0.092,4.905,5.34,10.014,9.908,12.004c-12.534,5.551-26.231-14.259-28.79-24.185c-1.64-6.359-2.809-14.192-3.135-20.723
		c-0.397-7.964,5.035-10.758,11.843-14.042c-0.163,0.498-0.241,1.026-0.353,1.54"/>
</g>
<g>
	<path fill="#E1B6B4" d="M89.869,25.745c7.694,6.154,8.145,20.663,11.041,29.603c2.184,6.741,5.044,13.864,8.215,20.427
		c2.642-6.892,28.446-22.896,13.393-26.419c-4.689-1.097-6.313,0.174-8.674-2.786c-3.868-4.849-0.499-7.533,0.616-12.284
		c0.901-3.84-0.313-10.958-4.777-12.165"/>
	<path fill="#E1B6B4" d="M174.523,50.773c-8.771,0.463-18.569,13.634-14.967,21.652c2.579-2.348,3.912-5.526,6.726-7.91
		c2.786-2.36,5.77-4.323,8.971-6.321c2.25-1.405,6.898-3.614,4.469-6.732c-1.206-1.549-3.255-1.531-4.955-0.444"/>
</g>
<g>
	<path fill="#E1B6B4" d="M150.231,68.931c3.239,13.348-0.903,23.893-9.66,34.234c-4.168,4.923-14.615,7.463-8.252,12.872
		c2.446,2.08,4.618,3.004,6.875,5.52c2.728,3.04,2.218,4.293,7.121,3.317c5.656-1.125,14.841-9.905,14.938-15.905
		c-10.641-0.223-2.122-17.865-1.427-22.289"/>
</g>
<g>
	<path fill="#FBCCCC" d="M141.643,63.042c7.426,9.54,4.073,20.649-1.97,27.978c-5.274,6.395-5.306,14.311-12.73,19.367
		c11.981,6.765,23.636-11.309,27.699-19.796c1.828-3.817,6.768-11.13,4.397-15.55c-1.592-2.966-7.611-4.449-10.097-6.864
		c-2.231-2.167-2.589-4.981-6.073-5.136"/>
	<path fill="#FBCCCC" d="M154.593,56.267c-0.252,3.671,1.604,8.187,3.748,10.892c2.761-6.337,4.519-13.384,7.514-19.588
		c1.354-2.806,6.462-6.748,5.919-10.329c-0.822-5.426-4.632,0.059-7.802,0.527"/>
</g>
<g>
	<path fill="#F7E1E1" d="M147.041,35.315c-4.546,4.235-3.608,14.313-2.707,20.12c0.321,2.067,0.129,6.16,0.859,7.88
		c2.026,4.772,8.549,4.823,10.681,9.289c0.92-5.475-0.635-11.117-1.459-16.438c-1.208-7.801-1.61-14.602-3.981-22.352
		c-1.139,0.15-2.509,0.762-3.393,1.746"/>
	<path fill="#F7E1E1" d="M118.279,63.974c-3.259,2.837-12.042,12.261-6.387,14.79c6.569,2.938,14.703-7.258,22.903-3.896
		c4.422,1.813,4.546,9.062,9.61,10.486c-2.8,2.611-7.604,12.521-11.916,12.348c-2.755-0.111-9.495-10.059-11.71-12.324
		c-4.166-4.259-7.483-3.269-13.263-2.167c-0.024,2.212-0.96,4.54,0.061,6.575c0.823,1.642,12.675,19.782,15.777,20.416
		c7.955,1.624,16.516-10.556,19.951-16.502c4.909-8.498,11.361-26.177-1.172-31.64"/>
</g>
<g>
	<path fill="#0490A1" d="M74.41,88.561c-3.402,1.812-6.536,8.424-7.613,12.232c-2.892,10.229,3.689,59.749,15.686,66.813
		c3.386-3.314,31.346-0.952,38.362-4.941c5.247-2.984,8.011-7.552,13.96-9.804c4.543-1.72,18.739-1.829,20.156-7.304
		c0.719-2.78-18.619-29.701-21.682-31.445c-4.272-2.431-18.868-12.115-21.145-17.377c-0.866-2-0.21-4.935-2.123-6.725
		c-4.859-4.548-16.294,3.698-23.026,3.17"/>
	<path fill="#0490A1" d="M162.254,111.872c9.082,8.796,7.838,26.818,7.855,38.777c-7.338-0.387-26.245-20.173-27.669-23.789"/>
</g>
<g>
	<path fill="#4AAFBF" d="M74.41,90.748c-7.372,3.414-4.425,26.199-3.92,32.77c1.002,13.037,3.098,27.634,6.091,40.326
		c-1.393-0.34-26.69-2.884-33.1-4.372c2.224-13.658,4.259-48.845,5.17-53.986c1.216-6.863,6.926-11.624,11.941-16.349
		c5.788-5.453,9.919-3.154,13.081,1.867"/>
</g>
<g>
	<path fill="#297582" d="M120.541,76.292c6.888-5.078,19.835-1.331,21.642,7.282c1.179,5.617-2.208,2.902-5.534,7.638
		c-1.767,2.517-1.611,6.457-2.932,9.153c-8.474-5.649-10.746-16.887-20.085-21.336"/>
	<path fill="#297582" d="M161.028,87.334c5.181,4.748,20.965,27.315,24.441,33.245c-2.936-6.06-18.043-6.2-23.566-8.971
		c-4.04-2.027-4.844-3.747-5.735-7.737"/>
	<path fill="#297582" d="M161.028,110.89c7.155,12.919,7.141,25.122,7.654,39.768c5.734,0.473,23.235,5.181,27.47-0.257
		c3.65-4.688,0.091-10.926-2.433-15.165c-7.747-13.011-17.132-19.929-32.445-23.118"/>
</g>
<g>
	<path fill="#BB6B3F" d="M105.695,62.183c0.045,4.105-2.485,8.333-5.486,11.027c-5.016,4.503-11.899,6.578-18.753,6.245
		c-1.305-0.063-10.965-1.923-9.319-4.399c0.894-1.345,9.638-0.657,11.257-0.996c5.674-1.191,20.263-9.969,21.074-10.895"/>
	<path fill="#BB6B3F" d="M104.468,63.165c0.368-0.245,0.736-0.491,1.104-0.736"/>
</g>
<g>
	<path fill="#202020" d="M72.174,55.557c-0.29-0.894-0.589-1.975-1.488-2.44c-1.081-0.559-1.822,0.07-2.184,1.07
		c-0.686,1.888-0.337,4.45,0.86,6.084c0.452,0.618,1.36,1.069,2.123,0.93c0.792-0.145,0.973-0.8,1.091-1.498
		C72.813,58.306,72.608,56.894,72.174,55.557z"/>
	<path fill="#202020" d="M96.248,47.338c-0.122-1.063-0.801-1.963-1.963-1.963c-0.871,0-1.838,0.713-1.955,1.62
		c-0.126,0.255-0.196,0.536-0.172,0.833c0.066,0.801-0.013,1.593-0.025,2.394c-0.015,0.964,0.238,1.816,0.62,2.686
		c0.708,1.61,3.19,1.05,3.588-0.469C96.805,50.675,96.451,49.104,96.248,47.338z"/>
	<path fill="#202020" d="M68.053,40.408c-1.929,1.979-3.379,4.311-3.977,7.03c-0.407,1.85,2.431,2.637,2.839,0.782
		c0.494-2.246,1.624-4.093,3.22-5.73C71.46,41.13,69.38,39.046,68.053,40.408z"/>
	<path fill="#202020" d="M96.471,35.664c-1.982-1.753-4.234-2.929-6.866-3.323c-1.857-0.278-2.656,2.559-0.783,2.839
		c2.133,0.32,3.948,1.135,5.566,2.566C95.806,38.999,97.896,36.924,96.471,35.664z"/>
	<path fill="#202020" d="M84.797,64.024c-2.112,0.236-3.851,0.319-5.553-0.864c2.768-4.328,3.21-9.224,1.428-14.12
		c-0.429-1.18-2.327-0.67-1.893,0.522c1.713,4.707,1.212,9.204-1.701,13.312c-0.241,0.342-0.153,0.917,0.153,1.19
		c2.317,2.063,4.559,2.258,7.564,1.924C86.041,65.848,86.054,63.883,84.797,64.024z"/>
	<path fill="#202020" d="M109.663,59.443c-1.994-0.17-3.553-1.251-4.124-3.206c-0.354-1.212-2.249-0.696-1.893,0.522
		c0.4,1.37,1.152,2.436,2.14,3.207c-0.003,0.013-0.011,0.02-0.014,0.033c-0.012,0.063-0.026,0.124-0.037,0.186
		c-8.767,9.293-20.055,14.931-33.041,13.652c-0.034-0.003-0.057,0.01-0.089,0.01c-0.105-0.329-0.227-0.661-0.371-0.995
		c-0.502-1.159-2.193-0.158-1.695,0.99c0.757,1.748,0.757,3.477,0,5.226c-0.498,1.149,1.194,2.149,1.695,0.99
		c0.256-0.592,0.432-1.172,0.562-1.747c0.045,0.022,0.077,0.055,0.129,0.072c6.956,2.247,15.062,3.279,21.937,0.121
		c7.311-3.36,11.231-9.87,12.719-17.56c0.649,0.238,1.344,0.399,2.084,0.462C110.924,61.514,110.914,59.55,109.663,59.443z
		 M94.85,76.358c-6.553,3.45-14.676,2.307-21.406,0.132c-0.161-0.052-0.308-0.059-0.442-0.038c-0.001-0.21,0.007-0.421-0.01-0.632
		c12.236,1.109,23.157-3.771,31.846-11.973C103.181,69.166,100.092,73.598,94.85,76.358z"/>
	<path fill="#202020" d="M98.278,83.198c-1.398,0.376-2.65,0.112-3.824-0.718c-1.035-0.733-2.015,0.97-0.99,1.695
		c1.585,1.122,3.469,1.419,5.336,0.917C100.02,84.763,99.502,82.868,98.278,83.198z"/>
	<path fill="#134345" d="M93.14,103.611c-5.064,0-5.064,7.852,0,7.852S98.204,103.611,93.14,103.611z"/>
	<path fill="#134345" d="M97.23,116.37c-4.431,0-4.431,6.871,0,6.871C101.66,123.241,101.66,116.37,97.23,116.37z"/>
	<path fill="#111111" d="M126.215,156.412c-7.223,3.972-14.584,7.495-22.835,8.484c0.045,0.555,0.182,3.997-0.033,4.75
		c0.565-0.02,1.118-0.039,1.632-0.051c7.561-1.171,14.368-4.3,21.017-7.86C125.876,161.053,126.215,157.153,126.215,156.412z"/>
	<path fill="#222222" d="M179.263,150.905c-12.14-2.725-23.882-9.483-31.323-19.335c-0.083,0.894-2.398,4.391-3.626,4.999
		c2.23,2.744,4.757,5.26,7.525,7.519c-5.822,1.632-11.247,4.333-16.575,7.263c0.043,1.895,0.122,3.915-0.419,5.51
		c0,0.001,0,0.001,0,0.002c7.044-3.873,14.207-7.469,22.206-8.953c0.026-0.216,0.086-0.424,0.16-0.627
		c0.007-1.467,0.955-2.928,2.847-2.928c1.095,0,1.864,0.497,2.327,1.194c0.259,0.261,2.142,4.262,2.253,4.631
		c0.04,0.094,0.559,1.769,0.554,2.122c4.36,1.986,10.08,3.574,14.695,4.562c0.093-0.235,0.238-0.293,0.381-0.494
		C180.408,154.663,179.288,152.666,179.263,150.905z"/>
	<path fill="#222222" d="M196.778,132.224c-0.922-2.066-2.014-3.925-3.241-5.621c0.104-0.498,0.1-1.049-0.078-1.659
		c-4.765-16.204-17.219-29.106-28.856-40.776c-0.734-0.736-1.563-1.02-2.361-1.002c0.338-1.753,0.452-3.479,0.046-4.958
		c-0.211-0.768-0.586-1.485-1.054-2.168c0.209-0.29,0.332-0.638,0.367-0.999c0.003-0.01,0.009-0.018,0.012-0.027
		c2.085-7.109,7.038-13.345,14.325-15.807c3.003-1.015,7.909-1.358,7.665-5.817c-0.213-3.888-2.456-5.153-6.168-4.975
		c-3.714,0.178-6.961,0.96-9.847,2.529c0.66-1.186,1.329-2.368,2.018-3.542c2.304-3.93,7.352-9.082,3.771-13.557
		c-2.786-3.48-8.42,0.626-10.559,2.586c-4.091,3.749-5.142,9.304-7.557,14.006c-0.06-0.661-0.127-1.319-0.177-1.981
		c-0.33-4.333-1.611-8.385-1.626-12.737c-0.006-1.679-1.06-3.712-2.777-4.184c-3.663-1.008-7.458,4.442-8.275,7.355
		c-1.114,3.972-0.881,7.951-0.547,12.03c0.265,3.233,1.409,6.262,1.987,9.421c-2.555-0.594-5.555-0.324-7.939-0.627
		c-2.834-0.361-5.807-0.75-8.734-0.764c1.746-1.403,3.06-3.332,2.773-5.685c-0.421-3.448-3.637-5.279-6.671-6.183
		c-0.014-0.004-0.027-0.004-0.039-0.008c0.474-4.942,4.12-8.898,5.93-13.525c1.938-4.953-0.477-10.713-4.54-13.817
		c-2.775-2.12-5.879-3.717-8.928-5.4c-1.449-0.8-2.856-1.649-4.224-2.579c-1.469-0.999-1.778-3.718-2.399-5.273
		c-1.842-4.608-8.69-5.585-12.777-3.821c-4.911,2.12-8.037,7.583-13.719,7.394c-5.548-0.186-12.249-4.166-17.58-1.216
		c-3.427,1.896-3.266,6.624-3.058,9.928c0.113,1.795,0.754,5-1.377,5.842c-1.426,0.563-6.145,0.57-6.4-1.554
		c-0.252-2.097,4.709-6.644,4.639-7.317c1.039-1.191,0.617-3.464-1.317-3.24c-10.7,1.237-19.392,9.935-14.092,20.917
		c2.622,5.432,7.707,7.33,12.911,6.859C55.61,54.396,55.753,70.167,64.1,82.187c-13.592,5.364-19.529,20.378-22.25,33.782
		c-0.494,2.432-0.906,4.881-1.233,7.341c-0.336,2.522-0.62,5.067-0.744,7.609c-0.07,1.438,0.126,2.871,0.059,4.308
		c-0.088,1.865,0.635,7.638,0.647,8.252c0.018,0.896-0.269,1.761-0.307,2.652c-0.032,0.752,0.043,1.505,0.161,2.246
		c0.175,1.102,0.337,2.207,0.538,3.304c0.398,2.17,0.926,4.324,1.562,6.436c0.294,0.976,0.617,1.941,0.963,2.899
		c1.379,0.048,9.108-0.118,9.584-0.118c0.41,0,5.601-0.129,8.262-0.059c-0.961-1.942-2.368-3.673-4.278-5.022
		c-2.304-1.626-5.39-1.747-7.891-0.591c-0.095,0.044-0.176,0.106-0.268,0.153c-3.024-10.963-2.692-23.21-1.025-34.222
		c1.797-11.864,6.322-28.264,19.025-32.721c0.726-0.255,1.26-0.674,1.642-1.175c10.107,8.979,26.813,11.036,38.085,3.164
		c0.031,0.021,0.065,0.033,0.097,0.052c1.513,2.283,3.968,3.735,4.853,6.744c1.089,3.709,0.537,7.176,4.188,9.499
		c4.007,2.549,7.686,5.646,11.732,8.071c2.166,1.299,4.617,2.053,6.793,3.369c2.496,1.508,3.858,4.162,4.76,6.826
		c-0.622,0.827-0.772,1.961-0.217,3.118c0.377-0.067,0.786-0.069,1.232,0.034c1.003,0.233,5.726-0.029,6.413,0.451
		c7.418-2.189,13.646-7.371,16.197-14.774c6.842,2.79,14.086,6.307,19.962,10.717c0.198-0.081,0.823-0.623,0.833-0.625
		c0.491-0.097,1.817-0.577,2.229-0.577c0.63,0,7.994,16.806,7.985,17.008c1.138,3.59,1.467,7.021-0.081,9.057
		c0.006,0.589,0.135,6.501,0.056,7.03C203.641,153.266,200.049,139.555,196.778,132.224z M177.434,52.341
		c1.52-0.394,1.713,0.39,0.577,2.35c-0.69,0.176-1.384,0.335-2.081,0.476c-1.835,0.397-3.481,1.182-5.126,2.072
		c-5.243,2.838-8.909,7.07-11.267,12.166c1.037-3.525,2.351-6.92,3.86-10.227c0.397-0.038,0.796-0.226,1.144-0.637
		C168.088,54.359,171.959,52.703,177.434,52.341z M161.639,45.119c1.033-2.18,2.278-4.175,3.954-5.912
		c0.717-0.721,1.513-1.348,2.387-1.878c4.652-3.078,1.837,2.262,1.395,2.974c-4.653,7.476-9.011,15.108-12.048,23.346
		c-0.553-2.379-1-4.782-1.355-7.203C158.66,53.123,159.827,48.941,161.639,45.119z M147.069,38.219
		c2.346-3.865,2.122-0.031,2.578,2.116c2.155,10.142,2.532,20.261,5.518,30.126c-0.32-0.25-0.629-0.497-0.917-0.738
		c-2.309-1.938-4.052-4.754-6.179-6.884c-0.244-5.178-2.247-10.014-2.501-15.219C145.41,44.367,145.309,41.119,147.069,38.219z
		 M52.825,36.282c-4.492-0.922-7.096-5.34-7.14-9.664c-0.044-4.451,2.971-7.317,6.667-8.873c-1.921,2.38-3.246,5.32-1.495,7.765
		c2.512,3.508,9.46,4.77,12.879,1.756c3.105-2.736,2.114-7.222,2.011-10.879c-0.124-4.391,2.456-4.948,6.347-4.3
		c3.514,0.585,6.922,1.549,10.479,1.892c5.644,0.545,8.855-3.624,13.075-6.552c4.156-2.885,9.179-1.963,10.671,3.257
		c0.817,2.859,2.694,4.215,5.128,5.735c5.891,3.677,16.707,7.119,13.927,16.087c-1.687,5.441-5.824,9.143-6.106,14.833
		c-2.553-0.072-5.31-0.592-5.5-3.523c-0.156-2.404,0.866-4.97,1.528-7.241c1.458-4.988,2.227-9.191-0.747-13.749
		c-3.258-4.994-8.62-2.873-12.884-0.722c-3.976,2.005-7.423,2.988-11.497,0.633c-2.449-1.415-4.42-3.28-7.085-4.34
		c-6.221-2.476-11.442,2.925-13.948,7.85c-1.989,3.91-3.805,6.5-7.769,8.62C58.775,36.253,55.718,36.875,52.825,36.282z
		 M104.796,85.776c-0.1,0.055-0.201,0.103-0.302,0.176c-12.106,8.76-29.824,3.966-37.48-8.149
		c-6.969-11.035-6.416-25.804-5.773-38.316c0.006-0.123-0.008-0.232-0.017-0.345c3.988-1.475,7.583-4.205,9.626-7.616
		c2.56-4.276,3.746-9.551,9.813-9.641c3.523-0.052,6.654,4.223,9.837,5.417c3.323,1.246,6.385,1.034,9.673-0.198
		c3.836-1.438,8.585-5.976,11.693-1.213c3.057,4.687-1.599,12.184-2.012,17.232c-0.432,5.28,4.159,7.651,8.772,8.038
		c0.716,0.06,1.436,0.076,2.154,0.081c0.772,0.006,1.907-0.234,2.639-0.021c0.751,0.219,1.537,0.687,2.058,1.274
		c1.694,1.908-0.877,3.647-2.411,4.437c-1.084,0.557-1.18,1.629-0.744,2.465c-2.693,0.696-4.878,3.137-6.433,5.248
		c-2.721,3.695-5.346,7.451-8.717,10.596c-0.796,0.742-1.265,1.38-1.05,2.514c0.255,1.338,1.364,1.712,2.543,2.065
		C106.188,80.797,104.582,82.854,104.796,85.776z M142.7,123.55c-1.049-2.94-2.542-5.453-4.916-7.636
		c-1.599-1.47-3.649-2.381-5.604-3.256c-2.822-1.263-10.56-7.06-12.291-8.035c-3.159-1.781-3.683-3.684-4.244-7.094
		c-0.342-2.075-1.099-3.912-2.161-5.703c-0.977-1.648-4.259-5.017-4.542-5.24c-1.07-3.788,4.343-3.475,7.309-2.657
		c3.865,1.065,5.229,4.486,6.261,7.917c1.755,5.84,7.251,5.857,11.444,9.557c1.307,1.153,3.253,0.364,3.351-1.388
		c0.355-6.34,3.821-9.185,8.515-12.701c1.223-0.916,1.284-2.484,0-3.39c-3.504-2.47-5.153-5.158-5.244-9.428
		c-0.024-1.095-0.876-1.929-1.963-1.963c-2.632-0.082-5.213,0.291-7.761-0.536c-1.719-0.557-3.486-1.545-5.357-1.03
		c-1.523,0.419-2.955,1.951-4.231,2.815c-2.644,1.79-6.358,3.133-9.718,2.738c1.781-1.727,3.418-3.548,4.879-5.614
		c3.031-4.288,4.788-8.112,10.574-8.025c4.597,0.068,9.153,1.053,13.742,1.164c4.166,0.101,5.811,3.623,8.574,6.373
		c2.469,2.457,8.801,5.922,9.286,9.64c0.253,1.942-1.156,5.329-1.617,7.226c-0.572,2.357-1.223,4.689-1.778,7.051
		c-1.416,6.021-3.431,12.201,2.259,16.367C155.522,117.556,149.742,122.353,142.7,123.55z M116.645,79.906
		c1.761-0.428,3.5-1.103,5.205-1.931c0.97-0.471,1.728-0.985,2.42-1.437c4.338,0.003,8.527,0.14,12.674,1.452
		c0.546,3.357,1.922,5.403,4.678,7.65c-3.759,3.03-6.562,6.118-7.706,10.759c-0.873-0.608-1.78-1.165-2.756-1.658
		c-1.376-0.695-3.302-0.903-4.229-2.317c-0.679-1.035-0.951-2.682-1.31-3.871c-1.277-4.222-4.325-6.853-8.325-8.412
		C117.079,80.057,116.862,79.979,116.645,79.906z M162.187,107.284c-0.857-0.371-1.93-0.413-2.802-0.066
		c-4.151-3.633-0.332-12.642,0.916-17.101c0.037-0.133,0.079-0.274,0.12-0.412c8.093,8.121,16.703,16.895,22.25,27.141
		C176.381,112.97,169.129,110.289,162.187,107.284z"/>
</g>
<g>
	<path fill="#EEEEEE" stroke="#222222" stroke-width="2" stroke-miterlimit="10" d="M135.15,139.859
		c0.041-1.134,0.145-2.293,0.106-3.427c-0.512-0.585,6.452,0.089,7.03,0.08c1.178-0.018,2.385-0.159,3.308-0.96
		c0.932-0.81,1.687-2.073,1.822-3.315c0.14-1.284-0.905-3.73-2.432-3.778c-0.686-0.022-1.411,0.237-2.091,0.321
		c-3.345,0.41-24.168-0.623-26.087-0.632c-5.065-0.024-5.063,7.828,0,7.852c3.536,0.017,7.071,0.113,10.604,0.218
		c-0.106,4.377-0.554,18.919-0.621,21.816c-0.066,2.868-0.645,11.915-0.792,13.589c-0.09,1.026-0.265,2.799-0.929,3.652
		c-1.79,2.299-5.069-0.526-5.314-2.468c-0.622-4.955-8.482-5.015-7.852,0c1.401,11.155,16.349,15.536,20.972,4.055
		c1.67-4.149,1.281-15.733,1.29-17.055C134.169,159.055,135.075,141.936,135.15,139.859z"/>
	<path fill="#EEEEEE" stroke="#222222" stroke-width="2" stroke-miterlimit="10" d="M177.337,167.751
		c-0.306-2.848-2.023-5.341-4.588-6.625c-1.352-0.677-2.843-0.911-4.338-0.995c-1.116-0.063-2.927,0.229-3.615-0.91
		c-0.506-0.838-0.121-2.117-0.017-3.019c0.203-1.751,0.062-3.586-0.161-5.329c-0.063-0.493-0.13-0.987-0.215-1.476
		c-0.165-0.953-0.358-1.952-0.912-2.765c-0.822-1.205-3.086-2.531-4.556-1.81c-0.368,0.181-0.809,0.609-0.978,0.987
		c-0.355,0.799-0.295,1.827-0.422,2.682c-0.15,1.008-0.344,2.01-0.486,3.019c-0.525,3.741-0.922,7.496-0.932,11.278
		c-0.009,3.072-0.025,6.258,0.747,9.251c0.222,0.862,0.517,1.706,0.897,2.512c1.441,3.054,4.127,5.011,7.54,5.108
		c0.975,0.028,1.949-0.072,2.91-0.227c0.505-0.081,1.007-0.179,1.508-0.284c3.69-0.772,6.44-3.835,7.3-7.44
		C177.33,170.411,177.48,169.08,177.337,167.751z M165.439,171.587c-0.796-0.66-1.243-1.661-1.508-2.641
		c-0.174-0.642-0.618-1.957-0.269-2.573c0.269-0.476,0.839-0.345,1.314-0.34c1.607,0.017,3.7,0.281,4.389,1.974
		C170.234,170.143,167.602,173.379,165.439,171.587z"/>
	<path fill="#EEEEEE" stroke="#222222" stroke-width="2" stroke-miterlimit="10" d="M193.512,127.963
		c-0.278-1.006-1.693-2.343-2.481-2.987c-0.958-0.783-2.11-1.251-3.344-1.349c-2.414-0.19-4.997,0.913-6.249,3.037
		c-0.588,0.997-1.182,2.599-1.146,3.775c0.206,6.841,0.026,13.681-0.015,20.522c-0.055-0.012,0.132,6.302,0.036,6.447
		c0.416,8.226,12.858,8.448,13.676,0.632c-0.094-2.91,0.021-16.974,0.002-21.089C193.989,136.05,193.771,128.903,193.512,127.963z"
		/>
	<path fill="#EEEEEE" stroke="#222222" stroke-width="2" stroke-miterlimit="10" d="M62.218,163.747
		c-1.296-5.099-6.6-11.721-12.504-8.583c-7.529,4.002-7.649,14.836-3.485,21.139c1.456,2.203,4.036,4.012,6.674,4.325
		c3.049,0.362,4.523-1.435,6.322-3.522c0.985-1.143,1.822-2.405,2.413-3.797C62.909,170.312,63.015,166.895,62.218,163.747z
		 M54.947,169.474c-0.146,1.523-0.593,2.761-1.345,2.983c-2.042,0.601-3.609-9.719-1.063-9.759
		C54.415,162.669,55.223,166.586,54.947,169.474z"/>
	<path fill="#EEEEEE" stroke="#222222" stroke-width="2" stroke-miterlimit="10" d="M102.981,170.838
		c-0.046-0.445-0.081-0.871-0.092-1.269c-0.126-4.59-0.216-8.708,0.772-13.214c0.934-4.255,1.666-8.902,0.573-13.199
		c-0.926-3.64-6.792-3.872-7.571,0c-0.953,4.736-1.422,9.522-1.619,14.326c-0.004,0.021-0.008,0.042-0.013,0.063
		c-3.358-1.43-7.577-0.397-10.979,3.336c-2.549,2.797-3.227,6.64-3.114,10.308c0.063,2.058,0.31,4.071,1.542,5.792
		c1.155,1.614,3.044,2.758,4.885,3.442c2.964,1.101,5.593-0.652,7.985-2.212c0.323,0.49,0.746,1.016,1.218,1.374
		c0.54,0.41,1.182,0.699,1.834,0.877c1.336,0.366,2.81-0.016,3.74-1.056C104.043,177.28,103.277,173.668,102.981,170.838z
		 M91.195,170.342c-0.353,0.717-1.087,2.778-2.164,2.495c-1.19-0.312-1.166-2.482-0.969-3.379c0.277-1.261,0.917-2.452,1.811-3.381
		c0.406-0.421,1.641-1.727,2.305-1.464c0.196,0.078,0.24,0.577,0.276,0.804C92.747,167.26,91.988,168.731,91.195,170.342z"/>
	<path fill="#EEEEEE" stroke="#222222" stroke-width="2" stroke-miterlimit="10" d="M79.733,161.476
		c-1.928-6.038-11.779-9.585-15.186-2.654c-2.771,5.637-3.398,16.477,3.29,19.774c5.72,2.82,11.188-2.874,12.194-8.149
		C80.555,167.695,80.648,164.345,79.733,161.476z M72.913,167.953c-0.233,0.908-0.754,1.852-1.606,0.839
		c-0.624-0.742-0.429-1.973-0.323-2.847c0.041-0.339,0.753-2.831,0.818-2.76c0.942,1.024,1.318,2.519,1.253,3.884
		C73.045,167.294,72.998,167.621,72.913,167.953z"/>
	<path fill="#EEEEEE" stroke="#222222" stroke-width="2" stroke-miterlimit="10" d="M30.285,153.225
		c-7.919-1.845-14.688,3.774-14.081,11.896c0.516,6.899,11.317,6.949,10.797,0c-0.005-0.067-0.151-0.972-0.113-1.448
		c0.08-0.022,0.169-0.046,0.275-0.073c0.836-0.213,2.187,0.669,2.897,1.095c3.136,1.883,1.531,6.06-0.933,7.594
		c-3.556,2.212-8.623,1.528-12.031-0.531c-3.467-2.095-4.367-7.099-4.601-10.761c-0.494-7.698,1.031-16.365,7.895-20.723
		c2.625-1.667,5.606-2.664,8.719-2.568c1.923,0.06,2.377,1.739,2.404,3.356c0.03,1.806-0.265,3.538,0.773,5.158
		c2.205,3.442,7.649,1.889,9.938-0.568c3.826-4.108-0.055-9.444-2.491-13.11c-1.632-2.455-4.227-4.189-7.005-5.084
		c-6.121-1.971-13.418,0.717-18.562,3.984c-13.08,8.305-15.472,28.274-9.613,41.624c6.715,15.299,37.123,15.602,37.923-3.717
		C42.8,161.517,37.959,155.013,30.285,153.225z"/>
	<path fill="#EEEEEE" stroke="#222222" stroke-width="2" stroke-miterlimit="10" d="M154.331,162.931
		c-0.533-2.237-2.085-4.441-4.181-5.439c-2.974-1.416-6.033-0.666-8.825,0.803c-0.265,0.139-3.648,1.73-4.258,3.327
		c-1.789,4.685-1.698,10.241,0.31,14.821c1.029,2.346,3.261,3.83,5.742,4.121c2.679,0.315,5.104-1.412,6.937-3.151
		C153.906,173.763,155.557,168.075,154.331,162.931z M144.549,171.921c-0.132,0.086-0.271,0.16-0.417,0.219
		c-0.568,0.23-0.591-4.512-0.529-4.899c0.106-0.657,0.288-1.243,0.786-1.703c0.361-0.333,1.709-1.141,2.221-0.801
		c0.774,0.516,0.373,2.401,0.188,3.118C146.463,169.156,145.799,171.105,144.549,171.921z"/>
	<path fill="#EEEEEE" stroke="#222222" stroke-width="2" stroke-miterlimit="10" d="M187.37,168.749c-7.048,0-7.048,10.929,0,10.929
		S194.418,168.749,187.37,168.749z"/>
</g>
</svg>
