<?xml version="1.0" encoding="utf-8"?>
<!-- Generator: Adobe Illustrator 17.0.0, SVG Export Plug-In . SVG Version: 6.00 Build 0)  -->
<!DOCTYPE svg PUBLIC "-//W3C//DTD SVG 1.1//EN" "http://www.w3.org/Graphics/SVG/1.1/DTD/svg11.dtd">
<svg version="1.1" id="Слой_1" xmlns="http://www.w3.org/2000/svg" xmlns:xlink="http://www.w3.org/1999/xlink" x="0px" y="0px"
	 width="280.82px" height="316.48px" viewBox="0 0 280.82 316.48" enable-background="new 0 0 280.82 316.48" xml:space="preserve">
<g>
	<path fill="#EE834A" d="M66.576,157.519c-3.557,0.89-12.576,7.122-14.824,7.956c-0.192-3.02-14.529-65.221-10.169-67.011
		c2.75-1.129,5.292-1.629,8.119-0.315c4.572,2.124,7.773,4.431,8.206,9.513"/>
	<g>
		<path fill="#F89E5A" d="M42.02,110.14c-0.141,1.976,1.552,3.633,2.372,5.353c1.233,2.587,1.656,5.09,2.407,7.745
			c1.564,5.528,3.392,10.34,4.374,15.996c0.915,5.264,1.97,9.504,2.018,15.03c0.024,2.724,0.261,5.622,0.013,8.335
			c-0.547,5.968-6.207,3.409-9.354,0.522c-2.534-2.326-15.131-2.108-15.194-2.128c-1.504-3.54-8.636-14.436-9.987-20.5
			c-0.885-3.967,2.186-20.449,1.775-23.445"/>
	</g>
</g>
<g>
	<path fill="#C16C3E" d="M58.902,116.346c-1.919,3.038-2.699,6.567-2.978,10.22c-0.233,3.05,1.097,10.216,4.684,11.1
		c1.342-6.46,16.784-10.145,16.417-14.938c-0.726-9.487-11.59-9.103-18.371-5.886"/>
</g>
<g>
	<path fill="#963C20" d="M235.143,116.346c-28.757,0.243-56.337-1.986-85.128-1.986c-7.326,0-63.289-0.673-67.904-0.497
		c-9.386,0.358-9.066-1.262-9.058-9.446c0.004-4.271-0.145-92.082,0.075-97.669c22.992,0.272,166.264-0.682,163.779,2.347"/>
</g>
<g>
	<path fill="#7C311A" d="M172.358,4.628c22.665,13.854,33.82,32.026,33.764,60.204c-0.03,14.569-5.191,22.485-13.62,34.039
		c-4.121,5.647-11.859,11.124-14.108,17.398c28.235,0.816,93.943,0.956,97.118-2.062c3.312-3.148,1.244-105.871,1.993-108.067"/>
</g>
<g>
	<path fill="#3C5D66" d="M58.328,204.417c22.389,2.178,23.426-53.372,1.153-45.7"/>
</g>
<g>
	<path fill="#358F9F" d="M18.104,140.014c-3.09,13.142-0.186,31.182,2.541,44.202c1.56,7.447,3.657,15.059,6.036,22.136
		c7.512,1.679,30.796-1.578,35.312-2.147c3.282-15.059-2.66-30.253-1.848-45.255c-6.881-2.872-5.462,9.039-11.649,7.542
		c-4.599-1.113-7.26-8.244-12.359-8.247c-4.758-0.003-4.839,6.073-7.279-0.88c-2.485-7.077,1.792-11.941-8.603-14.536"/>
</g>
<g>
	<path fill="#4AAFBF" d="M49.882,91.354c-1.983-0.607-5.835-4.467-7.617-4.697c-3.264-0.421-8.231,4.647-10.96,7.084
		c-9.556,8.535-19.798,19.878-23.82,31.626c-4.736,13.833-3.973,30.095-2.249,44.441c1.035,8.616,5.605,26.924,7.823,29.282
		c2.909,3.091,14.536,6.882,18.966,7.325c-6.32-4.867-6.183-16.81-7.296-24.022c-1.577-10.217-2.832-19.777-3.682-30.308
		c-0.533-6.603-3.647-11.858-0.629-17.99c2.048-4.159,4.776-3.412,2.491-9.971c-0.846-2.428-3.221-3.778-2.447-6.395
		c0.287-0.968,5.355-4.208,6.36-4.642c4.821-2.082,10.699,0.524,15.264-2.38c2.007-6.505-6.449-5.277-2.548-10.808
		c2.429-3.445,8.333-3.462,10.841-8.38"/>
</g>
<g>
	<path fill="#1F6775" d="M37.481,287.598c0.033,0.018-22.558-78.033-21.767-86.124c4.837,0.639,9.755,3.527,13.81,5.904"/>
	<path fill="#134049" d="M27.207,205.887c0.018,15.551,2.105,30.485,3.788,45.885C32.804,268.32,27,302.31,52.268,298.237
		c21.367-3.445,10.562-47.718,8.382-64.861c-1.034-8.13-2.645-16.12-3.983-24.179"/>
</g>
<g>
	<path fill="#0E3137" d="M52.365,208.038c13.782,24.839,8.048,61.772,6.004,89.214c1.738,0.386,4.643,0.302,6.405-0.026
		c3.263-32.92,2.738-66.386,5.069-99.342"/>
</g>
<g>
	<path fill="#673A1A" d="M83.388,128.519c5.206,6.615,11.132,18.148,13.737,26.306c3.888,12.176-10.595,25.599-21.983,14.909
		c-7.426-6.97-10.198-20.709-14.501-29.927"/>
</g>
<g>
	<path fill="#3C2B23" d="M62.499,138.417c-2.279-8.747,13.533-11.066,19.355-11.897c0.008-0.059,0.586,1.569,0.65,1.628
		c-2.687,2.732-5.449,5.261-8.582,7.44"/>
	<path fill="#5A3E30" d="M76.405,134.718c5.677,10.293,10.397,26.411,19.594,33.75c7.156-10.319-4.897-31.284-12.905-39.368"/>
	<path fill="#995727" d="M26.628,291.621c-6.386,0.035-19.117,8.761-14.653,17.461c4.625,9.014,16.707-4.103,24.032-2.244
		c2.706,0.687,2.647,5.524,6.721,6.465c3.176,0.733,5.364-2.833,8.829-2.765c3.795,0.075,6.752,4.084,11.524,2.499
		c1.769-0.588,0.547-4.576,2.24-5.086c8.332-2.507,16.362,3.518,25.482,0.872c-3.821-15.693-16.933-17.73-29.382-13.234
		c-14.376,5.191-22.093,1.502-34.792-4.588"/>
	<path fill="#673A1A" d="M67.84,294.228c10.936-1.032,18.219,5.909,23.161,14.822c13.809-14.355-13.508-23.698-23.782-14.574"/>
	<path fill="#FBCCCC" d="M52.695,46.833c-3.261,11.822-2.963,27.916-9.899,37.791c2.396,3.465,3.539,4.874,7.902,6.312
		c7.911-11.5,13.128-26.082,0.011-35.413"/>
	<path fill="#FBCCCC" d="M109.522,116.837c-0.749-0.136-2.893-0.928-4.148-1.191c-0.667,0.743-8.474,8.315-11.073,9.996
		c-11.914-10.712,8.443-22.732,19.716-15.503"/>
</g>
<g>
	<path fill="#E1B6B4" d="M116.747,108.402c-2.701,2.798-5.884,2.341-6.486,7.562c-10.79-0.928-18.667,10.08-7.362,15.75
		c6.111-5.867,26.594-13.677,14.345-23.312"/>
	<path fill="#E1B6B4" d="M63.867,39.881c-4.357,0.783-5.843,6.517-5.654,10.221c0.122,2.403,2.791,6.607,1.799,8.893
		c-0.578,1.331-3.598,0.687-4.3,2.292c-0.956,2.187,1.162,7.365,1.204,9.93c0.056,3.378-0.859,6.998-0.265,10.211
		c3.929-5.115,8.411-6.039,8.954-13.249c0.328-4.349-2.13-8.037-1.241-11.517c0.974-3.815,6.024-6.273,6.709-10.077
		c0.755-4.196-3.134-9.404-7.206-6.949"/>
	<path fill="#F7E1E1" d="M51.702,54.28c-0.47,7.795-2.278,15.228-5.401,22.257c-1.639-8.427-7.239-12.229-3.772-21.031
		c1.487-3.774,4.214-6.68,5.202-10.492c1.249-4.819-0.262-10.351,0.969-15.095c2.28-8.791,11.779-9.024,9.954,1.022
		c-0.839,4.625-4.702,8.954-5.648,14.156c-0.59,3.242,0.377,7.054-2.048,9.678"/>
</g>
<g>
	<path fill="#3C5D66" d="M88.942,120.567c-1.532,13.852,2.762,27.12,12.606,37.657c3.808-5.309,2.27-20.7,1.248-27.205"/>
</g>
<g>
	<path fill="#AF6938" d="M26.214,291.786c-5.834,4.406-19.519,10.841-11.379,20.805c-1.538,0.423-4.29,0.354-5.783-0.001
		c-1.815-6.176-7.776-5.312-4.925-13.471c2.749-7.864,14.419-12.34,21.424-6.01"/>
</g>
<g>
	<path fill="#FDFEFF" d="M83.149,101.285c-4.483,0-4.483,6.951,0,6.951C87.632,108.236,87.632,101.285,83.149,101.285z"/>
	<path fill="#FDFEFF" d="M266.202,103.602c-4.483,0-4.483,6.951,0,6.951C270.684,110.554,270.684,103.602,266.202,103.602z"/>
	<path fill="#FDFEFF" d="M264.546,12.242c-4.483,0-4.483,6.951,0,6.951C269.029,19.193,269.029,12.242,264.546,12.242z"/>
	<path fill="#EEEEEE" d="M247.295,1.966c-9.645-0.007-19.289-0.017-28.934-0.02c-7.905-0.002-15.809,0-23.714,0.006
		c-2.247,0.002-4.494,0.004-6.741,0.007c-9.862,0-19.724,0.04-29.587,0.074c-2.822,0.01-21.864,0.168-28.562,0.174
		c-9.89,0.008-56.642,0.156-58.218,0.836c-1.781,0.768-2.379,2.714-2.591,4.495c-0.231,1.95,0.133,13.217,0.434,13.813
		c0.045,0.089-2.88,3.837-3.928,6.484c-0.28,0.707-0.74,1.401-1.274,1.937c-1.361,1.366-3.403,0.899-5.148,1.087
		c-1.823,0.197-3.409,0.898-4.479,2.442c-1.559,2.249-1.884,5.673-0.341,8.012c2.272,3.443,7.07,3.961,10.199,1.394
		c0.883-0.724,1.737-1.695,2.341-2.665c0.631-1.014,1.188-2.362,2.32-2.922c0.194,6.518,0.199,13.076,0.34,19.617
		c0.103,4.832,0.235,9.664,0.299,14.498c0.023,1.705,0.043,3.41,0.063,5.115c0.086,7.638,0.097,15.277-0.077,22.913
		c-0.053,2.288-0.074,4.586-0.215,6.87c-0.135,2.207-0.606,4.449-0.208,6.653c2.198,0.161,3.682,1.545,5.394,2.814
		c1.054,0.782,1.987,1.974,3.13,2.592c1.226,0.663,2.89,0.231,4.219,0.183c1.712-0.063,3.497-0.003,5.211,0.052
		c0.53,0.017,1.223-0.119,1.759-0.003c0.382,0.083,0.18-0.737,0.21-0.819c0.43-1.188,0.054-3.178,1.269-3.53
		c9.247-2.686-2.624-2.587-4.693-2.651c-3.183-0.1-6.351-0.002-9.532,0.065c-0.323-4.469,0.35-9.017,0.498-13.488
		c0.156-4.736,0.14-9.476,0.083-14.215c-0.032-2.69-0.076-5.379-0.11-8.07c-0.116-9.33-0.313-18.663-0.532-27.991
		c-0.093-3.948-0.059-7.899-0.074-11.847c-0.016-3.712-0.444-7.548-0.005-11.24c0.354-2.971,3.185-4.61,3.945-7.416
		c0.282-1.042,0.307-2.864-1.109-3.069c-1.268-0.184-2.181,1.443-2.723,2.328c0.401-0.654,0.058-2.681,0.041-3.457
		c-0.022-1.052-0.079-2.101-0.169-3.149c65.6-1.215,131.212-0.953,196.82-0.941c-3.687,34.661-0.271,69.511-0.249,104.275
		c-49.821,0.256-100.343-0.997-150.163-1.013c-0.171,0-0.096,0.706-0.129,1.029c-0.107,1.042-0.063,2.093-0.177,3.135
		c-0.057,0.513-0.058,1.061-0.294,1.519c-0.222,0.43-0.349,1.072-0.11,1.397c0.247,0.339,2.58-0.163,3.028-0.165
		c1.277-0.005,107.771,0.992,116.56,1.037c8.653,0.044,17.304,0.055,25.953,0.335c4.147,0.134,9.537,0.65,11.545-3.923
		c2.19-4.987-0.636-59.003-0.706-65.526c-0.108-9.952,0.126-19.879,0.853-29.806c0.317-4.329,0.732-8.65,1.058-12.978
		c0.134-1.78,0.519-3.945-0.703-5.45C278.593,1.844,254.621,1.971,247.295,1.966z M70.277,27.213
		c-1.876,3.019-1.398,6.221-3.891,8.155c-0.264-0.911-0.694-1.766-1.296-2.492c2.415-1.305,3.158-4.543,4.382-7.017
		c0.829-1.674,2.443-2.652,4.068-3.532c0.068-0.019,0.128-0.057,0.195-0.079C72.584,23.883,71.354,25.479,70.277,27.213z"/>
	<path fill="#FDFEFF" d="M106.413,21.501c-1.792-0.293-3.757-0.157-5.287-0.111c-3.264,0.097-7.241-0.995-10.349,0.223
		c-6.159,2.415-3.795,11.847-3.846,16.804c-0.061,5.896-0.284,11.789-0.307,17.685c-0.01,2.503,2.822,4.194,4.987,3.106
		c2.901-1.458,1.974-5.381,2.033-7.948c0.017-0.736,0.208-8.912,0.279-8.912c2.449-0.012,6.119,0.857,8.074-0.972
		c2.955-2.766-0.126-6.012-3.281-6.004c-1.596,0.004-3.19,0.067-4.787,0.06c-0.11,0-0.465-4.229-0.444-4.581
		c0.121-2.097,0.87-2.942,3.024-3.095c2.158-0.153,4.37,0.355,6.518,0.506c2.213,0.156,9.953,0.002,7.545-4.263
		C109.706,22.461,108.139,21.782,106.413,21.501z"/>
	<path fill="#FDFEFF" d="M136.903,54.107c0.475-2.197-0.02-4.735-0.763-6.659c-1.324-3.433-3.787-6.193-6.264-8.84
		c2.632-1.034,3.241-5.463,2.702-7.744c-0.704-2.981-3.025-5.187-5.535-6.781c-2.859-1.815-6.856-3.868-10.355-3.537
		c-4.768,0.451-3.913,7.681-4.061,10.781c-0.255,5.347-0.304,10.59,0.01,15.938c0.177,3.01-0.248,13.437,5.446,10.904
		c3.119-1.387,2.02-5.179,1.717-7.881c-0.306-2.738-0.438-5.474-0.488-8.226c2.93,0.479,6.583,0.887,8.326,3.632
		c1.71,2.693,1.398,6.226,2.526,9.15c0.88,2.279,3.14,4.358,5.304,2.083C136.225,56.134,136.676,55.16,136.903,54.107z
		 M125.358,33.51c-0.495,0.401-1.158,0.664-1.703,0.851c-0.927,0.318-1.916,0.461-2.886,0.57c-0.109,0.012-1.439,0.117-1.44,0.141
		c0.077-2.311,0.212-4.622,0.383-6.929c1.775,0.604,3.662,1.38,5.031,2.706c0.371,0.36,0.742,0.851,0.943,1.33
		c0.101,0.241,0.094,0.522,0.184,0.751C125.744,33.15,125.566,33.342,125.358,33.51z"/>
	<path fill="#FDFEFF" d="M151.717,29.125c-0.032,0.272,6.871-0.213,7.567-0.614c1.751-1.01,2.265-3.686,0.942-5.205
		c-2.1-2.408-8.177-1.135-11.033-1.129c-2.705,0.005-5.41-0.005-8.115-0.005c-4.483,0-4.482,6.951,0,6.951h3.684
		c-1.011,7.275-1.041,14.52,0.24,21.757c-1.064,0.15-2.128,0.329-3.194,0.545c-4.391,0.895-2.527,7.595,1.848,6.703
		c3.934-0.801,12.555,0.144,12.934,0.119c0.016,0,0.029,0.005,0.046,0.005c0.039,0,0.07-0.01,0.107-0.011
		c0.061-0.007,0.123-0.008,0.183-0.018c4.126-0.301,4.083-6.746-0.136-6.908c-1.599-0.412-3.2-0.651-4.803-0.754
		c-1.423-7.036-1.407-14.263-0.274-21.344C151.717,29.186,151.713,29.157,151.717,29.125z"/>
	<path fill="#FDFEFF" d="M182.455,51.301c-3.895-0.256-7.794-0.312-11.695-0.326c-0.239-2.983-0.408-5.963-0.487-8.943
		c1.271,0,7.497,0.748,8.967-0.403c1.046-0.818,1.648-2.406,1.258-3.693c-0.881-2.913-9.034-2.911-10.225-2.84
		c0.01-0.728,0.196-7.336,0.403-7.341c3.706-0.083,7.409-0.269,11.117-0.288c4.482-0.023,4.484-6.975,0-6.951
		c-4.526,0.024-13.786,0.355-13.894,0.364c-0.114-0.01-0.219-0.034-0.341-0.034c-1.852,0-2.927,1.191-3.248,2.584
		c-0.104,0.276-0.918,18.816-0.56,27.853c0.104,2.623,0.258,6.638,3.808,6.638c0.072,0,0.136-0.009,0.206-0.013
		c0.044,0.001,0.081,0.013,0.126,0.013c4.858,0.001,9.715,0.012,14.565,0.331C186.932,58.547,186.904,51.593,182.455,51.301z"/>
	<path fill="#FDFEFF" d="M214.397,24.655c-0.14-4.472-7.091-4.486-6.951,0c0.192,6.112,0.285,12.226,0.395,18.341
		c-2.277-3.567-11.198-20.011-12.594-20.986c-1.154-0.805-3.14-0.453-4.156,0.516c-2.148,2.048-0.603,23.908-0.858,31.59
		c-0.15,4.485,6.802,4.471,6.951,0c0.16-4.8-0.016-9.629,0.236-14.423c1.591,2.525,11.83,18.231,14.141,18.383
		c4.146,0.272,3.429-4.597,3.375-7.196C214.757,42.139,214.671,33.396,214.397,24.655z"/>
	<path fill="#FDFEFF" d="M240.157,38.047c-0.883-4.652-3.462-8.804-6.879-12.002c-2.476-2.316-7.064-6.587-10.833-5.841
		c-3.378,0.668-3.023,4.506-2.868,6.998c0.226,3.64,0.397,17.912,0.227,21.427c-0.128,2.667,0.022,5.873,2.863,7.083
		c3.726,1.588,8.236-0.144,11.131-2.508c2.773-2.266,5.316-5.269,6.185-8.813C240.469,42.412,240.538,40.056,240.157,38.047z
		 M227.106,49.23c-0.047-0.016-0.093-0.03-0.138-0.043c-0.012-6.529-0.079-13.056-0.354-19.577
		C233.472,35.205,236.547,43.965,227.106,49.23z"/>
	<path fill="#FDFEFF" d="M145.209,80.183c-1.993-5.567-7.413-9.68-13.313-10.04c-3.237-0.198-6.833-1.006-9.01,2.047
		c-0.923,1.294-1.565,2.816-2.196,4.267c-1.406,3.235-2.073,6.573-2.063,10.102c0.006,1.905,0.248,3.825,0.697,5.677
		c1.896,7.81,9.267,10.729,16.384,7.755C143.717,96.645,148.234,88.633,145.209,80.183z M131.992,94.003
		c-8.641,2.979-6.688-11.32-3.898-16.836c4.657-1.057,8.999,0.916,10.694,5.653C140.702,88.164,136.803,92.344,131.992,94.003z"/>
	<path fill="#FDFEFF" d="M173.021,71.99c-0.176-4.467-7.127-4.485-6.951,0c0.218,5.552,0.533,11.1,0.829,16.65
		c-3.842-4.998-7.238-10.295-9.911-16.086c-1.47-3.185-6.6-1.565-6.477,1.755c0.304,8.163,0.358,16.333,0.662,24.496
		c0.166,4.469,7.118,4.485,6.951,0c-0.134-3.614-0.218-7.228-0.298-10.843c3.195,4.669,6.785,9.074,10.585,13.301
		c2.011,2.237,6.054,0.506,5.934-2.458C173.98,89.86,173.372,80.932,173.021,71.99z"/>
	<path fill="#FDFEFF" d="M197.088,92.141c-3.961,0.896-8.091,0.308-12.097-0.314c-0.602-6.647-1.043-13.353,0.484-19.906
		c1.016-4.361-5.686-6.214-6.703-1.848c-1.91,8.2-1.218,16.459-0.455,24.757c0.129,1.407,0.951,3.115,2.552,3.352
		c6.007,0.887,12.047,2.023,18.068,0.662C203.308,97.856,201.454,91.153,197.088,92.141z"/>
	<path fill="#FDFEFF" d="M213.528,66.431c-1.782,4.252-4.793,7.862-7.419,11.664c-3.653-3.308-6.572-7.391-8.387-11.996
		c-1.625-4.12-8.349-2.328-6.703,1.848c2.86,7.255,7.424,13.131,13.587,17.832c0.167,4.007,0.192,8.016,0.192,12.028
		c0.001,4.483,6.952,4.483,6.951,0c-0.001-4.969-0.025-9.935-0.331-14.896c-0.006-0.094-0.031-0.176-0.043-0.266
		c3.036-4.761,6.646-9.09,8.856-14.367C221.963,64.146,215.234,62.362,213.528,66.431z"/>
	<path fill="#FDFEFF" d="M255.68,37.703c-3.821-0.557-5.585-3.32-5.752-7.08c-0.101-2.28,0.932-4.02,3.275-3.013
		c2.514,1.079,2.864,2.913,4.092,5.084c0.694,1.227,2.141,1.83,3.558,1.511c3.167-0.712,3.081-4.198,2.044-6.496
		c-1.167-2.587-3.165-4.995-5.713-6.302c-1.45-0.744-3.233-1.282-4.859-1.439c-5.881-0.569-9.036,5.835-9.35,10.654
		c-0.334,5.117,2.97,10.764,7.567,12.922c1.907,0.895,5.482,0.46,6.335,2.92c1.311,3.782-5.912,5.541-7.731,2.665
		c-0.778-1.229-1.378-2.847-3.029-3.107c-1.857-0.293-2.993,1.63-3.453,3.159c-0.752,2.501,1.287,4.898,3.079,6.417
		c1.389,1.178,3.131,1.715,4.916,1.917c3.396,0.384,7.742,0.055,10.223-2.587c3.865-4.115,4.139-12.096-0.812-15.478
		C258.855,38.621,257.142,37.917,255.68,37.703z"/>
</g>
<g>
	<path fill="#222222" d="M69.135,38.173c-0.204-0.135-0.652-0.233-0.877-0.172c-0.32,0.088-0.542,0.448-0.715,0.694
		c-0.378,0.539-0.636,1.108-0.989,1.664c-0.134,0.211-0.274,0.418-0.417,0.624c-0.069,0.098-0.138,0.196-0.208,0.292
		c-0.04,0.056-0.12,0.218-0.181,0.244c1.136-0.485,2.317-0.67,3.41-0.347C69.204,41.187,69.207,38.221,69.135,38.173z"/>
	<path fill="#222222" d="M126.345,102.288c-1.749,1.086-3.217,2.555-4.965,3.642c-0.645,0.401-0.989,0.951-1.112,1.532
		c-1.32-0.863-3.172-1.348-4.594-0.526c-0.65,0.376-1.064,0.887-1.298,1.467c-5.682-3.349-16.873-5.531-19.113,2.622
		c-3.376,0.303-5.444,2.905-6.647,5.797c-0.687,1.651-3.089,7.688-2.079,9.371c-0.514-0.857-1.528-1.611-2.41-2.04
		c-1.211-0.589-2.501-0.776-3.836-0.708c-0.325,0.017-0.742-0.019-1.047,0.099c0.272-0.105-0.354-2.219-0.408-2.487
		c-0.198-0.965-0.55-1.874-1.085-2.704c-1.312-2.035-3.532-3.634-5.676-4.701c-2.253-1.121-4.698-1.172-7.056-0.376
		c-0.675,0.227-1.324,0.525-1.995,0.76c-0.887,0.31-1.719,0.317-2.433-0.357c-1.008-0.952-1.449-2.292-1.77-3.603
		c-0.316-1.29-0.488-2.616-0.682-3.928c-0.088-0.596-0.18-1.195-0.312-1.783c-1.002-4.485-3.363-7.609-7.282-8.934
		c0.43-0.609,0.757-1.268,1.024-1.979c0.201-0.118,0.38-0.288,0.52-0.519c1.733-2.869,3.214-5.875,4.934-8.751
		c1.937-3.237,5.007-5.508,7.22-8.521c3.808-5.186,3.06-9.086,1.308-14.95c-0.949-3.178,1.36-6.047,3.834-8.873
		c0.002-0.386-0.019-3.331-0.034-3.842c-2.242,2.918-5.577,5.906-6.361,7.241c-0.818,1.393-0.939,3.395-0.606,4.929
		c1.016,4.668,3.027,8.107,0.185,12.764c-1.888,3.093-4.972,5.423-7.165,8.309c-2.031,2.672-3.439,5.818-5.073,8.767
		c-1.099-0.737-2.255-1.377-3.416-2.047c-5.22-3.011-0.802-6.258,0.44-9.436c2.114-5.407-2.993-8.582-4.719-13.219
		c-2.658-7.144,5.207-14.763,6.951-21.386c0.992-3.765,0.905-8.033,1.534-11.875c0.221-1.35,0.343-2.704,0.576-4.056
		c0.282-2.555,2.186-3.602,5.712-3.141c0.171,0.022,0.394,1.219,0.428,1.384c0.096,0.477,0.142,0.956,0.158,1.442
		c0.016,0.48,0.029,0.995-0.055,1.47c-0.068,0.382-0.846,1.917-0.917,2.2c2.266-0.785,2.684-0.341,3.513-0.54
		c0.282-0.068,0.339-2.326,0.314-2.914c-0.026-0.61-0.078-1.219-0.189-1.82c-0.199-1.078-0.599-2.111-1.239-3.006
		c-1.157-1.618-3.042-2.817-5.074-2.24c-0.624,0.177-1.206,0.479-1.757,0.814c-0.6,0.366-1.328,0.771-1.829,1.265
		c-2.685,2.646-2.386,8.088-3.12,11.451c-0.624,2.857-0.483,5.886-0.928,8.774c-0.524,3.404-2.817,6.626-4.484,9.575
		c-1.866,3.301-3.658,7.869-2.829,11.715c0.976,4.532,7.144,9.578,4.632,14.018c-0.687,1.215-1.534,2.342-2.152,3.511
		c-0.266,0.101-0.526,0.275-0.762,0.556c-0.041,0.049-0.084,0.096-0.125,0.146c-0.07,0.06-0.139,0.112-0.206,0.185
		c-6.803,7.466-14.828,13.59-22.02,20.65c-7.284,7.15-12.411,15.656-14.903,25.576c-3.064,12.199-2.041,25.057-0.288,37.362
		c1.369,9.609,3.259,19.166,5.372,28.639c1.274,3.417,2.22,6.976,3.305,10.486c0.041,0.13,0.063,0.255,0.101,0.388
		c0.027,0.072,0.048,0.144,0.075,0.215c6.047,28.643,13.856,56.865,20.915,85.269c-7.543-5.765-20.012-5.857-27.206,0.543
		c-7.413,6.596-5.676,19.336,3.614,23.073c5.207,2.094,12.494,0.597,17.44-1.477c2.279-0.955,4.028-2.464,5.878-4.064
		c3.946-3.412,3.579,0.599,4.96,3.411c2.136,4.347,9.5,3.864,12.534,0.828c0.572-0.572,1.014-1.293,1.355-2.114
		c0.065,0.175,0.122,0.357,0.19,0.528c1.698,4.271,8.15,4.556,11.881,3.315c1.871-0.623,2.805-2.164,3.429-3.909
		c0.55-1.54,0.107-3.414,2.482-2.823c1.676,0.418,3.249,1.243,4.815,1.947c5.338,2.4,11.894,4.262,17.533,1.618
		c9.507-4.458,6.399-16.754-0.647-22.036c-6.108-4.579-16.664-6.186-23.143-1.499c-0.427-8.941,0.861-18.211,1.726-27.101
		c0.897-9.217,1.954-18.418,2.749-27.646c0.432-5.014,0.789-10.034,1.008-15.062c0.222-5.117,0.193-10.211,0.218-15.329
		c0.004-0.699,0.01-1.399-0.001-2.098c-0.023-1.452,0.374-2.926,0.598-4.355c0.242-1.549,0.504-3.095,0.779-4.64
		c0.156-0.876,0.316-1.751,0.479-2.626c0.573-3.078,1.185-6.15,1.865-9.207c0.285-1.282,0.51-2.578,0.818-3.855
		c0.095-0.393,0.08-0.849,0.481-1.063c0.293-0.156,0.718-0.142,1.033-0.072c0.701,0.153,4.79-0.262,6.142-0.606
		c1.377-0.351,2.777-0.613,4.152-0.971c0.783-0.205,1.557-0.44,2.31-0.736c2.152-0.848,4.033-2.147,5.384-4.045
		c1.25-1.758,2.025-3.692,2.812-5.684c0.154-0.389,0.309-0.777,0.457-1.168c1.883-5.003,3.772-8.455,3.64-14.037
		c-0.125-5.245-1.222-10.614-0.242-15.832c0.015-0.081,0.017-0.159,0.021-0.236c0.476-0.312,0.904-0.701,1.249-1.155
		c0.722-0.948,1.222-2.022,1.531-3.148c0.613,0.536,1.321,0.935,2.175,1.038c1.59,0.192,2.794-0.886,3.578-2.152
		c0.427-0.691,0.734-1.455,0.937-2.251c0.192,0.113,0.395,0.214,0.623,0.282c1.279,0.387,2.368-0.573,2.986-1.574
		c0.292-0.473,0.489-0.972,0.706-1.484c0.109-0.257,0.195-0.509,0.252-0.784c0.048-0.228,0.046-0.634,0.218-0.813
		c0.249-0.258,0.835,0.123,1.162,0.132c0.437,0.013,0.895-0.043,1.208-0.379c0.562-0.605,0.675-1.527,0.865-2.297
		c0.28-1.137,0.542-2.289,0.571-3.466c0.027-1.08,0.168-2.334-0.107-3.385c-0.037-0.141-0.073-0.322-0.232-0.364
		c0.931-0.001,5.764-3.721,6.242-4.018C131.565,104.888,129.073,100.592,126.345,102.288z M90.088,122.902
		c0.741,0.926,1.665,1.797,2.694,2.773c0.608,0.575,1.298,0.769,1.945,0.969c-1.853,1.051-3.453,2.485-5.236,3.652
		C89.366,127.857,89.402,125.186,90.088,122.902z M78.22,127.702c1.017-0.218,2.087-0.301,3.246-0.185
		c-3.528,4.082-8.314,7.841-13.6,9.278c-0.846,0.23-3.103,0.942-3.905,0.268c-1.029-0.866,1.534-3.035,2.327-3.584
		c1.299-0.901,2.78-1.473,4.174-2.204C73.117,129.882,75.473,128.293,78.22,127.702z M51.595,100.325
		c3.68,3.136,2.909,10.42,4.717,14.608c3.584,8.296,9.546-0.107,14.843,1.697c2.062,0.702,3.855,2.913,4.025,5.11
		c0.248,3.214-2.5,4.168-4.944,5.281c-1.805,0.822-3.656,1.575-5.41,2.502c-6.363,3.363-7.062,10.335-4.356,16.404
		c1.161,2.603,3.524,5.306,4.176,8.052c1.01,4.258-5.416,0.967-7.625,2.181c-3.164,1.738-3.239,8.411-6.838,8.814
		c-5.951,0.666-7.505-12.1-14.521-8.799c-1.623,0.764-5.159,5.395-5.255,0.804c-0.049-2.319,0.609-4.603,0.608-6.924
		c-0.002-5.571-4.584-6.783-8.904-7.998c-5.661-1.594,1.249-7.7,2.956-9.41c1.447-1.45,1.844-3.413,1.524-5.343
		c-0.452-2.724-3.331-3.965-3.59-6.986c-0.451-5.249,7.528-5.705,11.033-5.71c4.495-0.007,11.498-0.461,11.498-6.524
		c0-3.417-2.365-5.401-5.153-5.92C43.249,98.853,47.401,96.75,51.595,100.325z M47.119,309.649
		c-1.043,1.513-2.554,1.979-4.533,1.398c-0.091-0.713-0.132-1.409-0.254-2.123c-0.28-1.626-1.595-3.146-2.58-4.404
		c-4.507-5.758-12.305,3.793-16.353,5.195c-4.042,1.399-9.755,2.021-13.636-0.123c-3.825-2.113-3.904-7.993-2.315-11.437
		c1.961-4.252,8.185-5.554,12.378-5.917c4.937-0.426,9.317,1.349,12.497,5.005c2.991,5.058,9.107,5.842,14.771,3.775
		c0.057-0.021,0.092-0.06,0.141-0.086c0.028-0.009,0.056-0.018,0.083-0.027c0.139,0.085,0.3,0.148,0.504,0.148
		c0.06,0,0.101-0.024,0.155-0.032C47.952,303.923,47.821,306.827,47.119,309.649z M49.983,233.621
		c2.233-0.685,4.347-1.897,5.865-3.325c1.87-1.758-0.944-4.562-2.808-2.808c-2.414,2.27-8.165,4.637-10.121,0.733
		c-1.148-2.29-4.574-0.278-3.43,2.005c1.227,2.449,3.274,3.619,5.572,3.914c1.798,19.851,2,39.813,4,59.647
		c-0.018,0.033-0.029,0.07-0.045,0.104c-0.203,0.274-0.345,0.58-0.416,0.899c-2.607,1.734-5.291,2.279-7.969,1.28
		c-7.495-30.746-16.11-61.224-22.617-92.203c11.807,6.464,25.754,7.951,38.828,3.833c3.446-1.085,6.709-2.695,10.13-3.87
		c0.424-0.146,0.829-0.311,1.223-0.488c0.885,29.729-5.665,59.06-5.806,88.775c-0.002,0.331,0.055,0.623,0.134,0.897
		c-2.458,3.181-5.388,3.26-8.458,1.205C52.005,274.07,51.839,253.787,49.983,233.621z M69.166,295.687
		c3.269-7.245,15.294-5.106,20.211-0.856c2.608,2.254,4.509,6.039,3.856,9.525c-0.953,5.087-8.327,4.466-11.937,3.58
		c-4.804-1.179-14.681-8.778-17.939-1.422c-0.542,1.224-0.11,3.971-1.573,4.458c-1.71,0.569-4.796,0.275-5.399-1.606
		c-0.865-2.698-1.365-5.672-1.607-8.572c3.333,1.18,6.429,0.549,9.137-1.089C65.278,299.04,68.79,296.522,69.166,295.687z
		 M71.362,192.401c-0.23,0.764-0.501,1.523-0.829,2.283c-0.327,0.756-0.555,1.469-1.129,2.069c-1.063,1.11-2.213,2.158-3.51,2.986
		c-0.848,0.541-1.781,0.899-2.721,1.243c-1.697,0.622-3.358,1.337-5.038,2.002c-0.779,0.308-1.56,0.607-2.349,0.886
		c-2.301,0.813-4.745,1.43-7.152,1.821c-2.439,0.397-4.916,0.509-7.383,0.444c-3.901-0.102-7.758-0.679-11.507-1.763
		c-1.059-0.306-2.105-0.653-3.139-1.035c-2.099-0.775-4.124-1.731-6.115-2.75c-0.599-0.307-1.197-0.616-1.797-0.921
		c-1.579-0.799-3.304-1.72-4.54-3.012c-0.649-0.678-0.945-1.557-1.228-2.431c-0.333-1.027-0.69-2.047-0.958-3.093
		c-0.548-2.138-0.944-4.312-1.385-6.473c-0.432-2.12-0.908-4.231-1.356-6.349c-0.451-2.132-0.847-4.274-1.198-6.425
		c-0.353-2.164-0.676-4.333-0.976-6.505c-0.294-2.136-0.552-4.278-0.746-6.426c-0.196-2.165-0.332-4.335-0.41-6.507
		c-0.076-2.135-0.098-4.271-0.056-6.407c0.043-2.135,0.15-4.27,0.354-6.396c0.204-2.127,0.514-4.24,0.872-6.347
		c0.085-0.504,0.163-1.011,0.261-1.512c0.286-1.465,0.802-2.933,1.239-4.359c0.435-1.417,0.913-2.822,1.464-4.198
		c1.069-2.667,2.43-5.202,4.055-7.57c1.602-2.337,3.427-4.512,5.334-6.604c2.578-2.827,5.303-5.516,8.1-8.126
		c0.824-0.769,1.654-1.529,2.492-2.283c0.858-0.772,3.685-3.337,4.281-3.861c1.327-1.167,5.274-4.875,5.541-4.994
		c0.285-0.127,0.436-0.322,0.646-0.551c0.473-0.515,0.947-1.031,1.408-1.557c1.071,1.663,2.998,2.737,4.724,3.6
		c0.362,0.182,0.928,0.292,1.152,0.667c0.167,0.279-0.066,0.565-0.195,0.812c-0.373,0.717-1.006,1.115-1.055,1.993
		c-0.592-0.034-1.227,0.129-1.813,0.209c-0.405,0.056-0.828,0.087-1.226,0.184c-0.957,0.231-1.87,0.612-2.707,1.132
		c-1.683,1.046-3.009,2.565-4.197,4.128c-0.977,1.286-2.506,3.073-2.489,4.797c0.004,0.408,0.189,0.844,0.509,1.11
		c1.2,0.998,3.268-0.07,4.599-0.18c0.595-0.05,1.268,0.034,1.57,0.621c0.306,0.594,0.122,1.362-0.154,1.929
		c-0.746,1.529-2.324,1.967-3.905,1.963c-3.385-0.009-6.746-0.162-10.03,0.818c-0.838,0.25-1.66,0.563-2.44,0.961
		c-5.043,2.576-6.597,8.071-3.623,12.939c0.6,0.982,1.428,1.816,2.052,2.787c0.815,1.268-2.572,3.412-3.447,4.163
		c-1.539,1.321-3.692,6.034-3.123,8.093c0.622,2.252,1.635,3.839,3.716,4.983c2.741,1.507,6.752,0.502,7.232,4.664
		c0.476,4.121-1.982,8.181,0.966,11.836c1.021,1.265,3.71,1.601,5.119,1.058c0.926-0.357,1.465-0.663,2.215-1.312
		c0.365-0.44,0.735-0.877,1.108-1.311c1.711-2.006,3.926,1.823,4.553,2.54c3.013,3.444,9.049,9.151,13.615,4.297
		c2.233-2.374,3.095-7.994,6.954-7.153c2.043,0.445,3.817,0.443,5.337-0.737c-0.072,0.056,1.319,2.486,1.446,2.721
		c0.499,0.92,1.003,1.835,1.515,2.747c1.581,2.812,3.505,5.374,5.137,8.145c0.961,1.634-0.429,4.087-0.762,5.803
		c-0.441,2.273-0.99,4.521-1.42,6.797C72.376,187.872,72.042,190.15,71.362,192.401z M97.415,161.783
		c-0.071,0.355-0.165,0.706-0.281,1.053c-0.274,0.82-0.644,1.607-1.018,2.385c-0.433,0.901-0.866,1.797-1.58,2.513
		c-0.922,0.926-2.127,1.535-3.292,2.095c-2.602,1.251-5.322,1.865-8.197,2.053c-1.415,0.092-2.859,0.067-4.265-0.141
		c-0.06-0.042-0.124-0.074-0.188-0.109c-6.168-9.74-11.456-19.952-15.845-30.612c3.169,0.384,6.838-1.03,9.55-1.994
		c4.894-1.74,7.852-5.252,11.551-8.403c0.12,0.246,0.232,0.495,0.35,0.742c0.021,0.13,0.053,0.264,0.103,0.404
		c1.443,3.986,3.06,7.914,4.867,11.749c1.812,3.843,3.827,7.589,6.071,11.198c0.782,1.257,1.668,2.384,2.077,3.837
		C97.622,159.621,97.628,160.715,97.415,161.783z M101.097,156.579c-0.057-0.171-0.132-0.344-0.251-0.519
		c-0.237-0.349-0.46-0.706-0.692-1.058c-0.337-0.717-9.079-16.835-8.564-15.749c0.256-0.103,2.775-1.926,2.812-1.963
		c0.5-0.366,1.016-0.714,1.513-1.083c1.316-0.976,2.462-2.068,3.309-3.464c0.162-0.171,0.306-0.356,0.426-0.557
		c0.097,0.076,0.194,0.154,0.292,0.227c0.576,0.435,1.215,0.658,1.867,0.739C101.058,140.23,104,149.956,101.097,156.579z
		 M105.07,125.999c-0.121,1.555-0.723,3.715-2.293,4.132c-1.536,0.408-2.844-1.533-3.354-2.71c-0.906-2.09-0.133-4.363,0.566-6.395
		c0.113-0.329,0.142-0.774,0.383-1.041c0.218-0.24,0.587-0.255,0.881-0.337c0.27-0.075,0.551-0.118,0.83-0.078
		c0.61,0.087,1.065,0.546,1.414,1.021c1.004,1.362,1.6,3.145,1.595,4.835C105.094,125.603,105.086,125.796,105.07,125.999z
		 M103.234,116.857c-0.718-0.267-1.493-0.351-2.306-0.162c-1.137,0.264-2.34,0.932-3.054,1.862
		c-0.713,0.929-1.085,2.099-1.352,3.225c-0.162,0.685-0.278,1.379-0.392,2.073c-0.305-0.047-0.656-0.28-0.944-0.405
		c-0.287-0.125-0.587-0.234-0.865-0.379c-0.563-0.293-1.106-0.631-1.587-1.049c-0.918-0.797-1.551-1.882-1.67-3.103
		c-0.246-2.515,1.652-4.818,4.195-4.932c0.763-0.034,1.598,0.084,2.329,0.301c0.666,0.198,1.269,0.539,1.92,0.776
		c0.994,0.36,2.035-0.083,2.029-1.261c-0.003-0.442-0.275-1.132-0.659-1.39c-0.779-0.524-1.632-0.897-2.511-1.135
		c2.008-4.573,8.845-3.07,13.084-1.056c-0.345,0.278-0.635,0.623-0.835,1.006c-0.545,1.039-0.54,2.249-0.343,3.407
		c-1.143-0.706-2.432-1.136-3.739-1.023C104.458,113.791,103.524,115.187,103.234,116.857z M111.479,123.664
		c-0.144,0.777-0.429,1.926-1.106,2.43c-0.755,0.562-1.506-1.024-1.756-1.501c-0.306-0.583-0.635-1.192-0.875-1.802
		c-0.322-0.818-0.438-1.695-0.912-2.451c-0.576-0.92-0.951-1.823-0.785-2.93c0.141-0.932,1.008-0.951,1.739-0.701
		c0.933,0.319,1.706,0.971,2.38,1.672C111.578,119.85,111.841,121.715,111.479,123.664z M115.79,121.052
		c-0.064,0.197-0.148,0.411-0.266,0.577c-0.177-0.342-0.412-0.649-0.609-0.982c-0.202-0.341-0.406-0.679-0.616-1.015
		c-0.456-0.729-0.959-1.426-1.419-2.152c-0.856-1.351-1.401-2.952-0.267-4.303c1.635-1.946,3.472,1.786,3.738,3.041
		C116.657,117.66,116.262,119.595,115.79,121.052z M120.15,114.316c-0.017,0.179-0.039,0.358-0.064,0.534
		c-0.103,0.723-0.275,1.432-0.453,2.14c-0.375-0.086-0.272-0.454-0.293-0.745c-0.021-0.296-0.074-0.61-0.126-0.902
		c-0.109-0.617-0.309-1.248-0.609-1.798c-0.213-0.391-0.535-0.714-0.697-1.133c-0.167-0.429-0.212-0.893-0.39-1.32
		c-0.133-0.317-0.35-0.602-0.453-0.93c-0.118-0.376,0.099-0.707,0.497-0.706c0.421,0.001,0.876,0.319,1.21,0.547
		c0.441,0.302,0.754,0.756,0.973,1.236C120.185,112.201,120.248,113.274,120.15,114.316z"/>
	<path fill="#222222" d="M58.708,44.222c-0.015,0.036-0.927,1.919-1.18,2.853c-0.067,0.247-0.122,0.498-0.167,0.75
		c-0.332,1.875,0.258,4.025,0.601,5.858c0.07,0.472,0.147,0.944,0.211,1.417c0.086,0.637,0.217,1.262,0.154,1.91
		c-0.046,0.477-0.312,0.949-0.707,1.233c-0.636,0.457-1.724,0.897-2.502,0.588c-0.718-0.285-1.143-1.255-1.426-1.912
		c-0.186-0.431-0.304-0.887-0.367-1.352c-0.128-0.951-0.076-1.936,0.064-2.883c0.078-0.526,0.186-1.051,0.313-1.567
		c0.651-2.645,1.516-5.212,2.18-7.852c-0.54-0.429-0.98-0.972-1.342-1.565c-0.265-0.435-0.488-0.893-0.72-1.346
		c-0.099-0.195-0.235-0.373-0.253-0.598c0.012,0.15-0.079,0.359-0.112,0.506c-0.045,0.204-0.088,0.407-0.132,0.611
		c-0.087,0.409-0.174,0.819-0.259,1.228c-0.172,0.818-0.343,1.637-0.525,2.453c-0.099,0.445-0.203,0.89-0.312,1.333
		c-1.278,5.184-3.34,9.182-0.131,14.044c1.447,2.192,5.298,4.159,7.429,1.559c3.58-4.367,0.021-9.002,0.894-13.932
		c0.187-1.053,0.741-2.018,1.376-2.862c0.107-0.143,0.206-0.295,0.339-0.415c0.111-0.1,0.101-0.299,0.207-0.394
		C62.16,43.832,59.025,44.264,58.708,44.222z"/>
</g>
</svg>
