<?xml version="1.0" encoding="utf-8"?>
<!-- Generator: Adobe Illustrator 17.0.0, SVG Export Plug-In . SVG Version: 6.00 Build 0)  -->
<!DOCTYPE svg PUBLIC "-//W3C//DTD SVG 1.1//EN" "http://www.w3.org/Graphics/SVG/1.1/DTD/svg11.dtd">
<svg version="1.1" id="Слой_1" xmlns="http://www.w3.org/2000/svg" xmlns:xlink="http://www.w3.org/1999/xlink" x="0px" y="0px"
	 width="188.36px" height="211.87px" viewBox="0 0 188.36 211.87" enable-background="new 0 0 188.36 211.87" xml:space="preserve">
<g id="Слой_35">
	<path fill="#323538" d="M160.551,130.217c-1.531-2.122-3.868-2.924-6.381-1.967c-0.07,0.101-1.512,1.788-1.497,2.54
		c0.005,0.247-0.131,0.492-0.329,0.635c-0.109,0.12-0.247,0.224-0.435,0.293c-0.781,0.286-1.35-0.306-1.433-0.942
		c-5.507-3.782-10.004,0.367-10.179,0.365c-1.169,1.539-3.104,5.263-3.187,5.511c-0.347,1.034-2.765,11.122-2.514,13.066
		c0.414,0.641-2.446,2.357-3.003,2.492c-0.687,0.564-2.955,4.404-3.009,4.494c-0.435,0.727-1.309,1.018-2.022,0.457
		c-0.112-0.089-3.635-1.048-4.372-0.975c-0.055,0.109-0.99,1.147-1.029,1.212c0.381,2.083,2.865,1.518,4.661,1.456
		c1.328-0.046,1.875,1.548,0.867,2.371c-0.029,0.023,0.295,1.879,0.632,2.649c0.358,0.002,12.936,11.458,13.511,12.138
		c0.183,0.216,17.895,19.24,19.016,20.532c0.135,0.111,0.538,0.867,0.52,1.087c0.011,0.488-0.233,0.972-0.83,1.19
		c-0.508,0.186-1.618-0.211-1.713-0.124c0.101,0.091,1.747,1.701,2.337,2.525c0.244,0.341,0.453,0.7,0.646,1.068
		c0.713-0.22,1.259-0.596,1.826-1.084c0.451-0.388,1.094-0.602,1.538-0.247c0.24,0.094,1.141,0.853,1.12,0.855
		c0.155-0.015,4.151-2.051,4.717-2.788c0.582-0.757,1.603-1.985,1.214-3.011c-0.089-0.236-2.532-2.204-2.769-2.107
		c-0.907,0.368-1.423-1.057-0.52-1.423c0.288-0.117,1.065-0.974,1.284-1.132c-1.752-2.595-12.127-10.957-14.229-13.116
		c-2.419-2.484-4.121-5.443-2.643-8.786c-0.334-0.97-0.421-1.968,0.034-2.798c-0.102-0.303-3.78-3.091-4.267-3.929
		c-0.9-0.314-1.204-1.804-0.055-2.224c0.168-0.061,3.015-1.624,4.509-2.117c4.641-1.532-0.533-5.882-1.895-7.831
		c-0.116-0.167-3.365-1.366-3.787-1.162c-0.266,0.128-1.251,1.694-1.208,1.955c0.039,0.238,0.786,0.88,1.032,1.022
		c0.312,0.181,1.706,0.546,2.047,0.646c0.349,0.102,1.779,0.53,2.067,0.798c0.176,0.164,0.281,0.373,0.379,0.59
		c0.293,0.239,0.34,1.783,0.027,2.078c-0.338,0.319-3.481,2.463-4.074,2.897c-0.271,0.198-0.555,0.386-0.863,0.522
		c-0.172,0.076-0.411,0.181-0.604,0.133c-0.395-0.098-0.019-0.656,0.1-0.835c0.344-0.52,1.109-0.886,1.106-1.51
		c-0.002-0.556,2.473-2.684,2.607-2.696c0.139-0.013-1.589-1.137-2.378-1.031c-0.928,0.124-1.914,0.591-2.552,1.282
		c-0.352,0.381-0.601,0.838-0.92,1.244c-0.209,0.266-0.511,0.573-0.872,0.391c-0.37-0.187-0.591-0.661-0.732-1.026
		c-0.188-0.486-0.306-2.194-0.213-2.541c0.343-1.282,1.124-2.508,1.924-3.55c0.296-0.385,4.86-3.61,5.116-3.789
		c2.534-1.774,7.802-2.607,7.162-6.551c-0.044-0.272-0.567-1.659-1.021-2.05c-1.16-0.996,0.352-2.819,1.51-1.825
		c0.233,0.199,0.801,0.412,0.969,0.351c0.038-0.014,3.312-1.007,4.035-2.146C162.231,132.641,161.17,131.074,160.551,130.217z
		 M159.249,132.828c-0.711,1.203-2.408,1.121-3.499,0.556c-1.084-0.561-1.962-1.94-0.693-2.9c0.071-0.054,0.696-0.678,1.09-0.824
		c0.99-0.367,2.235,0.071,2.85,0.924C159.42,131.169,159.644,132.161,159.249,132.828z"/>
</g>
<g id="Слой_31">
	<path fill="#EEEEEE" d="M145.8,130.424c-0.117-0.121-0.829,0.009-0.893,0.093c-4.739,2.219-8.07,8.057-8.183,13.153
		c-0.033,1.486-0.163,9.728,3.248,7.424c1.144-0.773,1.832-2.34,2.607-3.43c1.304-1.835,3.014-2.992,5.135-3.704
		c1.815-0.61,5.344-0.98,6.18-3.104C155.533,136.688,149.86,131.003,145.8,130.424z M141.367,136.213
		c0.269-0.022,0.539-0.028,0.809-0.038c-0.029,0.454-0.057,0.909-0.086,1.363c-0.365-0.022-0.729-0.046-1.093-0.082
		C141.122,137.041,141.243,136.627,141.367,136.213z M140.005,140.828c0.227-0.802,0.458-1.602,0.699-2.4
		c0.439,0.044,0.878,0.076,1.317,0.103c-0.054,0.797-0.113,1.593-0.177,2.388C141.23,140.892,140.617,140.875,140.005,140.828z
		 M141.756,141.91c-0.029,0.328-0.054,0.656-0.087,0.984c-0.719-0.046-1.428-0.193-2.138-0.333c0.066-0.252,0.131-0.505,0.199-0.755
		C140.404,141.859,141.08,141.882,141.756,141.91z M140.089,136.26c0.046,0.024,0.195,0.042,0.214,0.043
		c-0.107,0.355-0.211,0.711-0.318,1.066c-0.008,0.001-0.018,0.001-0.026,0.002c-0.044-0.017-0.377-0.054-0.495-0.06
		C139.658,136.955,139.866,136.604,140.089,136.26z M138.997,138.244c0.048,0.022,0.459,0.06,0.605,0.07
		c0.027,0.013,0.065,0.002,0.095,0.009c-0.242,0.803-0.474,1.608-0.701,2.416c-0.194-0.018-0.75-0.16-0.858-0.163
		C138.349,139.791,138.643,139.009,138.997,138.244z M137.909,141.58c0.249,0.135,0.538,0.079,0.806,0.139
		c-0.022,0.211-0.099,0.478-0.175,0.675c-0.251-0.003-0.495-0.076-0.745-0.09C137.802,142.224,137.939,141.596,137.909,141.58z
		 M150.573,142.049c-1.655,0.632-3.455,0.863-5.028,1.715c-2.271,1.23-3.625,3.031-5.026,5.154c-0.374,0.566-1.476,2.27-2.092,1.053
		c-0.317-0.626-0.404-1.373-0.504-2.058c-0.224-1.521-0.228-3.082-0.195-4.617c0.196,0.015,0.388,0.051,0.583,0.078
		c0.027,0.004-0.763,1.928,0.151,2.033c0.383,0.044,0.496-0.231,0.547-0.554c0.025-0.155,0.257-1.335,0.293-1.328
		c0.749,0.14,1.496,0.293,2.255,0.352c-0.067,0.602-0.131,1.203-0.214,1.803c-0.088,0.638,0.896,0.816,0.985,0.178
		c0.091-0.655,0.162-1.312,0.234-1.969c0.077-0.009,0.144-0.028,0.226-0.066c0.523-0.191,0.337-0.914-0.113-0.966
		c0.029-0.298,0.052-0.597,0.079-0.897c1.042,0.025,2.086,0.02,3.13-0.02c0.647-0.026,0.56-1.021-0.081-0.997
		c-0.989,0.039-1.975,0.044-2.962,0.021c0.064-0.797,0.121-1.596,0.176-2.394c1.501,0.052,3.005,0.035,4.507,0.045
		c-0.065,0-0.336,1.605-0.366,1.761c-0.09,0.465-0.258,1.023-0.201,1.501c0.024,0.205,0.182,0.389,0.387,0.445
		c0.496,0.137,0.567-0.384,0.624-0.73c0.104-0.633,0.213-1.264,0.346-1.891c0.019-0.092,0.194-1.068,0.228-1.068
		c1.023,0.017,2.041,0.057,3.06,0.146c0.262,0.023,0.597,0.059,0.795-0.157c0.228-0.248,0.054-0.61-0.208-0.748
		c-0.18-0.095-0.372-0.084-0.568-0.096c-0.609-0.037-1.217-0.092-1.827-0.103c-0.351-0.007-0.701-0.019-1.052-0.025
		c0.129-0.653,0.245-1.308,0.312-1.971c0.065-0.639-0.919-0.819-0.985-0.178c-0.073,0.719-0.203,1.425-0.345,2.131
		c-1.548-0.01-3.096,0.007-4.641-0.05c0.031-0.479,0.061-0.957,0.091-1.437c1.176-0.006,2.355,0.039,3.532,0.036
		c0.1,0,0.178-0.03,0.248-0.072c0.606-0.221,0.262-1.161-0.366-0.926c-0.812,0.001-1.624-0.012-2.436-0.012
		c-0.229,0-0.574,0.086-0.789-0.008c-0.18-0.078-0.181-0.33-0.286-0.477c-0.126-0.175-0.363-0.268-0.561-0.151
		c-0.246,0.145-0.141,0.638-0.466,0.663c-0.111,0.008-0.267,0-0.372-0.02c-0.002-0.201,0.21-0.978,0.25-1.182
		c0.042-0.214,0.241-0.337,0.395-0.469c0.223-0.19,1.969-1.552,2.688-1.962c0.179-0.102,0.486-0.128,0.688-0.145
		c0.248-0.02,0.495,0.008,0.735,0.069c0.518,0.132,1.008,0.388,1.471,0.65c0.941,0.532,1.726,1.26,2.448,2.059
		c0.395,0.437,0.76,0.899,1.111,1.372c0.652,0.88,1.144,1.86,1.512,2.887C153.706,140.506,152.18,141.436,150.573,142.049z"/>
	<path fill="#EEEEEE" d="M153.296,177.461c-1.1-1.347-2.223-2.672-3.421-3.933c-0.443-0.466-1.078,0.309-0.638,0.771
		c1.139,1.198,2.2,2.464,3.245,3.745C152.887,178.538,153.704,177.962,153.296,177.461z"/>
	<path fill="#EEEEEE" d="M160.854,129.647c-1.502-1.942-4.192-2.816-6.486-1.913c-1.679,0.661-2.532,2.179-2.504,3.793
		c-1.482-1.491-3.395-2.535-5.457-2.994c-2.677-0.596-5.184,1.437-6.868,3.263c-2.192,2.376-3.35,5.635-4.229,8.684
		c-0.58,2.01-1.054,4.047-1.287,6.126c-0.044,0.395-0.023,0.792,0.007,1.187c0.03,0.389,0.156,0.813,0.049,1.2
		c0.016-0.059-0.759-0.334-0.838-0.356c-0.274-0.076-0.567-0.108-0.848-0.049c-0.512,0.108-0.887,0.546-1.143,0.979
		c-0.188,0.318-0.304,0.665-0.327,1.034c-0.024,0.397,0.104,0.795,0.048,1.189c-0.04,0.281-0.24,0.394-0.441,0.56
		c-0.703,0.583-1.277,1.32-1.667,2.146c-0.179,0.379-0.317,0.776-0.406,1.186c-0.022,0.102-0.17,1.246-0.135,1.246
		c-1.822-0.029-3.247-1.618-5.148-1.253c-0.978,0.188-2.251,1.181-2.197,2.262c0.041,0.794,0.827,1.191,1.48,1.424
		c0.91,0.324,1.901,0.438,2.857,0.531c0.572,0.055,1.147,0.087,1.717,0.16c-0.214,0.417-0.422,0.779-0.69,1.168
		c-0.453,0.657-0.582,1.53,0.008,2.15c0.323,0.339,0.75,0.547,1.128,0.815c0.41,0.29,0.771,0.641,1.15,0.97
		c0.436,0.379,0.869,0.761,1.305,1.141c1.169,1.017,15.749,15.936,16.866,17.129c1.121,1.199,13.128,13.368,13.272,14.039
		c0.026,0.119,0.062,0.289,0.042,0.41c-0.192,1.111-1.336,0.476-2.035,0.488c-0.215,0.003-0.462,0.124-0.593,0.298
		c-0.136,0.181-0.1,0.524,0.077,0.677c0.94,0.817,1.748,1.798,2.385,2.867c0.137,0.229,0.31,0.414,0.605,0.372
		c0.468-0.067,0.904-0.28,1.339-0.452c0.476-0.188,0.945-0.395,1.406-0.618c0.064-0.031,0.754-0.397,0.762-0.386
		c0.516,0.696,1.217,1.124,2.379,0.973c0.838-0.109,1.648-0.502,2.31-1.012c0.698-0.538,1.337-1.187,1.836-1.915
		c0.274-0.4,0.571-0.853,0.749-1.306c0.06-0.154,0.288-0.797,0.312-0.992c0.079-0.629-0.234-1.163-0.519-1.695
		c-0.281-0.525-0.645-0.976-1.086-1.376c-0.256-0.232-0.543-0.43-0.843-0.6c-0.29-0.165-0.64,0.071-0.703,0.364
		c-0.029,0.135-0.078,0.268-0.119,0.401c-0.296-0.237-0.584-0.49-0.876-0.736c0.765-0.46,1.366-1.077,1.937-1.81
		c0.129-0.166,0.168-0.436,0.022-0.61c-1.067-1.255-2.208-2.462-3.514-3.472c-0.374-0.289-3.446-2.668-3.932-3.064
		c-0.972-0.791-1.946-1.58-2.899-2.394c-0.53-0.453-1.054-0.914-1.567-1.387c-0.551-0.508-1.101-1.018-1.627-1.551
		c-0.581-0.589-1.132-1.207-1.642-1.858c-0.515-0.658-0.997-1.347-1.407-2.076c-0.384-0.684-0.699-1.415-0.816-2.195
		c-0.107-0.712,0.098-2.645,0.255-2.81c0.144-0.153,0.341-0.172,0.429-0.39c0.153-0.38-0.282-0.709-0.434-1.013
		c-0.187-0.376-0.16-0.819,0.034-1.187c0.128-0.243,0.311-0.466,0.496-0.668c0.282-0.183,0.373-0.68-0.023-0.89
		c-1.952-1.038-3.681-2.6-5.285-4.153c1.384-2.154,4.952-1.54,6.594-3.483c1.838-2.174,0.258-4.144-1.212-6.01
		c-0.471-0.598-1.059-1.156-1.628-1.66c-0.569-0.504-1.192-0.952-1.876-1.287c-0.625-0.306-1.325-0.541-2.028-0.523
		c-0.641,0.017-1.214,0.29-1.603,0.804c-0.253,0.334-0.421,0.719-0.565,1.109c-0.129,0.351-0.104,0.619-0.048,0.984
		c0.034,0.216,0.096,0.43,0.221,0.612c0.297,0.436,0.856,0.582,1.345,0.678c1.303,0.258,2.885,0.2,3.959,1.101
		c0.702,0.589,0.823,1.547,0.238,2.262c-0.511,0.625-1.341,0.94-2.01,1.359c-0.973,0.611-1.855,1.355-2.73,2.096
		c-0.118,0.1-0.236,0.2-0.353,0.3c-0.053-0.042-0.1-0.09-0.144-0.142c0.574-0.555,1.04-1.127,1.364-1.862
		c0.265-0.6,0.473-1.27,1.092-1.596c0.549-0.29,1.283-0.24,1.77-0.646c0.534-0.445,0.193-1.201-0.182-1.629
		c-0.976-1.111-2.737-1.004-3.969-0.433c-1.197,0.555-2.317,1.654-2.763,2.937c-0.339-0.552-0.59-1.111-0.731-1.659
		c0.443-0.135,0.885-0.286,1.326-0.469c1.49-0.617,1.017-2.68-0.222-2.912c1.447-2.209,3.326-4.195,5.666-5.375
		c2.078-1.047,4.336-1.686,6.172-3.167c2.329-1.879,1.298-4.756-0.16-7.218c1.806,0.892,3.854,0.605,5.585-0.731
		C162.456,133.734,162.126,131.291,160.854,129.647z M122.693,158.244c-0.778-0.271-0.679-0.696-0.109-1.152
		c1.084-0.865,2.074-0.374,3.125,0.138c1.065,0.52,1.995,0.857,3.184,0.682c0.253-0.037,0.503-0.257,0.458-0.539
		c-0.286-1.765,0.791-3.392,2.136-4.456c0.094,0.202,0.245,0.393,0.481,0.558c0.461,0.32,0.931,0.6,1.408,0.846
		c-0.019-0.01-0.626,0.521-0.697,0.569c-0.226,0.154-0.501,0.344-0.76,0.436c-0.317,0.112-0.559,0.238-0.442,0.617
		c0.089,0.289,0.364,0.447,0.662,0.332c0.855-0.329,1.575-0.868,2.21-1.525c0.046,0.019,0.091,0.043,0.138,0.061
		c-0.256,0.339-0.554,0.648-0.771,0.881c-1.24,1.336-2.773,2.346-4.299,3.321c-0.424,0.271-0.833,0.579-1.278,0.814
		c0.1-0.052,0.021-0.346-0.018-0.415c-0.074-0.13-0.214-0.229-0.358-0.262C126.081,158.764,124.343,158.819,122.693,158.244z
		 M165.079,200.888c-0.489-0.361-0.721-1.13-0.936-1.728c0.579-0.148,1.144-0.384,1.677-0.687c0.298,0.866,0.72,1.667,1.278,2.398
		C166.458,201.17,165.65,201.31,165.079,200.888z M167.943,200.333c-0.572-0.742-0.986-1.538-1.266-2.432
		c0.403-0.306,0.765-0.663,1.103-1.04c0.625,0.595,1.156,1.275,1.474,2.084c0.021,0.055,0.054,0.093,0.086,0.133
		C168.925,199.545,168.453,199.965,167.943,200.333z M169.253,194.459c-0.011,0.03,0.413,0.39,0.456,0.435
		c0.151,0.16,0.286,0.332,0.399,0.521c0.227,0.378,0.52,0.779,0.544,1.235c0.015,0.293-0.098,0.567-0.233,0.821
		c-0.066,0.124-0.137,0.246-0.205,0.37c-0.027,0.048-0.225,0.33-0.21,0.362c-0.39-0.808-0.945-1.511-1.601-2.128
		C168.754,195.567,169.054,195.028,169.253,194.459z M164.478,187.578c0.049,0.003,0.098,0.015,0.15,0.038
		c0.242,0.108,0.445,0.335,0.64,0.507c0.853,0.751,1.703,1.525,2.523,2.323c0.214,0.208,0.434,0.416,0.601,0.665
		c0.021,0.031-0.402,0.459-0.443,0.501c-0.16,0.161-0.333,0.314-0.51,0.457c-0.175,0.141-0.369,0.258-0.562,0.372
		c-0.189,0.111-0.26,0.077-0.421-0.061c-0.117-0.101-0.227-0.209-0.34-0.313c0.473-0.255,1.402-0.631,1.479-1.251
		c0.033-0.266-0.172-0.442-0.421-0.47c-0.324-0.037-0.643,0.138-0.882,0.34c-0.288,0.244-0.497,0.563-0.698,0.879
		c-0.181-0.087-0.247-0.32-0.436-0.41c0.452-0.248,1.262-0.615,1.338-1.203c0.092-0.713-0.934-0.354-1.22-0.151
		c-0.294,0.209-0.521,0.49-0.739,0.774c-0.125-0.165-0.287-0.282-0.44-0.418c-0.322-0.287-0.624-0.598-0.934-0.897
		c-0.165-0.158-0.325-0.324-0.495-0.476c0.466-0.347,0.916-0.733,1.4-1.054C164.2,187.64,164.333,187.569,164.478,187.578z
		 M154.65,178.981c0.931,1.05,1.942,2.026,2.991,2.957c1.227,1.089,2.504,2.119,3.774,3.157c0.355,0.29,0.71,0.581,1.067,0.87
		c0.085,0.069,1.096,0.821,1.045,0.872c-0.162,0.16-0.39,0.336-0.62,0.211c-0.238-0.13-0.35-0.405-0.526-0.6
		c-0.221-0.245-0.448-0.485-0.683-0.716c-0.285-0.279-0.708-0.815-1.148-0.82c-0.348-0.004-0.224,0.443-0.14,0.64
		c0.128,0.299,0.364,0.538,0.57,0.785c0.225,0.27,0.461,0.532,0.698,0.792c0.188,0.206,0.318,0.461,0.555,0.619
		c-0.123,0.013-0.176,0.147-0.277,0.193c-0.16,0.071-0.298-0.127-0.402-0.228c-0.294-0.287-0.566-0.596-0.857-0.886
		c-0.397-0.395-1.631-1.611-1.85-1.825c-3.725-3.632-7.268-7.448-10.431-11.584c0.83-0.902,1.693-1.766,2.647-2.528
		C150.654,173.955,152.652,176.729,154.65,178.981z M150.649,157.696c1.056-0.75,1.926-1.414,1.648-2.785
		c-0.637-3.15-4.511-2.037-6.433-3.454c1.226-4.439,5.654,0.584,7.121,2.523c3.678,4.865-4.362,4.38-6.185,7.024
		c-0.013-0.013-0.028-0.026-0.04-0.039c-0.066-0.065-0.15-0.145-0.223-0.218C147.638,159.481,149.297,158.658,150.649,157.696z
		 M143.8,157.544c0.174-1.24,1.143-2.169,2.165-2.795c0.586-0.359,1.29-0.52,1.969-0.431c0.388,0.051,1.725,0.662,0.915,0.898
		c-0.729,0.212-1.332,0.221-1.899,0.773c-0.97,0.946-0.745,2.435-1.984,3.179c-0.419-0.447-0.844-0.93-1.233-1.433
		C143.764,157.682,143.79,157.62,143.8,157.544z M144.822,160.386c2.003,2.208,4.364,4.495,6.982,6.027
		c-0.771,0.963-0.946,1.888-0.257,2.887c-0.068-0.098-2.392,1.929-2.596,2.125c-0.781,0.746-1.466,1.576-2.213,2.352
		c-0.275,0.285-0.792,0.742-0.457,1.189c0.497,0.663,1.473-0.777,1.455-0.799c2.804,3.645,5.902,7.027,9.142,10.286
		c3.526,3.549,7.154,7.391,11.092,10.483c-0.228,0.42-0.509,0.822-0.832,1.194c0.044-0.051-1.508-2.337-1.837-2.731
		c-0.151-0.181-0.352-0.396-0.605-0.417c-0.285-0.024-0.548,0.285-0.505,0.56c0.052,0.328,1.722,2.287,2.124,3.11
		c0.086,0.176,0.066,0.28-0.087,0.405c-0.503,0.41-1.081,0.759-1.708,0.934c0.026-0.007-20.356-20.949-20.739-21.317
		c-0.358-0.339-0.501-0.692-0.429-1.187c0.064-0.434,0.222-0.942,0.492-1.294c0.255-0.333,4.116-2.954,4.639-4.653
		c0.168-0.547,0.315-1.306,0.08-1.851c-0.29-0.672-8.96-10.018-9.494-10.064c-0.557-0.048-7.163,5.935-7.814,6.386
		c-0.359,0.249-0.159,0.565,0.059,0.825c0.568,0.675,8.565,8.604,9.028,9.085c0.317,0.329,0.711,0.992,1.242,0.897
		c0.33-0.059,0.68-0.227,1.007-0.243c-0.06,0.004-0.584,1.694-0.305,2.058c0.216,0.281,0.507,0.487,0.769,0.72
		c0.555,0.494,9.301,9.315,10.383,10.428c1.083,1.113,2.16,2.231,3.234,3.352c1.075,1.121,2.147,2.245,3.219,3.368
		c1.071,1.122,2.141,2.245,3.217,3.363c0.124,0.129,0.296,0.263,0.386,0.415c-0.329,0.097-0.632,0.278-0.537,0.674
		c0.043,0.177,0.466,1.048,0.582,1.318c0.02,0.046-2.359,1.05-2.87,1.214c-0.44-0.697-0.937-1.346-1.488-1.948
		c0.456,0.006,0.904-0.085,1.294-0.357c0.38-0.265,0.649-1.138,0.636-1.576c-0.021-0.692-0.501-1.287-0.942-1.777
		c-1.294-1.435-9.432-9.676-12.069-12.489c-1.474-1.573-16.731-17.196-17.958-18.207c-0.618-0.509-1.202-1.059-1.823-1.562
		c-0.466-0.378-1.121-0.603-1.307-1.234c-0.15-0.51,1.316-1.397,1.568-1.566c0.567-0.379,3.069-1.905,3.711-2.354
		c0.638-0.445,2.799-2.465,3.146-3.063c0.038-0.065,0.075-0.13,0.11-0.196c0.005-0.01,1.262,0.277,1.385,0.295
		c0.447,0.067,0.895,0.111,1.347,0.122c1.03,0.026,1.996-0.192,3.005-0.307c0.521,1.624,1.606,2.968,2.725,4.223
		C144.277,159.792,144.551,160.087,144.822,160.386z M134.743,164.392c0.251,0.507,5.452,5.248,5.668,5.445
		c0.177,0.162,0.51,0.25,0.729,0.096c0.172-0.121,0.232-0.424,0.143-0.602c-0.111-0.224-5.673-5.352-5.633-5.373
		c0.791-0.431,1.521-0.984,2.135-1.632c0.596,0.816,3.476,3.67,4.316,4.235c0.225,0.151,0.436,0.319,0.658,0.474
		c0.152,0.106,0.442,0.303,0.638,0.288c0.188-0.014,0.345-0.14,0.403-0.318c0.159-0.48-5.39-5.428-5.361-5.468
		c0.537-0.742,0.922-1.571,1.099-2.449c2.918,2.772,5.187,6.134,8.083,8.933c0.031,0.241-0.032,0.543-0.065,0.783
		c-0.037,0.26-0.095,0.517-0.186,0.765c-0.199,0.542-0.542,1.013-0.934,1.431c-0.838,0.896-1.846,1.654-2.962,2.17
		c-0.331,0.153-0.678,0.279-1.026,0.389c-0.213,0.067-0.41,0.175-0.631,0.213c-0.285,0.049-0.409-0.146-0.58-0.335
		c-0.148-0.162-8.44-8.429-8.576-8.515C132.987,164.811,134.736,164.377,134.743,164.392z M133.156,163.812
		c1.891-1.479,3.625-3.141,5.39-4.772c-0.165,0.76-0.526,1.468-1.024,2.098c-0.068,0.05-0.117,0.11-0.146,0.18
		C136.312,162.572,134.724,163.481,133.156,163.812z M150.42,144.547c-3.64,1.561-6.368,4.055-8.376,7.368
		c-1.14,0.419-2.292,0.659-3.431,0.678c-1.154-0.162-2.248-0.616-3.235-1.306c-0.063-1.014-0.23-2.008-0.361-3.025
		c-0.21-1.652,0.24-3.406,0.602-5.006c0.617-2.727,1.457-5.395,2.717-7.895c1.313-2.606,3.753-5.511,6.82-5.914
		c1.148-0.151,2.308,0.203,3.311,0.736c1.06,0.563,2.032,1.328,2.846,2.207c0.706,0.763,1.297,1.608,1.869,2.473
		c0.561,0.848,1.091,1.717,1.536,2.632c0.248,0.509,0.465,1.037,0.645,1.574C156.445,142.297,152.703,143.568,150.42,144.547z
		 M160.047,134.329c-1.497,1.362-3.611,1.389-5.168,0.286c0.161-0.145,0.294-0.306,0.384-0.487c1.277,0.708,3.034,0.551,4.064-0.538
		c1.153-1.218,0.79-2.946-0.428-3.982c-2.112-1.795-6.332,0.167-5.004,2.963c-0.255,0.095-0.496,0.221-0.727,0.366
		c-0.005-0.015-0.002-0.029-0.009-0.045c-0.718-1.729-0.171-3.403,1.552-4.219c1.748-0.828,3.682-0.016,5.004,1.201
		C161.004,131.061,161.444,133.06,160.047,134.329z M154.94,132.315c-0.153-0.271-0.312-0.563-0.349-0.869
		c-0.111-0.897,1.128-1.353,1.812-1.438c0.232-0.029,0.477-0.033,0.711-0.009c0.367,0.039,0.845,0.16,1.149,0.38
		c0.868,0.629,1.07,1.865,0.261,2.604c-0.608,0.555-1.567,0.722-2.347,0.488c-0.205-0.062-0.427-0.163-0.599-0.293
		c-0.254-0.192-0.416-0.469-0.569-0.742C154.986,132.396,154.963,132.356,154.94,132.315z"/>
</g>
<g>
	<path fill="#4AAFBF" d="M63.325,86.073c4.687,6.099,4.655,15.332-1.661,20.98c-3.566,3.19-8.446,2.42-8.042,8.587
		c0.484,7.383,8.349,6.005,13.482,7.18c-1.041,5.228-5.494,10.67-8.512,14.752c-2.873,3.887-9.461,5.912-10.996,10.654
		c-6.518,0.17-21.716,1.302-25.61-3.513c-3.766-4.655-2.601-12.646-0.458-17.523c4.681-10.655,24.205-35.022,25.164-35.935
		c0.901-0.859,13.367-8.359,17.132-4.933"/>
	<path fill="#E1B6B4" d="M139.706,137.574c2.136,0.749,3.584,2.966,4.357,4.98c0.404,1.054,0.661,2.212,0.614,3.35
		c-0.022,0.522-0.142,2.52,0.087,3.043c1.167,2.655,5.324,6.238,1.205,7.497c-1.125,0.344-15.476,4.12-17.246,1.818
		c-5.391,0.044-2.656-14.697-1.419-17.18"/>
</g>
<g>
	<path fill="#E1B6B4" d="M115.614,70.102c2.693-4.259,4.01-5.866,7.452-9.411c4.6-4.739-0.433-5.207-2.419-10.24
		c-1.452-3.678,2.952-11.708,1.001-14.257c-0.929-1.213-6.29-1.076-7.635-0.43c-3.979,1.909-2.303,5.218-2.19,9.949
		c0.274,11.487-7.784,22.816-6.413,32.347"/>
</g>
<g>
	<path fill="#FBCCCC" d="M82.886,30.67c-3.07,10.129-4.265,23.914-3.13,34.393c0.518,4.789-1.102,24.129,5.977,25.282
		c4.866,0.792,11.241-5.82,14.366-8.396c4.179-3.447,5.945-6.234,8.224-11.765c2.461-5.973,2.291-12.539,3.513-18.887
		c1.122-5.83,1.472-10.947,0.952-16.83c-7.129-1.852-4.778-10.995-10.643-13.761C96.717,18.144,83.817,25.8,83.146,30.92"/>
</g>
<g>
	<path fill="#F7E1E1" d="M83.041,88.865c6.654-2.427,5.74-13.712,5.114-19.831c-1.025-10.021-2.092-18.978-1.412-29.013
		c0.178-2.63,1.606-8.237-1.445-9.689c-1.952-0.929-11.752,3.059-13.13,4.795c-2.672,3.367-3.453,11.003-3.29,15.313
		c0.416,11.046-0.709,31.102,9.454,37.625"/>
</g>
<g>
	<path fill="#0490A1" d="M48.883,114.872c-5.277,8.634-3.69,23.012,4.022,29.365c6.043-4.711,11.22-13.996,13.832-21.094
		c-3.06-0.95-6.375-1.256-8.941-3.381c-1.621-1.346-2.952-5.608-4.351-7.156"/>
	<path fill="#0490A1" d="M120.549,77.863l-0.498,1.99c-0.96,2.338-8.465,4.58-11.327,5.711c-5.517,2.179-10.794,2.174-11.812,7.978
		c-0.99,5.651,1.702,4.499,4.237,7.936c2.316,3.14,2.045,6.399,1.501,10.237c-1.091,7.698-7.138,8.031-14.089,8.872
		c-8.326,1.006-18.376-1.879-23.057,5.729c-2.857,4.644-4.508,8.165-8.403,12.203c-5.793,6.006-18.567,8.569-18.599,17.778
		c-0.009,2.736,5.089,13.408,6.026,13.151c0.903-0.249,1.889-0.121,2.697,0.353c0.765,0.448,4.753-7.404,8.49-12.003
		c5.745,1.203,13.334,9.638,15.13,9.638c2.02,0,6.732-2.793,7.503-5.144c5.569-1.18,9.284,3.825,15.827,0.846
		c2.484-1.131,4.763-3.828,7.417-4.36c2.327-0.467,3.189,0.726,5.275,0.87c15.405,1.063,13.059-19.826,15.715-30.795
		C126.55,112.465,125.293,93.613,120.549,77.863z"/>
	<path fill="#297582" d="M120.797,78.361c1.281-5.041-5.79-3.855-4.689-9.721c8.842-3.695,22.213-5.269,28.325,2.942
		c6.693,8.99,10.204,16.59,14.984,27.465c2.062,4.691,2.522,9.358,2.432,14.783c-0.137,8.401-3.441,10.059-10.794,12.855
		c-3.952,1.503-8.733,2.693-12.393,4.611c-4.632,2.428-8.812,9.554-14.597,9.075c-0.233-4.281-4.101-11.501-2.26-14.739
		c0.838-1.473,3.694-1.715,4.907-2.767c3.151-2.731,4.789-9.452,8.72-10.463c2.955-3.843,3.241-6.06-0.558-8.119
		c-6.546-3.548-7.621,2.599-10.8,6.14c-0.188-6.283-0.867-12.394-1.797-18.366c-0.471-3.022-1.558-5.767-2.032-8.72"/>
</g>
<g>
	<path fill="#E1B6B4" d="M69.545,119.412c1.995-4.397,11.647-5.5,15.997-7.936c3.038-1.701,6.183-3.464,8.993-5.444
		c4.454-3.139,7.405-6.815,8.35,0.925c1.745,14.308-10.685,13.943-21.644,14.694c-4.147,0.285-8.046-0.21-11.445-1.742"/>
</g>
<g>
	<path fill="#F7E1E1" d="M54.119,111.699c2.555-3.747,8.435-3.278,10.967-8.319c1.351-2.691,2.49-8.228,1.722-11.316
		c-1.029-4.134-4.153-5.992-7.655-8c-5.066-2.905-5.125-4.354-1.258-8.9c3.941-0.271,7.722-3.683,11.209,0.678
		c2.953,3.693,2.424,10.33,5.852,14.317c3.92,4.56,12.475,1.69,9.952,10.096c-1.744,5.809-6.445,12.373-10.848,16.271
		c-2.93,2.594-9.266,7.453-13.672,6.125c-2.946-0.888-7.353-8.034-5.772-10.703"/>
</g>
<g>
	<path fill="#FBCCCC" d="M60.34,120.905c8.904-1.78,14.418-17.597,20.097-24.188c2.53-2.936,6.133-4.352,9.574-6.396
		c4.433-2.633,6.623-6.383,10.448-9.604c4.897-4.123,11.86-8.793,18.559-8.291c7.49,14.35-19.414,9.995-22.301,19.621
		c-1.37,4.571,6.411,8.71,4.878,12.959c-1.782,4.943-19.553,9.439-24.525,11.929c-4.545,2.276-11.292,6.247-16.481,4.963"/>
</g>
<g>
	<path fill="#F89E5A" d="M69.5,21.366c3.31,3.89,10.725,7.622,15.749,9.273c-7.787,4.233-21.535,5.003-26.262-3.89
		c-3.396-6.389,1.48-14.607,7.883-14.882c-2.302,2.355-1.937,8.993,2.38,9.749"/>
	<path fill="#EE834A" d="M68.75,22.029c1.329,4.647,9.821,9.097,14.26,9.219c1.08-1.985,8.418-6.824,10.787-8.274
		c2.956-1.81,7.395-3.149,10.395-1.207c5.281,3.419,1.708,14.192,11.422,13.475c-2.55-6.218-2.667-12.574-1.415-19.21
		c-2.665-1.943-1.526-5.73-3.006-8.24c-1.547-2.623-5.436-5.32-8.298-5.774C95.818,0.896,90.693,6.067,85.821,9.81
		c-4.459,3.425-10.834,11.187-16.318,12.47"/>
	<path fill="#C16C3E" d="M111.75,7.93c-1.462,7.688-1.131,18.398,0.025,26.218c4.714-0.045,9.136-1.941,10.225,3.031
		c0.648,2.961-2.108,9.039-2.671,12.006c9.376,3.203,18.746-10.221,14.614-17.748c-3.108-5.661-9.24-6.281-14.275-9.013
		c-6.043-3.279-3.947-6.306-6.423-11.633c-0.338-0.728-0.804-1.603-1.244-2.11"/>
</g>
<g>
	<path fill="#134345" d="M81.239,124.637c-4.492,0-4.492,6.966,0,6.966S85.731,124.637,81.239,124.637z"/>
	<path fill="#134345" d="M78.253,135.086c-3.85,0-3.85,5.971,0,5.971S82.103,135.086,78.253,135.086z"/>
</g>
<g>
	<path fill="none" d="M120.376,52.025c-0.226-0.056-0.448-0.124-0.665-0.21c-5.745-2.272,5.06-15.316-0.148-15.305
		c-3.343,0.007-6.717,1.156-9.971-0.054c-3.175-1.181-3.677-4.697-4.094-7.613c-0.665-4.645-3.892-9.476-9.383-5.457
		c-2.874,2.105-5.508,4.514-8.131,6.919c-3.438,3.153-7.387,5.313-12.108,5.833c-1.061,0.116-2.163,0.15-3.275,0.103
		c-1.539,11.962-4.398,25.316-1.449,37.154c2.469,9.913,10.837,19.471,20.726,15.221c0.233-0.202,0.462-0.406,0.683-0.615
		c6.082-5.745,12.217-13.127,20.479-15.766c-0.051-0.384,0.076-0.79,0.482-1.132c2.863-2.409,2.432-6.73,5.218-9.097
		c1.319-1.122,2.611-1.686,4.256-2.23C126.426,58.64,122.045,53.62,120.376,52.025z M78.148,39.635
		c1.804,1.66,3.254,3.861,3.701,6.299c0.345,1.882-2.532,2.686-2.878,0.793c-0.363-1.979-1.469-3.633-2.934-4.981
		C74.617,40.44,76.733,38.334,78.148,39.635z M74.702,58.241c-0.107-0.339-0.148-0.716-0.172-1.055
		c-0.095-1.346-0.039-2.778,0.5-4.037c0.49-1.143,1.448-2.939,2.892-2.939c0.932,0,1.41,0.663,1.439,1.348
		c0,0.622,0.258,1.252,0.255,1.894c-0.003,0.69-0.132,1.373-0.358,2.023c-0.489,1.405-1.512,3.884-3.369,3.783
		C75.204,59.22,74.871,58.779,74.702,58.241z M87.044,85.499c-0.042,0-0.072-0.019-0.111-0.023c-0.073,0.009-0.136,0.032-0.22,0.023
		c-2.348-0.238-3.242-2.597-4.041-4.504c-0.181-0.431-0.365-0.914-0.574-1.386c-0.035,0.014-0.057,0.039-0.096,0.05
		c-2.159,0.619-4.029,0.661-5.437-1.287c-0.242-0.334-0.161-0.943,0.155-1.206c2.148-1.784,4.763-2.445,6.44,0.281
		c0.694,1.129,1.131,2.378,1.671,3.582c0.335,0.745,0.894,2.38,1.881,2.48c0.051,0.005,0.086,0.03,0.132,0.041
		c0.068-0.013,0.124-0.041,0.2-0.041C88.327,83.508,88.327,85.498,87.044,85.499z M87.94,69.539
		c-2.544-0.365-4.387-1.555-5.902-3.609c-0.263-0.356-0.134-0.915,0.155-1.206c3.645-3.67,3.603-8.177,2.73-12.964
		c-0.228-1.255,1.69-1.791,1.92-0.529c0.956,5.246,0.927,10.169-2.638,14.245c1.135,1.275,2.501,1.89,4.265,2.144
		C89.736,67.801,89.195,69.719,87.94,69.539z M101.919,53.358c-0.633,2.235-1.092,4.436-3.014,5.887
		c-0.782,0.59-1.977-0.026-2.197-0.921c-0.5-2.032,0.087-3.848,0.665-5.784c0.198-0.665,0.684-0.99,1.204-1.059
		c0.22-0.123,0.47-0.207,0.736-0.244c0.758-0.104,1.436-0.012,2.221,0.623C101.935,52.185,102.053,52.883,101.919,53.358z
		 M103.872,48.876c-1.708-0.991-2.153-3.369-2.091-5.564c-0.136-0.376-0.298-0.744-0.503-1.1c-0.078-0.135-0.112-0.268-0.126-0.395
		c-0.4-0.666-1.247-1.543-1.96-0.897c-0.033,0.03-0.069,0.045-0.104,0.069c-0.04,0.057-0.089,0.104-0.141,0.15
		c-0.027,0.024-0.057,0.045-0.088,0.066c-0.056,0.038-0.11,0.075-0.177,0.1c-0.104,0.401-0.166,0.83-0.194,1.234
		c-0.087,1.274-2.077,1.282-1.99,0c0.165-2.442,1.397-5.297,4.369-4.59c2.52,0.599,4.664,2.93,5.512,5.318
		C106.961,44.906,107.118,50.762,103.872,48.876z"/>
	<path fill="none" d="M90.965,23.666c3.983-3.26,7.473-5.741,12.7-3.805c3.414,1.265,4.265,4.994,4.713,8.187
		c0.423,3.017,0.87,6.151,4.654,6.005c1.685-0.065,3.338-0.375,5.018-0.48c2.416-0.15,4.649,0.165,5.898,2.447
		c1.357,2.481-0.422,5.655-1.407,7.923c-0.073,0.167-2.34,5.284-1.239,5.226c3.289-0.177,6.944-1.872,9.266-4.22
		c7.546-7.629,2.152-15.879-6.704-18.396c-3.211-0.913-7.125-1.842-8.909-5.012c-2.594-4.61-1.607-12.398-6.794-15.224
		c-7.156-3.899-14.65-0.945-20.528,3.898c-3.748,3.088-14.317,17.257-20.7,13.255c-3.463-2.171-3.536-6.576-1.677-9.722
		c-2.415,1.215-4.227,3.512-4.755,6.739c-1.304,7.969,5.191,13.151,12.776,12.858C81.183,33.04,85.25,28.342,90.965,23.666z"/>
	<path fill="none" d="M54.435,110.393c7.263-3.042,13.441-10.913,10.716-19.193c-1.32-4.01-4.586-4.057-7.479-4.822
		c-0.205,0.198-0.462,0.362-0.784,0.471c-5.226,1.755-9.288,6.822-12.637,10.976c-3.485,4.323-6.906,8.766-9.913,13.436
		c-1.47,2.283-3.481,5.311-5.424,8.69c7.057-4.347,16.466-5.659,23.62-9.539C53.094,110.11,53.829,110.131,54.435,110.393z"/>
	<path fill="none" d="M73.541,85.486c0.399,1.162,0.901,2.299,1.627,3.376c2.581,3.822,6.198,4.542,9.745,3.619
		C80.567,91.841,76.551,89.299,73.541,85.486z"/>
	<path fill="none" d="M61.767,83.976c3.535,1.184,5.943,3.694,6.511,7.502c1.475,9.902-3.828,17.877-12.798,21.687
		c0.098,5.946,7.185,11.244,12.481,7.2c0.443-0.338,0.955-0.388,1.431-0.253c0.124-0.022,0.256-0.032,0.403-0.019
		c6.45,0.583,34.974,2.882,31.699-9.359c-0.413-1.544,0.002-2.847,0.521-4.291c1.12-3.115-2.672-3.254-4.007-4.589
		c-2.378-2.379,0.616-5.417-3.233-6.031c-0.759-0.12-1.302-1.133-1.043-1.836c2.227-6.066,10.408-7.768,15.752-10.01
		c2.777-1.164,5.866-2.003,8.487-3.488c3.274-1.855,0.461-6.852-3.119-5.737c-1.169,0.302-2.281,0.751-3.336,1.348
		c-4.561,2.77-8.797,5.736-12.485,9.625c-0.516,0.543-4.59,5.032-5.676,5.522c-4.073,3.424-8.925,6.036-14.077,4.261
		c-2.672-0.921-5.365-2.505-6.687-5.142c-2.213-4.418-2.117-9.715-5.51-13.505c-0.031-0.034-0.051-0.071-0.078-0.106
		c-3.319-1.523-7.602-1.686-9.686,1.794C54.681,82.952,58.954,83.034,61.767,83.976z"/>
	<path fill="none" d="M146.379,155.577c3.107-2.275-2.148-3.208-2.702-3.283c-0.795-0.119-1.593-0.181-2.395-0.187
		c-2.56-0.081-2.571-4.042,0-3.981c0.273,0.009,0.591,0.024,0.929,0.043c1.167-0.154-0.29-4.713-1.103-5.29
		c-0.709-0.509-1.207-1.346-0.915-2.248c1.106-3.411-6.71-0.104-7.161,0.209c-2.382,1.657-4.157,3.617-5.558,6.085
		c-0.213,3.285-0.454,6.572-0.496,9.845c3.206,3.165,9.503,1.92,13.366,0.94C142.305,157.212,144.716,156.795,146.379,155.577z"/>
	<path fill="none" d="M135.599,110.156c1.047-2.237-1.031-4.582-3.088-4.4c-1.691,0.15-2.764,1.957-3.438,3.326
		c-1.827,3.71-2.476,8.016-3.321,12.209c2.015-2.308,4.114-4.554,6.351-6.836C133.366,113.167,134.824,111.813,135.599,110.156z"/>
	<path fill="#EEEEEE" stroke="#222222" stroke-width="2" stroke-miterlimit="10" d="M122.457,177.518c-6.418,0-6.418,9.952,0,9.952
		C128.875,187.47,128.875,177.518,122.457,177.518z"/>
	<path fill="#222222" d="M78.971,46.726c0.346,1.893,3.223,1.089,2.878-0.793c-0.447-2.437-1.897-4.639-3.701-6.299
		c-1.414-1.301-3.531,0.805-2.111,2.111C77.502,43.093,78.607,44.747,78.971,46.726z"/>
	<path fill="#222222" d="M100.868,37.949c-2.972-0.708-4.204,2.148-4.369,4.59c-0.057,0.848,0.936,1.241,1.559,0.76
		c0.686-0.529,0.433-1.574,0.914-2.222c0.279-0.376,0.859-0.413,1.274-0.23c0.467,0.206,0.758,0.646,0.961,1.096
		c0.458,1.015,0.524,1.862,0.623,2.95c0.091,1.008,0.362,2.07,0.929,2.92c0.286,0.429,0.667,0.802,1.115,1.062
		c3.246,1.886,3.089-3.97,2.508-5.609C105.532,40.879,103.388,38.548,100.868,37.949z"/>
	<path fill="#222222" d="M79.431,51.538c-0.233-0.774-0.72-1.348-1.649-1.271c-1.104,0.092-1.89,1.26-2.369,2.126
		c-0.636,1.149-0.924,2.442-0.933,3.75c-0.005,0.705,0.058,1.419,0.178,2.114c0.11,0.637,0.789,1.034,1.4,1.026
		c0.595-0.008,1.01-0.549,1.428-0.907c0.37-0.317,0.7-0.676,0.969-1.083c0.553-0.837,0.848-1.832,1.031-2.81
		C79.618,53.774,79.721,52.501,79.431,51.538z"/>
	<path fill="#222222" d="M88.47,67.619c-1.764-0.254-3.13-0.869-4.265-2.144c3.565-4.076,3.595-9,2.638-14.245
		c-0.23-1.262-2.148-0.726-1.92,0.529c0.873,4.788,0.916,9.294-2.73,12.964c-0.29,0.292-0.418,0.85-0.155,1.206
		c1.516,2.053,3.359,3.243,5.902,3.609C89.195,69.719,89.736,67.801,88.47,67.619z"/>
	<path fill="#222222" d="M87.039,83.532c-0.252-0.053-0.512-0.096-0.726-0.196c-0.827-0.389-1.136-1.537-1.482-2.307
		c-0.54-1.204-0.977-2.453-1.671-3.582c-1.677-2.726-4.292-2.065-6.44-0.281c-0.317,0.263-0.397,0.872-0.155,1.206
		c1.337,1.845,3.51,1.946,5.532,1.252c0.235,0.436,0.384,0.915,0.575,1.371c0.439,1.046,0.867,2.095,1.546,3.016
		c0.6,0.815,1.761,1.679,2.841,1.508c0.485-0.077,1.005-0.681,0.93-1.207C87.91,83.756,87.489,83.627,87.039,83.532z"/>
	<path fill="#222222" d="M99.3,51.144c-2.307,0.299-2.92,4.252-2.766,6.113c0.072,0.864,0.271,2.045,1.339,2.17
		c1.195,0.141,2.094-1.039,2.572-1.97c0.889-1.731,2.831-5.381-0.114-6.221C99.955,51.13,99.612,51.104,99.3,51.144z"/>
	<path fill="#222222" d="M164.411,106.685c-1.307-5.853-4.16-11.375-6.65-16.789c-2.8-6.089-5.502-12.15-9.557-17.535
		c-7.792-10.35-17.429-8.831-28.434-6.509c0.278-0.608,0.612-1.19,1.079-1.737c1.052-1.229,3.294-1.532,4.76-2.16
		c3.843-1.645,0.998-6.917-1.442-10.099c2.206-0.584,4.394-1.824,6.013-2.828c4.129-2.56,6.565-6.606,7.129-11.346
		c0.477-4.011-2.032-8.423-5.284-10.623c-4.22-2.853-11.403-2.963-14.493-7.026c-2.844-3.741-1.91-9.384-4.601-13.374
		c-2.606-3.866-7.923-5.246-12.294-5.27c-6.606-0.036-12.632,4.499-17.361,8.613c-2.546,2.215-4.708,4.811-7.186,7.088
		c-1.324,1.216-2.846,2.167-4.417,3.023c-6.441,3.515-5.622-8.742,0.542-6.727c0.46,0.15,0.854,0.082,1.156-0.115
		c1.349-0.211,1.739-2.456,0.134-2.93c-9.334-2.755-16.577,4.363-16.164,13.697c0.31,6.992,6.101,10.782,12.316,11.88
		c-1.538,12.203-4.333,25.911-1.342,38.137c-2.965-1.437-6.43-1.95-9.468-0.491c-3.328,1.597-7.569,6.421-5.149,10.247
		c0.013,0.02,0.028,0.034,0.041,0.053c-4.584,2.218-8.16,6.243-11.417,10.069c-4.492,5.279-8.627,10.974-12.376,16.795
		c-5.44,8.448-14.073,22.637-10.09,33.463c0.05-0.036,0.115-0.057,0.167-0.092c0.474-0.407,2.938-1.698,3.261-1.835
		c-0.899-3.704,1.386-12.073,1.454-12.21c4.808-9.685,17.484-10.884,26.905-14.829c1.101,6.205,7.556,11.286,13.661,10.51
		c-3.63,7.56-9.512,13.969-16.584,18.463c-2.004,1.272-4.53,2.656-7.216,3.74c0.307,0.412,1.535,3.045,1.658,3.468
		c1.693-0.662,3.329-1.408,4.827-2.189c10.413-5.426,18.691-15.073,22.694-26.074c7.956,0.643,15.522,0.244,23.406-1.06
		c4.109-0.68,11.394-2.995,10.969-8.57c-0.077-1.001-0.151-1.549-0.404-2.517c-0.721-2.771,0.59-2.953,0.679-5.231
		c0.087-2.244-0.831-3.741-2.786-4.833c-1.718-0.959-2.799-1.063-2.566-3.399c0.081-0.81-0.275-1.91-0.575-2.664
		c-0.366-0.917-1.128-1.336-1.984-1.577c2.331-3.118,7.56-4.027,10.83-5.491c4.492-2.013,9.457-3.388,13.549-6.181
		c5.692-3.887,0.628-9.74-4.604-10.109c0.32-0.447,0.608-0.912,0.859-1.405c0.264,0.055,0.554,0.057,0.867-0.01
		c5.081-1.083,10.085-2.596,15.331-2.331c6.6,0.334,10.913,6.679,13.987,11.764c5.315,8.792,10.422,19.648,12.66,29.673
		c1.236,5.533,0.174,11.303-4.693,14.636c-3.611,2.472-8.404,3.203-12.554,4.316c-7.096,1.904-11.526,5.823-15.867,10.69
		c-0.005-1.111-1.835-8.121-3.837-9.155c2.637-3.615,5.295-7.108,8.622-10.181c2.659-2.456,5.372-5.011,6.927-8.333
		c2.308-4.93-2.964-10.49-8.097-9.28c-4.959,1.168-6.83,7.05-8.138,11.332c-1.342,4.394-1.575,10.081-3.534,14.423
		c1.343,1.065,7.248,29.019,7.248,29.019c0.045-3.241,0.282-6.496,0.493-9.749c1.401-2.468,3.176-4.428,5.558-6.085
		c1.155-0.803,6.22-2.897,7.235-1.111c0.276,0.485-0.251,1.438-0.046,2.032c0.514,1.489,2.42,2.015,3.225,3.29
		c1.136,1.798-0.158,3.142-2.162,3.076c-2.571-0.061-2.56,3.9,0,3.981c0.802,0.006,1.6,0.068,2.395,0.187
		c0.554,0.075,5.809,1.008,2.702,3.283c-1.663,1.218-4.073,1.635-6.036,2.133c-3.849,0.976-10.111,2.212-13.327-0.907
		c0.428,1.526,1.415,2.983,1.332,4.574c-0.167,3.225,4.473,0.514,6.583,0.141c4.444-0.785,11.553-0.199,15.071-3.527
		c1.257-1.19,1.468-3.171,0.821-4.733c-0.737-1.78-2.278-1.862-3.835-2.673c-2.565-1.336-0.472-4.248-0.846-6.506
		c-0.351-2.121-1.984-2.696-2.946-4.406c-0.843-1.498-0.352-2.506-1.905-3.51c-1.121-0.725-2.494-1.043-3.817-1.043
		c-0.094,0-0.185,0.014-0.279,0.017c0.445-0.303,0.894-0.601,1.37-0.875c4.548-2.611,10.224-3.111,15.128-4.837
		C163.97,125.81,166.646,116.696,164.411,106.685z M60.501,20.488c0.528-3.227,2.34-5.524,4.755-6.739
		c-1.859,3.146-1.786,7.551,1.677,9.722c6.383,4.002,16.952-10.167,20.7-13.255c5.878-4.844,13.371-7.797,20.528-3.898
		c5.187,2.826,4.2,10.615,6.794,15.224c1.784,3.17,5.698,4.099,8.909,5.012c8.855,2.517,14.249,10.767,6.704,18.396
		c-2.322,2.348-5.977,4.042-9.266,4.22c-1.101,0.059,1.166-5.059,1.239-5.226c0.985-2.268,2.765-5.442,1.407-7.923
		c-1.249-2.282-3.482-2.597-5.898-2.447c-1.68,0.104-3.333,0.415-5.018,0.48c-3.784,0.146-4.231-2.988-4.654-6.005
		c-0.448-3.194-1.3-6.923-4.713-8.187c-5.227-1.937-8.717,0.544-12.7,3.805c-5.714,4.676-9.782,9.375-17.688,9.68
		C65.692,33.64,59.197,28.457,60.501,20.488z M52.534,110.412c-7.153,3.88-16.563,5.192-23.62,9.539
		c1.943-3.379,3.954-6.407,5.424-8.69c3.007-4.67,6.428-9.113,9.913-13.436c3.349-4.154,7.411-9.221,12.637-10.976
		c0.322-0.108,0.579-0.273,0.784-0.471c2.893,0.764,6.159,0.812,7.479,4.822c2.725,8.28-3.453,16.151-10.716,19.193
		C53.829,110.131,53.094,110.11,52.534,110.412z M117.97,80.49c-2.621,1.485-5.71,2.324-8.487,3.488
		c-5.344,2.241-13.525,3.944-15.752,10.01c-0.259,0.704,0.284,1.716,1.043,1.836c3.849,0.614,0.855,3.652,3.233,6.031
		c1.335,1.335,5.126,1.474,4.007,4.589c-0.519,1.444-0.934,2.748-0.521,4.291c3.275,12.241-25.249,9.942-31.699,9.359
		c-0.147-0.013-0.279-0.003-0.403,0.019c-0.476-0.135-0.988-0.086-1.431,0.253c-5.295,4.043-12.383-1.254-12.481-7.2
		c8.97-3.811,14.273-11.785,12.798-21.687c-0.567-3.808-2.976-6.318-6.511-7.502c-2.812-0.942-7.086-1.024-4.45-5.425
		c2.084-3.48,6.367-3.317,9.686-1.794c0.027,0.035,0.047,0.072,0.078,0.106c3.394,3.79,3.297,9.087,5.51,13.505
		c1.322,2.637,4.015,4.222,6.687,5.142c5.152,1.774,10.004-0.837,14.077-4.261c1.087-0.49,5.161-4.978,5.676-5.522
		c3.688-3.888,7.924-6.855,12.485-9.625c1.055-0.597,2.167-1.047,3.336-1.348C118.431,73.638,121.244,78.635,117.97,80.49z
		 M73.541,85.486c3.01,3.814,7.026,6.355,11.372,6.994c-3.547,0.924-7.164,0.203-9.745-3.619
		C74.441,87.785,73.94,86.648,73.541,85.486z M118.739,62.006c-1.348,1.146-1.97,2.843-2.553,4.459
		c-0.374,1.038-0.833,2.051-1.441,2.975c-0.28,0.426-0.624,0.802-0.911,1.221c-0.837,1.226-1.484,1.879-2.88,2.425
		c-0.978,0.382-1.947,0.844-2.858,1.364c-1.459,0.834-2.82,1.825-4.133,2.87c-2.666,2.121-5.111,4.478-7.519,6.883
		c-1.281,1.279-4.333,4.21-4.566,4.412c-9.889,4.249-18.257-5.308-20.726-15.221c-2.949-11.839-0.09-25.192,1.449-37.154
		c1.113,0.048,2.214,0.014,3.275-0.103c4.721-0.519,8.67-2.68,12.108-5.833c2.622-2.404,5.257-4.814,8.131-6.919
		c5.49-4.02,8.718,0.812,9.383,5.457c0.417,2.916,0.92,6.432,4.094,7.613c3.254,1.21,6.628,0.061,9.971,0.054
		c5.208-0.011-5.597,13.033,0.148,15.305c0.301,0.119,0.598,0.255,0.863,0.441c0.295,0.207,0.511,0.476,0.75,0.74
		c0.242,0.266,0.479,0.535,0.707,0.812c0.428,0.519,0.823,1.065,1.178,1.636c0.34,0.547,0.66,1.117,0.886,1.722
		c0.176,0.473,0.317,1.027,0.123,1.517c-0.097,0.246-0.272,0.446-0.474,0.612c-0.207,0.169-0.495,0.397-0.75,0.482
		C121.351,60.321,120.058,60.885,118.739,62.006z M129.072,109.082c0.675-1.369,1.748-3.176,3.438-3.326
		c2.057-0.182,4.135,2.163,3.088,4.4c-0.775,1.657-2.233,3.011-3.496,4.299c-2.237,2.282-4.336,4.528-6.351,6.836
		C126.596,117.098,127.245,112.792,129.072,109.082z"/>
	<g>
		<path fill="#EEEEEE" stroke="#222222" stroke-width="2" stroke-miterlimit="10" d="M91.673,161.98
			c-1.806-3.904-5.478-6.799-9.901-7.549c-1.588-0.269-3.204-0.246-4.797-0.028c-2.747,0.377-5.682,0.346-5.627,3.947
			c0.096,6.194,0.9,12.366,0.81,18.563c-0.082,5.643-0.428,11.287-0.644,16.926c-0.222,5.778,8.736,5.757,8.957,0
			c0.165-4.295,0.21-8.589,0.195-12.885c0-0.047,1.978-0.44,2.168-0.49c6.045-1.572,10.404-7.499,10.022-13.792
			C92.755,165.009,92.342,163.426,91.673,161.98z M80.558,171.924c-0.052-2.927-0.114-5.854-0.171-8.782
			c1.415,0.239,2.676,0.753,3.13,1.837C84.797,168.032,83.373,171.126,80.558,171.924z"/>
		<path fill="#EEEEEE" stroke="#222222" stroke-width="2" stroke-miterlimit="10" d="M109.616,153.56
			c-2.963-1.987-7.377-2.079-10.603-0.351c-5.517,2.955-7.192,10.338-1.904,14.646c1.902,1.55,4.162,1.826,6.448,2.41
			c1.409,0.36,3.362,0.904,4.248,2.173c1.69,2.423-2.126,6.841-4.48,4.562c-1.493-1.445-1.594-4.093-3.422-5.208
			c-1.181-0.721-2.263-0.122-3.263,0.758c-2.33,2.05-1.259,5.303-0.017,7.561c1.473,2.677,3.54,4.512,6.751,4.689
			c4.408,0.243,8.742-2.417,10.673-6.357c1.713-3.493,1.054-7.594-1.14-10.697c-1.695-2.397-4.333-3.619-7.154-4.151
			c-1.42-0.268-5.307-0.254-5.152-2.485c0.152-2.187,3.388-2.894,4.877-1.721c1.692,1.333,1.076,4.696,4.048,4.472
			c2.316-0.174,3.426-2.666,3.284-4.712C112.634,156.602,111.383,154.744,109.616,153.56z"/>
		<path fill="#EEEEEE" stroke="#222222" stroke-width="2" stroke-miterlimit="10" d="M128.889,135.071
			c-0.325-3.616-1.288-8.247-5.244-9.381c-4.363-1.251-8.971,1.858-8.67,6.621c0.235,3.71,0.219,7.483,0.053,11.198
			c-0.14,3.134-0.444,15.302-0.333,16.923c0.191,2.806,0.442,6.131,2.44,8.316c0.585,0.639,1.439,1.263,2.248,1.585
			c0.447,0.178,2.702,0.217,3.239,0.169c1.085-0.096,2.14-0.429,3.055-1.026c2.109-1.376,3.108-3.818,3.244-6.26
			c0.002-0.054,0.004-0.112,0.007-0.169c0.063-1.585-0.227-3.155-0.379-4.728C127.799,150.547,129.583,142.785,128.889,135.071z"/>
		<path fill="#EEEEEE" stroke="#222222" stroke-width="2" stroke-miterlimit="10" d="M69.707,167.481
			c-0.201-4.9-2.04-10.05-5.456-13.526c-3.997-4.067-9.423-2.451-12.985,1.087c-1.567,1.557-2.838,3.472-3.627,5.532
			c-2.732,7.126-3.475,17.143,1.074,23.723c1.328,1.921,3.757,3.543,5.996,4.201c3.64,1.07,7.14-0.202,9.796-2.758
			c4.354-4.19,4.904-10.605,5.194-16.287C69.731,168.804,69.734,168.145,69.707,167.481z M60.908,171.974
			c-0.033,2.106-1.524,8.693-4.172,7.861c-0.499-0.157-1.038-0.576-1.617-1.339c-1.483-1.953-1.28-4.756-1.02-7.056
			c0.186-1.647,0.333-3.48,0.768-5.079c0.412-1.513,2.096-3.27,3.879-2.144C61.03,165.659,60.944,169.611,60.908,171.974z"/>
		<path fill="#EEEEEE" stroke="#222222" stroke-width="2" stroke-miterlimit="10" d="M43.949,170.801
			c0.507-3.453,0.574-6.918,0.304-10.03c-0.495-5.713-1.873-12.116-6.175-16.241c-1.409-1.351-3.24-2.443-5.091-3.075
			c-8.778-2.996-17.453,2.916-20.324,11.185c-1.665,4.794-1.69,10.175-1.374,15.189c0.453,7.19,1.867,17.357,8.88,21.322
			c1.86,1.051,4.413,1.587,6.548,1.49c3.402-0.155,7.021-1.083,9.585-3.422C40.687,183.219,43.034,177.031,43.949,170.801z
			 M34.079,165.268c-0.201,4.742-1.271,15.587-7.859,15.662c-3.452,0.04-4.464-9.584-4.648-12.362
			c-0.341-5.187-1.245-19.192,7.175-17.976C35.044,151.501,34.277,160.635,34.079,165.268z"/>
	</g>
</g>
</svg>
