<?xml version="1.0" encoding="utf-8"?>
<!-- Generator: Adobe Illustrator 17.0.0, SVG Export Plug-In . SVG Version: 6.00 Build 0)  -->
<!DOCTYPE svg PUBLIC "-//W3C//DTD SVG 1.1//EN" "http://www.w3.org/Graphics/SVG/1.1/DTD/svg11.dtd">
<svg version="1.1" id="Слой_1" xmlns="http://www.w3.org/2000/svg" xmlns:xlink="http://www.w3.org/1999/xlink" x="0px" y="0px"
	 width="212.99px" height="257.33px" viewBox="0 0 212.99 257.33" enable-background="new 0 0 212.99 257.33" xml:space="preserve">
<g>
	<path fill="#C16C3E" d="M99.268,21.474c-0.303,3.966,1.994,7.29,2.486,10.958c0.482,3.588-1.138,7.843-0.235,11.528
		c0.393,1.605,1.071,3.503,2.421,4.67c0.567,0.49,3.896,0.926,5.05,1.528c1.179,0.615,2.692,2.897,3.453,3.132
		c4.491,1.386,10.38-8.087,10.807-12.831c-2.548-1.871-5.457-2.045-7.843-3.678c-3.195-2.188-2.352-2.539-3.376-6.306
		c-2.263-8.329-4.846-4.536-12.013-6.501"/>
</g>
<g>
	<path fill="#EE834A" d="M100.268,24.724c0.675,2.287,0.897,5.05,1.776,7.496c-9.922,3.517-34.229,13.454-36.532-3.453
		C63.761,15.915,71.918,3.021,85.669,3.908c-9.695,0.888-11.83,20.797,1.854,15.992c3.552-1.247,5.004-3.984,8.855-1.077
		c1.8,1.359,2.912,4.984,4.389,6.402"/>
</g>
<g>
	<path fill="#F89E5A" d="M63.601,26.474c1.093,4.884-0.287,5.282-4.811,7.644c-1.288-4.954,2.568-5.875,5.979-8.208
		c-0.408-0.109-0.36,0.285-0.668,0.563"/>
</g>
<g>
	<path fill="#E7A47D" d="M64.305,51.791c-0.527,4.435-1.865,4.86-4.38,8.346c-1.922,2.664-3.142,6.481-1.94,9.873
		c0.962,2.715,5.436,4.002,5.269,6.764c-5.033,1.773-10.339,2.513-13.601-2.32c-2.875-4.26-3.236-10.183-1.223-14.634
		c1.682-3.719,3.342-2.752,6.14-4.949c2.382-1.871,2.305-4.53,2.365-7.23c0.115-5.24,0.375-9.67,4.712-12.935
		c1.073-0.808,2.236-1.522,3.637-2.066c0.774,1.745,1.79,3.943,3.151,5"/>
</g>
<g>
	<path fill="#E18F7D" d="M67.935,37.141c-6.364,6.33-3.864,14.381-8.217,21.292c-2.092,3.322-4.089,5.563-3.458,10.032
		c0.585,4.146,3.421,8.048,7.78,7.8c3.091-0.176,8.18-3.665,9.753,1.052c0.857,2.571-1.836,5.454-1.835,8.644
		c5.063-1.33,10.97,0.225,15.745-2.2c2.876-1.461,6.111-4.678,8-7.583c4.184-6.435,5.103-15.992,6.399-23.215
		c0.56-3.121,0.613-6.387,0.667-9.602c0.059-3.537,1.592-8.252-1.859-9.52"/>
</g>
<g>
	<path fill="#DC7664" d="M101.341,47.786c0.351,4.141-1.292,9.721-2.335,13.748c-1.274,4.915-2.319,9.884-4.844,14.357
		c-1.297,2.297-2.42,3.965-4.437,5.593c-5.049,4.077-11.671,2.503-18.02,2.659c-3.955,5.688,3.77,5.815,7.436,4.971
		c4.252-0.979,18.301-1.378,20.932-3.646c3.114-2.684,13.371-19.736,13.76-22.351c0.506-3.406-1.814-10.381-4.491-12.666"/>
</g>
<g>
	<path fill="#963C20" d="M208.401,57.276c-0.913-3.266-6.947-23.891-8.431-25.715c-4.329-5.321-32.02-12.484-35.815-12.712
		c-4.966-0.298-28.466,6.625-31.707,11.191c-2.011,2.833-6.252,13.989-7.479,15.171c-0.522,0.502-2.306,4.858-2.83,6.836
		c-0.603,2.275-4.878,10.809-5.543,10.898c3.633,5.276,12.05,24.029,13.586,28.39c1.96,5.565,33.093,15.279,36.188,16.017
		c1.661-1.333,24.125-9.765,29.02-11.665C200.763,93.601,208.653,58.179,208.401,57.276z"/>
</g>
<g>
	<path fill="#0E3137" d="M128.768,147.807c5.795,12.478,22.193,63.343,22.18,63.245c5.142-10.595,6.256-29.061,5.782-40.609
		c-0.351-8.547-8.31-44.363-8.641-45.153"/>
</g>
<g>
	<path fill="#681F0F" d="M136.768,26.641c4.253,1.795,9.888,1.511,14.432,3.171c7.406,2.706,14.074,6.648,20.669,10.937
		c9.784,6.363,13.744,14.282,18.749,24.542c2.791,5.721,5.158,11.369,5.978,17.548c0.446,3.36,1.423,6.065,3.497,8.907
		c1.762-3.544,1.993-8.115,3.39-11.868c1.591-4.273,3.688-7.833,5.416-12.043c0.8-1.948,2.098-4.297,1.542-6.536
		c-0.599-2.414-3.463-4.71-4.434-7.135c-0.935-2.333-0.883-5.264-1.092-7.801c-0.526-6.366-3.773-9.121-7.316-14.383
		c-1.243-1.845-0.537-2.373-2.703-3.51c-2.026-1.063-5.464-1.007-7.728-1.701c-3.474-1.065-7.08-2.664-10.375-4.145
		c-3.587-1.611-6.45-2.844-10.532-3.479c-4.088-0.637-4.89-0.071-9.393,1.48c-6.888,2.373-13.972,3.874-21.101,5.348"/>
	<path fill="#134049" d="M151.934,215.972c1.494-4.934,2.236-10.037,2.943-15.133c0.036-0.258,0.116-0.469,0.223-0.645
		c-2.324-19.504-14.03-45.321-24.563-53.279c-6.898-5.212-33.447-7.262-33.447-7.262c-1.047,29.289-10.817,57.771-25.118,82.974
		c19.916,12.413,36.229-33.962,38.879-46.388c-0.04-0.032,1.691,0.085,1.749,0.047c5.973,12.866,17.019,29.963,20.435,44.308
		c6.306-1.715,12.464-2.372,18.512-3.543C151.563,216.659,151.691,216.274,151.934,215.972z"/>
</g>
<g>
	<path fill="#1F6775" d="M85.131,135.564c6.64,18.565-14.856,83.217-17.111,84.878c1.603,0.681,3.329,1.213,5.104,1.532
		c21.742-25.877,28.144-52.953,35.077-82.326C108.201,139.648,93.577,135.821,85.131,135.564z"/>
</g>
<g>
	<path fill="#995727" d="M58.333,227.061c-10.351,2.386-24.259,17.793-13.096,26.032c-34.481,3.009-9.074-25.223,11.615-25.365"/>
	<path fill="#824921" d="M68.865,237.213c-1.885,4.631-5.289,8.108-9.454,10.994c-4.106,2.845-8.766,5.487-13.783,5.216
		c-2.152-0.116-3.993-1.027-5.169-2.864c-2.343-3.662-2.427-8.939-0.641-12.819c0.611-1.326,1.42-2.55,2.302-3.71
		c0.936-1.231,1.954-2.694,3.124-3.71c4.525-3.926,17.306-6.586,23.222-7.719"/>
	<path fill="#824921" d="M154.333,222.394c8.675,5.877,11.532,13.456,8.42,23.297c-6.646-4.318-12.098-10.121-19.222-13.266
		c-6.811,7.53-13.476-3.844-10.665-11.664c0.056-0.056,0.113-0.111,0.169-0.167c8.193-0.08,16.812-0.979,24.806,0.796
		c0.373,1.18-0.761,1.769-0.842,3.171"/>
	<path fill="#673A1A" d="M67.5,222.061c5.503,1.324,11.231,2.291,16.947,2.629c1.286,6.551,1.526,15.415-5.099,17.885
		c-4.69-4.945-11.744-1.24-16.659,2.004c0.798-7.632,6.509-15.342,4.311-22.517"/>
	<path fill="#673A1A" d="M156.688,222.228c10.339,3.219,26.584,4.609,31.711,15.685c6.252,13.505-10.346,16.421-21.527,9.445
		c-8.892-5.548-7.453-16.301-12.558-25.308"/>
</g>
<g>
	<path fill="#358F9F" d="M129,87.752c-0.222-0.377-10.962-25.144-10.949-25.301c-3.452,1.159-4.556,4.24-8.324,7.896
		c-1.901,1.844-3.663,7.851-3.759,8.095c-2.136,5.455-6.966,7.956-12.522,8.96c-2.85,0.515-20.879,2.731-21.113,2.617
		c-0.705-0.161-3.281,16.497-1.544,25.912c1.612,8.734,19.477,22.932,19.778,23.174c4.544,1.67,22.52,3.323,27.198,3.27
		c0.664-0.007,17.004-24.234,17.042-24.459c-2.757-0.331-4.491-2.135-7.261-2.499c0.74-9.38,13.691-17.031,13.739-17.488
		C136.261,96.79,128.679,88.238,129,87.752z"/>
</g>
<g>
	<path fill="#FBCCCC" d="M33.768,145.044c5.927,0.052,12.208,0.801,18.031-0.604c5.304-1.279,9.669-4.22,14.128-7.19
		c-9.233-6.784-19.2-15.267-17.441-26.353c-4.627,0.48-7.941,0.404-10.846-3.748c-13.955,6.347-7.943,26.467-4.358,37.958
		C33.432,145.069,33.591,145.042,33.768,145.044z"/>
	<path fill="#FBCCCC" d="M142.638,107.324c-1.01-0.818-11.151-2.699-12.746-1.207c-1.727,1.616-8.005,8.309-10.019,9.187
		c2.083,1.125,4.884,0.036,6.76,1.108c3.143,1.796-2.752,8.245-3.754,9.361c-1.16,1.292-3.073,1.801-4.713,2.096
		c0.705,1.562,2.311,3.866,1.947,5.669c-0.5,2.477-4.54,3.171-3.942,6.103c0.529,2.59,13.692,10.982,16.324,8.279
		c0.726-0.746,4.157-8.617,5.314-10.34c-0.817-1.658,4.96-2.653,6.081-4.001c1.16-1.395,1.492-3.344,2.863-4.595
		c1.322-1.207,2.931-0.968,2.95-2.975C149.761,119.771,147.699,111.426,142.638,107.324z"/>
</g>
<g>
	<path fill="#E1B6B4" d="M68.812,135.973c-0.104-0.285-0.746-11.068-1.827-12.67c-0.935-1.386-2.247-1.963-3.885-2.065
		c-1.266-0.078-3.183-6.131-3.689-7.207c-0.697-1.479,5.603-7.194,7.535-9.15c0.236-1.032-0.158-7.926-2.491-8.972
		c-0.826-0.37-22.978,13.781-23.17,13.708c0.212,10.538,8.947,25.385,20.538,27.638C63.75,137.63,68.793,136.274,68.812,135.973z"/>
</g>
<g>
	<path fill="#3C5D66" d="M132.935,97.474c-0.781,2.528-0.681,5.487-0.077,7.997c2.528-0.056,5.883-0.871,8.05-2.199
		c-2.029-3.602-5.647-6.188-10.113-7.279c0.735,0.483,2.008,1.672,2.639,2.314"/>
	<path fill="#F7E1E1" d="M37.435,106.307c0.214-4.641,0.407-9.741,0.833-14.5"/>
	<path fill="#F7E1E1" d="M38.268,90.141c0-0.056,0-0.111,0-0.167"/>
	<path fill="#F7E1E1" d="M38.435,91.474c-0.046-1.829-0.933-3.309-2.5-4"/>
	<path fill="#F7E1E1" d="M35.768,87.474c-0.112-0.225-0.221-0.442-0.333-0.667"/>
	<path fill="#F7E1E1" d="M34.935,86.474c-0.264-0.129-0.448-0.271-0.667-0.5"/>
	<path fill="#F7E1E1" d="M34.268,85.974c-0.118-0.059-0.215-0.107-0.333-0.167"/>
	<path fill="#F7E1E1" d="M33.768,85.807c-3.783-0.211-7.143,2.435-6.743,6.481c0.395,3.998,2.072,7.464,1.496,11.586
		c0.348,10.494-10.253,20.457-5.691,31.205c2.399,5.651,7.27,8.601,12.712,10.845c1.445-0.882-0.005-2.838-0.546-3.837
		c-1.006-1.859-1.676-3.63-2.073-5.705c-0.704-3.686-0.836-7-0.467-10.736c0.698-7.062,3.747-13.73,5.178-20.648
		c1.059-5.121,1.378-10.404,0.134-15.522"/>
	<path fill="#F7E1E1" d="M37.768,89.474c-0.296-0.851-0.818-1.613-1.5-2.167"/>
	<path fill="#0E3137" d="M72.504,82.474c0.335-0.84,0.37-4.239,0.779-5.348l-6.788-0.711c0,0-22.456,10.376-27.911,17.215
		c0.419,4.39-0.421,14.095-0.712,14.378c9.276,11.418,15.183-11.378,22.706-11.801c11.401-0.641,3.147,13.392-1.497,17.743
		c8.625,2.738,11.701-4.321,12.991-13.185C69.441,94.636,71.952,88.857,72.504,82.474z"/>
</g>
<g>
	<path fill="#222222" d="M70.601,49.641c0.106-2.806-1.31-5.344-3.495-7.03c-1.021-0.788-2.015,0.951-1.009,1.727
		c1.626,1.255,2.582,3.257,2.505,5.303c-0.004,0.101,0.024,0.18,0.044,0.265c-0.031,0.522,0.281,1.068,0.956,1.068
		c0.697,0,1.004-0.581,0.948-1.118C70.567,49.785,70.598,49.723,70.601,49.641z"/>
	<path fill="#222222" d="M94.867,49.01c-1.57-0.242-2.904,0.05-4.25,0.893c-1.408,0.882-2.481,2.192-4.021,2.875
		c-1.177,0.522-0.158,2.245,1.009,1.727c2.263-1.003,4-3.987,6.729-3.566C95.597,51.133,96.139,49.206,94.867,49.01z"/>
	<path fill="#222222" d="M63.939,50.277c-1.039-0.768-2.034,0.969-1.009,1.727c1.03,0.761,2.473,1.457,3.67,2.331
		c-1.434-0.386-2.988-0.381-4.406,0.067c-0.778,0.246-2.339,0.686-1.789,1.827c0.615,1.273,2.404-0.039,3.335-0.123
		c1.333-0.12,2.661,0.026,3.81,0.758c0.577,0.367,1.03,0.887,1.253,1.543c0.373,1.099,1.867,0.856,1.964-0.266
		C71.133,53.937,66.725,52.337,63.939,50.277z"/>
	<path fill="#222222" d="M93.601,55.807c-3.985-0.137-8.262,0.56-11.207,3.46c-0.65,0.64-0.138,1.66,0.707,1.707
		c2.378,0.132,4.415,0.239,6.495,1.53c1.099,0.682,2.103-1.049,1.009-1.727c-1.553-0.964-3.103-1.369-4.749-1.579
		c2.324-1.228,5.13-1.481,7.744-1.391C94.892,57.852,94.887,55.851,93.601,55.807z"/>
	<path fill="#222222" d="M76.738,55.303c-1.574,2.925-1.66,6.082-5.637,6.338c-0.548,0.035-0.995,0.428-1,1
		c-0.014,1.648,0.603,3.27,1.716,4.48c0.733,0.797,2.083,1.723,3.249,1.514c0.505-0.091,0.923-0.629,0.833-1.174
		c-0.085-0.512-0.429-0.586-0.868-0.745c-0.675-0.245-1.377-0.54-1.868-1.084c-0.135-0.15-1.157-2.079-0.972-2.106
		c1.486-0.213,2.829-0.713,3.821-1.983c1.177-1.507,1.552-3.562,2.451-5.231C79.076,55.177,77.349,54.167,76.738,55.303z"/>
	<path fill="#FFFFFF" d="M35.495,78.58c-5.024-4.588-9.467-9.752-14.333-14.5c-1.385-1.351-3.508,0.768-2.121,2.121
		c4.755,4.64,9.113,9.668,13.997,14.176c0.144,0.593,0.606,1.096,1.397,1.096c0.943,0,1.423-0.714,1.446-1.444
		C36.052,79.563,35.983,79.026,35.495,78.58z"/>
	<path fill="#FFFFFF" d="M40.73,73.884c-5.908-8.245-10.793-17.121-15.667-26c-0.931-1.696-3.522-0.183-2.59,1.514
		c4.849,8.835,9.711,17.666,15.58,25.876c0.161,0.565,0.618,1.034,1.381,1.034c0.744,0,1.199-0.444,1.371-0.99
		C41.063,74.92,41.105,74.408,40.73,73.884z"/>
	<path fill="#FFFFFF" d="M43.214,67.409c-2.104-6.483-4.259-12.938-6.985-19.192c-0.771-1.77-3.355-0.241-2.59,1.514
		c2.62,6.012,4.66,12.243,6.682,18.475C40.916,70.038,43.813,69.254,43.214,67.409z"/>
	<path fill="#FFFFFF" d="M38.536,25.694c-0.086,0.032-0.161,0.074-0.236,0.116c-0.011,0-0.021-0.003-0.032-0.003
		c-1.935,0-1.935,3,0,3c0.242,0,0.454-0.047,0.635-0.129c0.137-0.01,0.278-0.034,0.43-0.091c2.261-0.849,4.172,0.216,4.386,2.708
		c0.297,3.453-3.224,3.215-5.553,2.399c-1.329-0.465-2.249,1.12-1.694,2.203c2.65,5.176-4.37,6.919-7.243,3.152
		c-0.076-0.1-0.16-0.185-0.247-0.26c-0.232-0.377-0.635-0.649-1.214-0.649c-1.571,0-1.866,1.979-0.885,2.722
		c2.466,3.02,6.002,4.234,9.725,2.656c2.733-1.159,3.651-3.794,3.312-6.376c3.485,0.311,6.685-1.307,6.809-5.532
		C46.859,27.149,42.663,24.145,38.536,25.694z"/>
	<path fill="#FFFFFF" d="M24.768,30.307c-0.421-3.936-2.751-7.465-6.639-8.692c-3.147-0.993-4.779,1.332-5.32,3.904
		C4.72,22.635-1.285,32.99,4.175,38.929c-2.864,1.425-4.613,4.131-4.082,7.714c0.719,4.858,6.154,4.982,9.599,3.292
		c0.501-0.246,0.725-0.637,0.756-1.048c0.324-0.882-0.123-2.081-1.347-2.081c-0.598,0-1.009,0.287-1.238,0.683
		c-2.047,0.907-4.186,0.893-4.878-1.644c-0.797-2.921,2.437-4.493,4.682-4.926c1.306-0.252,1.426-2.131,0.358-2.742
		c-6.49-3.713-1.439-13.278,5.319-9.076c0.952,0.592,2.292-0.171,2.257-1.295c-0.204-6.654,5.778-1.126,6.167,2.5
		C21.972,32.21,24.974,32.23,24.768,30.307z"/>
	<path fill="#FFFFFF" d="M15.988,73.909c-0.491,2.196-1.645,4.081-4.127,3.359c-2.351-0.684-2.365-3.052-1.131-4.703
		c0.774-1.035-0.511-2.651-1.694-2.203c-5.913,2.238-6.661-6.943-0.667-5.607c1.119,0.249,2.132-0.701,1.845-1.845
		c-0.354-1.411-0.527-2.768,0.162-4.11c1.004-1.958,3.365,0.837,3.998,1.569c1.268,1.466,3.38-0.666,2.121-2.121
		c-1.899-2.194-4.56-4.054-7.401-2.359c-1.945,1.16-2.32,3.58-2.123,5.764c-3.325,0.107-5.948,2.272-5.883,6.145
		c0.061,3.653,2.756,5.833,5.88,5.937c-0.416,2.437,0.8,4.877,3.335,6.12c4.172,2.046,7.691-1.172,8.578-5.146
		C19.302,72.821,16.41,72.021,15.988,73.909z"/>
	<path fill="#FFFFFF" d="M204.115,63.193c-0.051-0.336-10.072-28.343-11.638-29.627c-1.756-1.44-29.726-11.268-31.427-10.404
		c-3.591,1.822-24.685,6.636-25.678,8.625c-2.211,4.426-15.322,30.182-14.349,32.257c0.494,1.055,10.905,26.331,13.621,26.824
		c1.426,0.259,29.827,11.808,30.834,11.719c0.947-0.084,24.708-9.593,26.799-10.719C195.037,90.379,204.479,65.593,204.115,63.193z
		 M191.723,88.23c-0.125,0.023-22.59,9.244-25.663,10.8c-1.294,0.655-29.231-10.182-31.034-11.439
		c-1.472-1.026-11.027-24.569-10.807-25.002c4.234-8.363,13.092-29.23,14.948-29.659c4.441-1.025,21.882-5.955,22.828-7.121
		c0.194-0.239,27.975,9.355,28.585,9.959c0.491,0.487,6.981,21.519,10.614,27.927C198.885,72.117,194.745,80.102,191.723,88.23z"/>
	<path fill="#FFFFFF" d="M140.538,40.435c-3.987,3.673-1.811,11.183,0.973,14.858c2.036,2.688,5.719,6.979,0.541,8.757
		c-1.84,0.632-3.927,0.55-5.798,0.134c-1.557-0.346-2.837-1.44-2.882-3.103c-0.05-1.844,0.843-3.058,1.862-4.477
		c0.576-0.802,0.914-2.098,0.158-2.951c-0.302-0.341-1.527-0.414-1.95-0.369c-0.686,0.072-1.236,0.464-1.678,0.975
		c-1.085,1.256-1.693,3.058-2.063,4.651c-0.626,2.695,0.184,5.806,2.383,7.605c1.348,1.102,3.423,1.72,5.139,1.88
		c6.007,0.562,13.834-2.901,11.06-10.247c-1.197-3.17-4.192-5.139-5.188-8.427c-0.465-1.535-1.643-5.777,0.618-6.601
		c1.852-0.675,7.344,1.685,4.809,3.775c-1.992,1.642,0.855,4.455,2.828,2.828C158.079,44.174,145.941,35.458,140.538,40.435z"/>
	<path fill="#FFFFFF" d="M170.673,51.982c-0.163-1.46-1.719-1.951-2.894-2.53c-1.937-0.955-3.933-1.719-5.927-2.542
		c-1.144-0.472-2.293-0.957-3.408-1.497c-2.311-1.118-4.34,2.331-2.019,3.454c1.414,0.684,2.87,1.272,4.327,1.855
		c-3.885,5.492-6.22,11.845-9.711,17.575c-1.346,2.209,2.114,4.218,3.454,2.019c3.58-5.876,5.933-12.414,10-18
		c0.006-0.009,0.009-0.017,0.015-0.026c1.051,0.474,2.085,0.985,3.082,1.577c1.221,0.726,3.045-0.057,3.093-1.546
		C170.689,52.203,170.685,52.09,170.673,51.982z"/>
	<path fill="#FFFFFF" d="M171.491,54.331c-2.017,1.565-3.426,3.87-4.653,6.068c-1.661,2.976-3.826,6.655-3.237,10.231
		c0.14,0.85,0.493,1.85,1.004,2.553c0.798,1.097,2.149,1.52,3.445,1.647c3.436,0.337,6.372-1.286,8.35-4.046
		c2.192-3.058,3.484-6.587,4.216-10.254c0.254-1.275,0.5-2.663,0.155-3.945c-0.733-2.722-3.292-3.799-5.886-3.638
		c-1.227,0.076-2.35,0.587-3.319,1.325C171.542,54.292,171.516,54.311,171.491,54.331z M176.566,60.614
		c-0.05,0.172-0.094,0.326-0.125,0.454c-0.504,2.1-1.343,4.111-2.466,5.956c-0.621,1.02-1.343,1.978-2.169,2.842
		c-1.033,1.081-2.076,1.354-3.559,1.029c-1.603-0.351-0.292-3.456,0.02-4.318c1.219-3.371,3.36-7.06,6.191-9.348
		c0.495-0.4,1.387-0.875,2.033-0.475C177.552,57.411,176.908,59.443,176.566,60.614z"/>
	<path fill="#FFFFFF" d="M192.979,59.391c-9.629-8.954-15.59,14.335-17.139,19.884c-0.695,2.489,3.165,3.544,3.857,1.063
		c0.876-3.14,1.949-6.229,3.115-9.274c3.859,2.277,9.634,4.391,12.535-0.386C197.481,67.165,195.771,61.988,192.979,59.391z
		 M192.212,67.523c-0.184,4.114-5.768,1.046-7.434,0.057c-0.195-0.116-0.386-0.183-0.575-0.23c1.046-2.693,2.682-6.118,4.731-5.725
		C191.401,62.099,192.307,65.404,192.212,67.523z"/>
	<path fill="#222222" d="M202.829,35.735c-0.555-1.245-2.44-7.76-4.591-8.702c-1.182-0.518-33.509-11.003-34.151-11.081
		c-0.786-0.096-28.96,9.376-30.94,9.779c-1.868,0.38-7.84,12.39-8.424,13.65c-0.337-1.061-0.928-2.036-1.853-2.841
		c-1.539-1.34-3.847-1.29-5.745-1.618c-2.555-0.441-1.35-6.44-1.632-8.169c-0.596-3.656-3.128-4.877-6.556-5.225
		c-3.392-0.344-6.977,1.568-8.568-2.53c-0.821-2.114-1.859-3.18-3.669-4.446c-3.778-2.641-8.184,2.641-11.475,3.572
		c-4.55,1.287-5.259-2.207-3.63-5.888c1.287-2.908,3.638-5.281,6.938-5.567c1.162-0.101,2.599,0.302,3.679-0.274
		c0.929-0.496,1.464-1.808,1.234-2.819c-0.132-0.582-0.59-1.247-1.08-1.594c-6.745-4.767-18.834-0.613-23.521,5.519
		c-3.157,4.13-5.781,10.264-6.241,16.239c-0.019,0.247-3.109,2.154-3.504,2.566c-0.958,1.001-1.7,2.191-2.279,3.446
		c-1.3,2.819-1.514,5.963-1.508,9.019c0.004,2.348-1.148,4.755-1.417,7.108c-0.212,1.852-0.037,3.653,0.062,5.51
		c0.134,2.49,0.113,2.028-2.219,2.488c-2.724,0.538-4.647,3.907-5.62,6.196c-2.24,5.267-1.704,12.028,1.744,16.644
		c1.538,2.06,3.414,3.182,5.442,3.657c-4.727,2.706-9.529,6.143-13.904,9.412c-1.935-4.267-6.248-8.141-10.478-4.314
		c-5.918,5.356-3.485,10.772-1.645,17.366c2.278,8.167-6.006,14.68-7.788,22.069c-1.122,4.649-0.543,9.636,2.034,13.687
		c9.954,15.651,44.265,9.961,50.193-6.89c0.246-0.7-0.275-1.736-1.048-1.845c-0.948-0.133-1.804-0.279-2.631-0.39
		c1.476-1.828,2.005-4.146,0.557-6.733c-1.452-2.595-3.73-2.315-6.224-2.998c-0.036-1.692-1.313-3.755-2.252-5.191
		c1.169,0.82,5.359,0.363,6.046,0.352c0.531,1.836,1.995,3.785,3.011,5.387c1.135,1.789,2.32,3.547,3.576,5.254
		c1.243,1.69,2.556,3.329,3.955,4.893c0.484,0.541,4.377,3.835,4.302,4.291c-0.058,0.351-0.039,0.738,0.101,1.163
		c4.483,13.636,2.391,28.376-0.608,42.098c-3.064,14.018-7.813,27.587-11.895,41.338c-0.118,0.257-0.178,0.537-0.211,0.821
		c-7.468,1.454-14.866,4.013-21.844,6.916c-7.474,3.11-16.742,7.4-19.988,15.4c-3.539,8.721,6.299,15.818,14.109,14.662
		c6.165-0.912,11.798-3.861,17.113-6.983c5.312-3.12,10.438-5.709,16.151-7.759c0.053,0.207,0.107,0.414,0.155,0.623
		c0.141,0.621,0.752,1.286,1.397,1.397c12.047,2.082,12.666-8.41,11.598-17.399c0.932-0.428,1.379-1.414,1.344-2.382
		c11.984-11.767,21.997-28.143,24.505-45.043c7.214,12.548,12.627,25.77,16.425,40.061c0.117,0.438,0.318,0.78,0.566,1.05
		c-1.834,8.753,1.088,17.264,11.595,16.036c0.957-0.112,1.594-0.544,1.929-1.468c0.163-0.45,0.319-0.902,0.477-1.353
		c7.584,6.57,15.415,13.078,24.552,17.337c8.293,3.865,19.639,4.27,22.572-6.453c2.516-9.2-9.14-15.364-15.756-18.4
		c-7.031-3.226-14.534-5.561-22.091-7.373c0.525-0.744,0.617-1.782,0.259-2.625c8.12-28.283,5.203-60.59-1.531-88.829
		c-0.086-0.36-0.235-0.647-0.415-0.891c-0.86-4.68-2.184-9.152-3.689-13.652c-0.3-0.898,2.924-8.802,3.854-9.225
		c2.625-1.196,14.203,4.96,15.383,4.398c4.13-1.967,31.944-13.096,32.742-13.398c1.541-0.583,9.525-21.215,11.175-25.72
		c0.672-1.868,2.162-4.085,1.69-6.15C212.569,62.464,204.797,40.151,202.829,35.735z M73.577,9.617
		c1.389-1.569,3.75-2.922,6.327-3.75c-2.502,2.742-4.038,6.517-4.388,10.441c-0.667,7.472,8.576,8.064,13.494,5.784
		c1.444-0.67,4.863-4.189,6.278-2.266c1.072,1.457,1.038,3.695,2.546,4.917c3.965,3.214,7.752,1.003,12.347,1.99
		c0.777,0.167,0.406,5.034,0.462,5.784c0.136,1.804,0.709,3.362,1.633,4.887c2.401,3.962,8.902,0.698,7.394,6.678
		c-0.48,1.905-1.456,3.682-2.471,5.347c-2.103,3.45-3.259,1.638-4.994-0.913c-0.732-1.076-1.815-2.096-3.105-2.451
		c-0.67-0.184-3.675,0.603-3.901,0.26c-2.685-4.067,2.32-9.408-0.04-13.435c-2.104-3.593-6.398-3.148-9.805-2.159
		c-4.831,1.402-9.253,3.92-14.138,5.231c-7.239,1.943-12.978-2.209-13.448-9.486C67.376,20.408,69.566,14.148,73.577,9.617z
		 M140.467,107.748c0.078,0.18,0.176,0.35,0.321,0.484c-0.316,0.703-0.635,1.405-0.974,2.098c-0.008,0.016-0.01,0.031-0.018,0.047
		c-0.19,0.348-0.322,0.728-0.407,1.119c-3.537-0.896-8.336,0.187-8.828,4.233c-0.093-0.009-0.189-0.014-0.293-0.005
		c-2.171,0.175-6.033,0.603-7.553-1.438c-1.159-1.556,3.853-4.187,4.944-4.804C131.075,107.55,136.888,104.966,140.467,107.748z
		 M134.642,103.679c0.088-2.029,0.117-4.058,0.122-6.089c1.644,1.992,3.104,4.094,4.41,6.277
		C137.729,103.491,136.197,103.454,134.642,103.679z M142.29,116.356c1.814,1.336,3.331,3.132,4.034,5.294
		c0.525,1.615,1.38,4.214,0.162,5.699c-1.93,2.354-6.046-0.631-7.58-2.042c-2.188-2.012-4.634-4.883-5.332-7.864
		c-0.549-2.344,1.259-3.179,3.249-3.168C138.613,114.285,140.588,115.102,142.29,116.356z M141.245,99.722
		c1.019,0.37,2.038,0.741,3.058,1.109c-0.39,0.684-0.751,1.384-1.096,2.09C142.588,101.837,141.934,100.771,141.245,99.722z
		 M131.422,139.437c-2.829-1.404-5.931-3.815-6.635-4.384c-2.084-1.686-3.778-4.417-4.142-7.09c0.959-0.476,2.579,0.388,3.444,0.82
		c0.008,0.004,0.022,0.01,0.03,0.013c0.024,0.01,4.49,4.534,7.175,5.596c1.302,0.515,2.771,0.68,3.675,1.752
		c0.675,0.801,1.762,2.246,1.319,3.366C135.69,141.019,133.64,140.537,131.422,139.437z M131.522,146.689
		c-2.13,0.329-6.056-1.871-7.086-2.471c-1.91-1.113-4.442-2.619-5.402-4.719c-0.974-2.131,1.107-2.697,2.773-3.129
		c2.18,2.109,4.799,3.98,7.515,5.327c1.673,0.83,3.733,1.108,3.588,3.397C132.846,146.106,132.305,146.568,131.522,146.689z
		 M123.348,118.278c1.233,0.377,2.627,0.515,3.926,0.543c-0.799,0.218-1.537,0.605-2.165,1.19c-0.033-0.039-0.056-0.08-0.093-0.118
		C124.495,119.352,123.936,118.814,123.348,118.278z M135.244,132.548c-2.563-0.64-5.153-1.713-7.128-3.505
		c-1.5-1.361-2.202-3.529-1.786-5.501c0.78-3.695,5.015-1.717,6.695-0.181c2.346,3.461,6.009,6.479,9.58,7.314
		c1.354,1.276,2.224,2.081-0.003,2.542C140.236,133.706,137.534,133.119,135.244,132.548z M130.768,96.474
		c0,2.76-0.008,5.52-0.164,8.276c-2.951,1.107-5.75,2.8-7.897,4.348c-2.153,1.552-3.643,3.802-2.715,6.358
		c-9.093-7.217-21.396-14.663-18.962-26.951c0.038-0.194,0.043-0.376,0.034-0.552c2.573-1.222,4.672-3.051,5.876-5.8
		c1.609-3.672,1.778-7.08,1.883-10.713c1.515,0.376,3.061,0.13,4.566-0.707c1.857,0.464,3.851,0.455,5.535,1.398
		c3.5,7.903,5.945,16.284,11.118,23.352c0.219,0.299,0.481,0.503,0.761,0.644C130.785,96.239,130.768,96.351,130.768,96.474z
		 M115.819,60.713c-0.79-1.642-1.673-3.346-1.49-3.729c0.006-0.013,0.008-0.025,0.014-0.038c1.189,0.053,2.349-0.418,3.444-1.203
		C117.127,57.398,116.471,59.055,115.819,60.713z M117.18,68.452c-0.377-0.071-0.756-0.136-1.135-0.202
		c0.185-0.346,0.333-0.712,0.452-1.09C116.729,67.589,116.959,68.019,117.18,68.452z M62.722,28.44
		c0.075,0.529,0.179,1.049,0.299,1.564c-1.021,0.553-1.956,1.222-2.797,1.999C60.749,30.646,61.53,29.441,62.722,28.44z
		 M49.156,70.162c-1.121-4.197-0.033-11.971,5.206-12.676c4.314-0.58,3.675-5.132,3.445-8.554
		c-0.341-5.075,1.908-12.374,6.606-15.18c0.449,0.841,0.978,1.645,1.609,2.395c8.006,9.505,19.956,3.609,29.349-0.126
		c0.743-0.295,5.922-2.432,4.954,1.293c-0.302,1.163-0.408,2.187-0.517,3.381c-0.217,2.38-0.402,4.974,0.635,7.208
		c0.663,1.429,1.669,3.193,3.328,3.649c1.617,0.444,3.603-0.516,4.913,0.822c0.537,0.548,1.602,1.752,1.834,2.478
		c0.276,0.866-0.352,1.621-0.422,2.465c-0.118,1.419,0.9,2.456,1.577,3.555c0.93,1.509,1.897,3.573,0.951,5.317
		c-0.846,1.559-2.884,1.049-4.275,0.539c-1.308-1.214-3.328-0.342-3.414,1.414c-0.194,3.951-0.174,7.232-1.262,11.135
		c-1.45,5.203-7.551,6.808-12.405,7.198c-3.091,0.249-6.53-2.33-9.669-1.193c-3.514,1.274-4.732,4.289-8.966,3.264
		c-0.2-0.048-0.387-0.06-0.568-0.055c0.061-0.941,3.034-11.45,3.306-11.972c0.012,0.006-11.593-2.024-11.739-1.993
		c-0.281,0.008-0.574,0.076-0.873,0.223C56.672,77.748,51.083,77.373,49.156,70.162z M53.135,84.219
		c2.25-1.52,6.366-6.251,12.797-7.701c17.344-1.625-1.871,7.685-3.532,8.984c-0.047-0.006-0.082-0.027-0.133-0.027
		c-0.064,0-0.11,0.025-0.168,0.034c-0.056-0.01-0.102-0.034-0.165-0.034c-3.481-0.01-6.96-0.096-10.441-0.137
		C52.039,84.965,52.584,84.591,53.135,84.219z M41.548,91.373c0.008-0.023,0.009-0.044,0.016-0.068
		c0.266-0.191,0.53-0.386,0.796-0.576c4.943,0.73,9.91,0.473,14.893,0.42c-1.22,2.366-1.834,5.079-2.118,7.746
		c-1.524,1.508-2.715,3.299-3.928,5.058c-2.128,3.086-5.999,4.163-9.419,5.167c-0.037-0.006-0.075-0.011-0.113-0.016
		c-0.006-0.007-0.009-0.017-0.016-0.024C38.485,103.394,39.554,97.278,41.548,91.373z M65.019,123.387
		c3.893,1.88-0.375,5.633-2.483,6.474c-1.755,0.7-1.062,3.533,0.798,2.893c1.684-0.58,3.202-0.477,4.809-0.253
		c-6.518,13.318-32.177,15.711-42.298,6.588c-7.973-7.187-2.016-17.253,2.19-24.49c2.448-4.212,3.068-9.209,1.763-13.885
		c-1.019-3.652-2.875-6.283-1.068-10.219c2.124-4.625,6.003-4.298,8.055-0.141c-0.003,0.042-0.017,0.076-0.017,0.12v2
		c0,0.105,0.013,0.201,0.029,0.295c-0.022,0.115-0.034,0.238-0.029,0.372c0.158,4.269-2.091,8.199-2.309,12.444
		c-0.221,4.303,3.326,6.005,6.984,6.494c0.181,0.064,0.384,0.088,0.606,0.062c0.319,0.012,0.582-0.063,0.785-0.204
		c3.393-1.01,6.773-2.154,9.424-4.591c1.331-1.223,5.113-6.355,5.473-6.725c1.225-1.256,4.566-4.754,6.316-2.362
		c0.537,0.734,0.883,1.742,1.108,2.615c0.781,3.03-1.585,5.667-3.58,7.557c-1.991,1.885-4.471,3.383-7.093,4.534
		c-2.352,0.255-4.771,1.191-6.638,2.215c-1.541,0.846-0.462,3.104,1.156,2.742c1.736-0.389,3.847-1.102,6.031-2.078
		c1.027-0.033,2.056,0.158,3.058,0.698c2.521,1.358,1.402,3.14-0.37,4.529c-1.627,0.682-3.113,1.527-4.209,2.276
		c-1.348,0.922-0.548,3.268,1.156,2.742c1.692-0.522,3.762-1.494,5.337-2.84C61.653,122.706,63.369,122.59,65.019,123.387z
		 M60.867,113.176c-0.324-0.052-0.596,0.039-0.806,0.203c-0.053-0.046-0.104-0.094-0.169-0.127
		c6.67-4.206,11.88-10.644,6.395-17.705c-2.601-3.348-6.007-1.178-8.696,1.107c1.037-4.291,3.36-7.684,7.462-10.674
		c1.715-1.25,3.121-2.706,4.564-4.256c0.853-0.915,2.057-1.913,3.263-2.26c-3.17,5.538-2.929,10.838-2.502,17.06
		C71.682,106.79,72.088,114.987,60.867,113.176z M70.927,113.546c-0.199-0.339-0.313-0.943-0.577-1.133
		c3.422-4.175,1.865-12.31,1.666-19.907c3.652,0.825,5.796,0.516,8.817-2.153c2.782-2.458,5.813-0.283,8.852-0.017
		c2.553,0.224,4.833-0.233,7.196-0.908c-1.68,15.895,15.767,23.366,25.306,33.295c0.355,0.37,0.751,0.549,1.144,0.593
		c-0.016,0.07-0.041,0.129-0.056,0.2c-0.131,0.62-0.167,1.217-0.141,1.797c-2.571-0.641-5.468-0.417-5.424,3.036
		c0.022,1.791,0.844,3.718,1.98,5.425c-2.531,0.668-4.801,2.282-4.194,5.205c-9.103,0.04-17.161,0.693-25.559-3.888
		C81.382,130.423,75.712,121.725,70.927,113.546z M83.563,235.721c-0.139,1.83-0.807,3.632-2.404,4.634
		c-1.642,1.03-3.754,1.443-3.64-0.631c0.069-1.266-1.335-2.32-2.532-1.929c-5.348,1.748-10.329,3.629-15.228,6.452
		c-4.361,2.513-8.517,5.22-13.199,7.141c-5.119,2.099-11.679,3.509-15.3-1.771c-1.998-2.913-1.361-6.058,0.728-8.695
		c4.938-6.235,13.956-9.527,21.158-12.16c5.858-2.141,11.991-4.067,18.155-5.109c0.314-0.053,0.571-0.159,0.778-0.302
		c3.35,2.135,7.043,3.339,11.03,3.726C83.511,229.945,83.783,232.813,83.563,235.721z M167.253,227.421
		c6.591,2.362,18.13,6.351,19.996,14.148c1.007,4.208-3.411,7.978-7.158,8.39c-4.634,0.51-9.443-1.945-13.369-4.082
		c-8.201-4.463-15.283-10.724-22.29-16.817c-1.184-1.03-2.813-0.578-3.343,0.883c-0.347,0.956-0.68,1.917-1.015,2.877
		c-6.372,0.072-7.487-5.042-6.345-10.8c4.381,0.479,8.767,0.533,13.016-0.365C153.698,223.106,160.566,225.024,167.253,227.421z
		 M148.36,216.048c-4.719,1.521-9.572,1.519-14.536,0.982c-5.182-18.944-13.165-36.148-24.398-52.317
		c-1.826-2.628-6.162-0.132-4.317,2.524c1.217,1.752,2.388,3.518,3.529,5.295c-0.064,0.214-0.112,0.44-0.12,0.694
		c-0.587,18.255-11.7,36.576-24.689,48.917c-3.556-0.29-6.9-1.346-9.813-3.447c4.086-13.589,8.609-27.037,11.643-40.92
		c2.724-12.463,4.417-25.892,1.567-38.479c9.16,5.424,18.786,4.679,29.043,4.679c0.795,0,1.392-0.306,1.795-0.764
		c1.398,1.379,3.109,2.523,4.568,3.425c0.171,0.106,0.353,0.208,0.529,0.312c-0.175,0.182-0.34,0.387-0.483,0.638
		c-3.155,5.544-5.822,11.337-8.75,17c-1.774,3.431,3.403,6.466,5.181,3.028c2.928-5.663,5.595-11.456,8.75-17
		c0.278-0.488,0.392-0.966,0.404-1.421c1.422,0.38,2.877,0.544,4.304,0.319c3.173-0.502,3.548-3.575,3.062-6.202
		c1.641-0.178,2.838-1.311,3.52-2.819c0.652-1.441,0.5-2.877-0.114-4.147c1.928,0.167,3.84,0.044,5.563-0.561
		c2.83-0.993,2.781-3.18,1.719-5.133c0.376-0.106,0.741-0.259,1.099-0.437C153.796,157.586,156.446,188.844,148.36,216.048z
		 M197.069,92.545c-9.449,4.62-30.792,12.605-30.918,12.558c-0.015-0.007-33.171-12.697-33.391-12.699
		c-5.893-8.629-13.615-28.596-13.826-28.75c4.574-11.615,9.118-23.256,15.324-34.115c10.051-2.366,19.684-6.122,29.447-9.434
		c0.156,0.115,22.493,6.247,33.002,10.632c-0.037,0.342,11.843,33.045,11.864,33.102C205.161,73.488,197.229,92.497,197.069,92.545z
		"/>
	<g>
		<path fill="#222222" d="M74.343,75.053c-2.387-1.728-5.327-1.11-7.513,0.551c-0.12-0.672-0.108-1.349,0.239-1.98
			c0.501-0.91,1.698-1.187,2.632-1.353c1.268-0.225,0.729-2.152-0.532-1.929c-1.547,0.274-2.949,0.924-3.827,2.272
			c-0.486,0.746-0.635,1.631-0.565,2.502c0.054,0.661,4.383,1.318,4.905,1.149c1.068-0.347,2.151-0.346,3.164,0.187
			c1.499,0.79,1.646,2.502,1.02,3.924c-0.091,0.207-0.198,0.406-0.312,0.601c-0.103,0.176-0.332,0.412-0.379,0.607
			c-0.084,0.35,0.018,0.728,0.291,0.969c0.165,0.146,0.695,0.17,0.906,0.154c0.292-0.023,0.535-0.155,0.736-0.365
			c0.466-0.488,0.684-1.237,0.859-1.872c0.33-1.198,0.391-2.558-0.155-3.706C75.499,76.109,74.929,75.478,74.343,75.053z"/>
		<path fill="#222222" d="M79.768,74.807c-0.043,4.21-1.1,9.44-6.333,9.167c-0.036-0.002-0.061,0.013-0.096,0.014
			c-0.026-0.002-0.044-0.014-0.071-0.014c-1.29,0-1.29,2,0,2c0.035,0,0.06-0.016,0.093-0.019c0.027,0.003,0.046,0.017,0.074,0.019
			c6.413,0.335,8.279-5.837,8.333-11.167C81.781,73.517,79.781,73.518,79.768,74.807z"/>
	</g>
</g>
<g>
	<path fill="#EEEEEE" d="M73.437,81.747c0.381-1.34,1.617-5.99-1.336-4.241c-1.317,0.78-2.437,1.943-3.625,2.899
		c-1.177,0.948-5.496,4.898-6.997,5.152c-1.706,0.288-8.335-0.373-9.927-0.249c0.789-0.33,1.39-0.959,2.094-1.426
		c0.711-0.471,9.316-6.188,12.281-6.717c3.266-0.583,7.979,0.516,7.757,0.145c-0.282-0.471-1.383-1.092-5.602-1.071
		c-1.029,0.005-1.933-0.297-2.965-0.06c-0.369,0.085-2.261,0.743-2.844,0.956c-0.69,0.252-8.669,2.374-12.97,5.608
		c-2.654,1.995-5.679,3.55-8.398,5.448c-1.539,1.075-2.273,2.81-2.668,4.601c-0.475,2.151-0.551,4.424-0.732,6.616
		c-0.145,1.752-2.011,12.607,2.841,10.072c1.293-0.676,0.784-1.76,0.338-2.852c-1.231-3.013-1.291-6.004-0.719-9.188
		c0.309-1.72,2.536-6.706,3.404-6.575c6.372,0.961,12.042,0.345,13.799,0.292c-1.178,0.565-2.619,6.379-2.033,7.737
		c0.547-0.496,1.905-1.892,2.456-2.241c0.81-0.513,0.235-0.953,0.503-1.721c0.798-2.285,2.257-4.551,3.894-6.309
		c2.18-2.342,4.854-4.203,7.147-6.441c1.133-1.106,2.473-2.183,3.914-2.855c-1.078,2.074-2.322,3.803-2.706,6.188
		c-0.376,2.335-0.337,4.752-0.234,7.107c0.057,1.303,0.18,2.6,0.269,3.9c0.068,0.987,0.178,1.971,0.283,2.955
		c0.12,1.123,0.229,2.248,0.235,3.379c0.006,1.147-0.087,2.296-0.282,3.427c-0.239,1.382-0.62,2.825-1.516,3.937
		c-0.256,0.317-0.543,0.617-0.84,0.896c-0.388,0.364-0.776,0.745-1.23,1.029c-0.452,0.284-0.965,0.422-1.489,0.496
		c-0.306,0.043-0.615,0.061-0.923,0.084c-0.5,0.036-1.001,0.048-1.501,0.072c-0.593,0.029-3.658,0.609-2.996,1.751
		c0.272,0.468,5.892,1.12,8.25-0.383c2.758-1.758,4.039-4.747,4.307-8.001c0.228-2.763-0.13-5.562-0.337-8.311
		c-0.222-2.953-0.188-5.847-0.176-8.804C72.174,86.549,72.757,84.137,73.437,81.747z"/>
</g>
</svg>
